%TF.GenerationSoftware,KiCad,Pcbnew,7.0.9*%
%TF.CreationDate,2023-11-11T13:47:04+01:00*%
%TF.ProjectId,kim-1-mtu-expansion-card,6b696d2d-312d-46d7-9475-2d657870616e,rev?*%
%TF.SameCoordinates,Original*%
%TF.FileFunction,Legend,Top*%
%TF.FilePolarity,Positive*%
%FSLAX46Y46*%
G04 Gerber Fmt 4.6, Leading zero omitted, Abs format (unit mm)*
G04 Created by KiCad (PCBNEW 7.0.9) date 2023-11-11 13:47:04*
%MOMM*%
%LPD*%
G01*
G04 APERTURE LIST*
G04 Aperture macros list*
%AMFreePoly0*
4,1,22,-1.270000,3.180000,1.270000,3.180000,1.270000,-1.910000,1.254364,-2.108672,1.198732,-2.329454,1.104571,-2.536755,0.974909,-2.723912,0.813912,-2.884909,0.626755,-3.014571,0.419454,-3.108732,0.198672,-3.164364,0.000000,-3.180000,-0.198672,-3.164364,-0.419454,-3.108732,-0.626755,-3.014571,-0.813912,-2.884909,-0.974909,-2.723912,-1.104571,-2.536755,-1.198732,-2.329454,-1.254364,-2.108672,
-1.270000,-1.910000,-1.270000,3.180000,-1.270000,3.180000,$1*%
G04 Aperture macros list end*
%ADD10C,0.150000*%
%ADD11C,0.200000*%
%ADD12C,0.120000*%
%ADD13C,3.180000*%
%ADD14O,2.000000X2.000000*%
%ADD15R,2.600000X2.600000*%
%ADD16C,2.600000*%
%ADD17C,1.700000*%
%ADD18FreePoly0,270.000000*%
%ADD19R,1.700000X1.700000*%
%ADD20O,1.700000X1.700000*%
G04 APERTURE END LIST*
D10*
X79721064Y-92883723D02*
X80102017Y-92883723D01*
X79644874Y-93112295D02*
X79911541Y-92312295D01*
X79911541Y-92312295D02*
X80178207Y-93112295D01*
X80863921Y-93112295D02*
X80406778Y-93112295D01*
X80635350Y-93112295D02*
X80635350Y-92312295D01*
X80635350Y-92312295D02*
X80559159Y-92426580D01*
X80559159Y-92426580D02*
X80482969Y-92502771D01*
X80482969Y-92502771D02*
X80406778Y-92540866D01*
X81130588Y-92312295D02*
X81625826Y-92312295D01*
X81625826Y-92312295D02*
X81359160Y-92617057D01*
X81359160Y-92617057D02*
X81473445Y-92617057D01*
X81473445Y-92617057D02*
X81549636Y-92655152D01*
X81549636Y-92655152D02*
X81587731Y-92693247D01*
X81587731Y-92693247D02*
X81625826Y-92769438D01*
X81625826Y-92769438D02*
X81625826Y-92959914D01*
X81625826Y-92959914D02*
X81587731Y-93036104D01*
X81587731Y-93036104D02*
X81549636Y-93074200D01*
X81549636Y-93074200D02*
X81473445Y-93112295D01*
X81473445Y-93112295D02*
X81244874Y-93112295D01*
X81244874Y-93112295D02*
X81168683Y-93074200D01*
X81168683Y-93074200D02*
X81130588Y-93036104D01*
X70888459Y-72792295D02*
X70888459Y-71992295D01*
X70888459Y-71992295D02*
X71345602Y-72792295D01*
X71345602Y-72792295D02*
X71345602Y-71992295D01*
X71726554Y-72792295D02*
X71726554Y-71992295D01*
X71726554Y-71992295D02*
X71993220Y-72563723D01*
X71993220Y-72563723D02*
X72259887Y-71992295D01*
X72259887Y-71992295D02*
X72259887Y-72792295D01*
X72640840Y-72792295D02*
X72640840Y-71992295D01*
X70777983Y-71770200D02*
X72751316Y-71770200D01*
X71002744Y-112670390D02*
X70926554Y-112632295D01*
X70926554Y-112632295D02*
X70812268Y-112632295D01*
X70812268Y-112632295D02*
X70697982Y-112670390D01*
X70697982Y-112670390D02*
X70621792Y-112746580D01*
X70621792Y-112746580D02*
X70583697Y-112822771D01*
X70583697Y-112822771D02*
X70545601Y-112975152D01*
X70545601Y-112975152D02*
X70545601Y-113089438D01*
X70545601Y-113089438D02*
X70583697Y-113241819D01*
X70583697Y-113241819D02*
X70621792Y-113318009D01*
X70621792Y-113318009D02*
X70697982Y-113394200D01*
X70697982Y-113394200D02*
X70812268Y-113432295D01*
X70812268Y-113432295D02*
X70888459Y-113432295D01*
X70888459Y-113432295D02*
X71002744Y-113394200D01*
X71002744Y-113394200D02*
X71040840Y-113356104D01*
X71040840Y-113356104D02*
X71040840Y-113089438D01*
X71040840Y-113089438D02*
X70888459Y-113089438D01*
X71383697Y-113432295D02*
X71383697Y-112632295D01*
X71383697Y-112632295D02*
X71840840Y-113432295D01*
X71840840Y-113432295D02*
X71840840Y-112632295D01*
X72221792Y-113432295D02*
X72221792Y-112632295D01*
X72221792Y-112632295D02*
X72412268Y-112632295D01*
X72412268Y-112632295D02*
X72526554Y-112670390D01*
X72526554Y-112670390D02*
X72602744Y-112746580D01*
X72602744Y-112746580D02*
X72640839Y-112822771D01*
X72640839Y-112822771D02*
X72678935Y-112975152D01*
X72678935Y-112975152D02*
X72678935Y-113089438D01*
X72678935Y-113089438D02*
X72640839Y-113241819D01*
X72640839Y-113241819D02*
X72602744Y-113318009D01*
X72602744Y-113318009D02*
X72526554Y-113394200D01*
X72526554Y-113394200D02*
X72412268Y-113432295D01*
X72412268Y-113432295D02*
X72221792Y-113432295D01*
D11*
X211440000Y-139106266D02*
X212201905Y-139106266D01*
X211820952Y-139487219D02*
X211820952Y-138725314D01*
X212582857Y-138487219D02*
X213249523Y-138487219D01*
X213249523Y-138487219D02*
X212820952Y-139487219D01*
X213630476Y-139391980D02*
X213678095Y-139439600D01*
X213678095Y-139439600D02*
X213630476Y-139487219D01*
X213630476Y-139487219D02*
X213582857Y-139439600D01*
X213582857Y-139439600D02*
X213630476Y-139391980D01*
X213630476Y-139391980D02*
X213630476Y-139487219D01*
X214582856Y-138487219D02*
X214106666Y-138487219D01*
X214106666Y-138487219D02*
X214059047Y-138963409D01*
X214059047Y-138963409D02*
X214106666Y-138915790D01*
X214106666Y-138915790D02*
X214201904Y-138868171D01*
X214201904Y-138868171D02*
X214439999Y-138868171D01*
X214439999Y-138868171D02*
X214535237Y-138915790D01*
X214535237Y-138915790D02*
X214582856Y-138963409D01*
X214582856Y-138963409D02*
X214630475Y-139058647D01*
X214630475Y-139058647D02*
X214630475Y-139296742D01*
X214630475Y-139296742D02*
X214582856Y-139391980D01*
X214582856Y-139391980D02*
X214535237Y-139439600D01*
X214535237Y-139439600D02*
X214439999Y-139487219D01*
X214439999Y-139487219D02*
X214201904Y-139487219D01*
X214201904Y-139487219D02*
X214106666Y-139439600D01*
X214106666Y-139439600D02*
X214059047Y-139391980D01*
X214916190Y-138487219D02*
X215249523Y-139487219D01*
X215249523Y-139487219D02*
X215582856Y-138487219D01*
D10*
X70545602Y-108352295D02*
X70545602Y-107552295D01*
X70545602Y-107552295D02*
X71002745Y-108352295D01*
X71002745Y-108352295D02*
X71002745Y-107552295D01*
X71955125Y-107514200D02*
X71269411Y-108542771D01*
X72678935Y-108276104D02*
X72640839Y-108314200D01*
X72640839Y-108314200D02*
X72526554Y-108352295D01*
X72526554Y-108352295D02*
X72450363Y-108352295D01*
X72450363Y-108352295D02*
X72336077Y-108314200D01*
X72336077Y-108314200D02*
X72259887Y-108238009D01*
X72259887Y-108238009D02*
X72221792Y-108161819D01*
X72221792Y-108161819D02*
X72183696Y-108009438D01*
X72183696Y-108009438D02*
X72183696Y-107895152D01*
X72183696Y-107895152D02*
X72221792Y-107742771D01*
X72221792Y-107742771D02*
X72259887Y-107666580D01*
X72259887Y-107666580D02*
X72336077Y-107590390D01*
X72336077Y-107590390D02*
X72450363Y-107552295D01*
X72450363Y-107552295D02*
X72526554Y-107552295D01*
X72526554Y-107552295D02*
X72640839Y-107590390D01*
X72640839Y-107590390D02*
X72678935Y-107628485D01*
X80292493Y-99892295D02*
X79682969Y-100692295D01*
X79911541Y-100692295D02*
X79835350Y-100654200D01*
X79835350Y-100654200D02*
X79759160Y-100578009D01*
X79759160Y-100578009D02*
X79721064Y-100425628D01*
X79721064Y-100425628D02*
X79721064Y-100158961D01*
X79721064Y-100158961D02*
X79759160Y-100006580D01*
X79759160Y-100006580D02*
X79835350Y-99930390D01*
X79835350Y-99930390D02*
X79911541Y-99892295D01*
X79911541Y-99892295D02*
X80063922Y-99892295D01*
X80063922Y-99892295D02*
X80140112Y-99930390D01*
X80140112Y-99930390D02*
X80216303Y-100006580D01*
X80216303Y-100006580D02*
X80254398Y-100158961D01*
X80254398Y-100158961D02*
X80254398Y-100425628D01*
X80254398Y-100425628D02*
X80216303Y-100578009D01*
X80216303Y-100578009D02*
X80140112Y-100654200D01*
X80140112Y-100654200D02*
X80063922Y-100692295D01*
X80063922Y-100692295D02*
X79911541Y-100692295D01*
X80559159Y-99968485D02*
X80597255Y-99930390D01*
X80597255Y-99930390D02*
X80673445Y-99892295D01*
X80673445Y-99892295D02*
X80863921Y-99892295D01*
X80863921Y-99892295D02*
X80940112Y-99930390D01*
X80940112Y-99930390D02*
X80978207Y-99968485D01*
X80978207Y-99968485D02*
X81016302Y-100044676D01*
X81016302Y-100044676D02*
X81016302Y-100120866D01*
X81016302Y-100120866D02*
X80978207Y-100235152D01*
X80978207Y-100235152D02*
X80521064Y-100692295D01*
X80521064Y-100692295D02*
X81016302Y-100692295D01*
X79721064Y-82683723D02*
X80102017Y-82683723D01*
X79644874Y-82912295D02*
X79911541Y-82112295D01*
X79911541Y-82112295D02*
X80178207Y-82912295D01*
X80482969Y-82912295D02*
X80635350Y-82912295D01*
X80635350Y-82912295D02*
X80711540Y-82874200D01*
X80711540Y-82874200D02*
X80749636Y-82836104D01*
X80749636Y-82836104D02*
X80825826Y-82721819D01*
X80825826Y-82721819D02*
X80863921Y-82569438D01*
X80863921Y-82569438D02*
X80863921Y-82264676D01*
X80863921Y-82264676D02*
X80825826Y-82188485D01*
X80825826Y-82188485D02*
X80787731Y-82150390D01*
X80787731Y-82150390D02*
X80711540Y-82112295D01*
X80711540Y-82112295D02*
X80559159Y-82112295D01*
X80559159Y-82112295D02*
X80482969Y-82150390D01*
X80482969Y-82150390D02*
X80444874Y-82188485D01*
X80444874Y-82188485D02*
X80406778Y-82264676D01*
X80406778Y-82264676D02*
X80406778Y-82455152D01*
X80406778Y-82455152D02*
X80444874Y-82531342D01*
X80444874Y-82531342D02*
X80482969Y-82569438D01*
X80482969Y-82569438D02*
X80559159Y-82607533D01*
X80559159Y-82607533D02*
X80711540Y-82607533D01*
X80711540Y-82607533D02*
X80787731Y-82569438D01*
X80787731Y-82569438D02*
X80825826Y-82531342D01*
X80825826Y-82531342D02*
X80863921Y-82455152D01*
X80216303Y-103232295D02*
X79949636Y-102851342D01*
X79759160Y-103232295D02*
X79759160Y-102432295D01*
X79759160Y-102432295D02*
X80063922Y-102432295D01*
X80063922Y-102432295D02*
X80140112Y-102470390D01*
X80140112Y-102470390D02*
X80178207Y-102508485D01*
X80178207Y-102508485D02*
X80216303Y-102584676D01*
X80216303Y-102584676D02*
X80216303Y-102698961D01*
X80216303Y-102698961D02*
X80178207Y-102775152D01*
X80178207Y-102775152D02*
X80140112Y-102813247D01*
X80140112Y-102813247D02*
X80063922Y-102851342D01*
X80063922Y-102851342D02*
X79759160Y-102851342D01*
X81130588Y-102394200D02*
X80444874Y-103422771D01*
X81321064Y-102432295D02*
X81511540Y-103232295D01*
X81511540Y-103232295D02*
X81663921Y-102660866D01*
X81663921Y-102660866D02*
X81816302Y-103232295D01*
X81816302Y-103232295D02*
X82006779Y-102432295D01*
X81286779Y-102210200D02*
X82041065Y-102210200D01*
X79721064Y-80213723D02*
X80102017Y-80213723D01*
X79644874Y-80442295D02*
X79911541Y-79642295D01*
X79911541Y-79642295D02*
X80178207Y-80442295D01*
X80559159Y-79985152D02*
X80482969Y-79947057D01*
X80482969Y-79947057D02*
X80444874Y-79908961D01*
X80444874Y-79908961D02*
X80406778Y-79832771D01*
X80406778Y-79832771D02*
X80406778Y-79794676D01*
X80406778Y-79794676D02*
X80444874Y-79718485D01*
X80444874Y-79718485D02*
X80482969Y-79680390D01*
X80482969Y-79680390D02*
X80559159Y-79642295D01*
X80559159Y-79642295D02*
X80711540Y-79642295D01*
X80711540Y-79642295D02*
X80787731Y-79680390D01*
X80787731Y-79680390D02*
X80825826Y-79718485D01*
X80825826Y-79718485D02*
X80863921Y-79794676D01*
X80863921Y-79794676D02*
X80863921Y-79832771D01*
X80863921Y-79832771D02*
X80825826Y-79908961D01*
X80825826Y-79908961D02*
X80787731Y-79947057D01*
X80787731Y-79947057D02*
X80711540Y-79985152D01*
X80711540Y-79985152D02*
X80559159Y-79985152D01*
X80559159Y-79985152D02*
X80482969Y-80023247D01*
X80482969Y-80023247D02*
X80444874Y-80061342D01*
X80444874Y-80061342D02*
X80406778Y-80137533D01*
X80406778Y-80137533D02*
X80406778Y-80289914D01*
X80406778Y-80289914D02*
X80444874Y-80366104D01*
X80444874Y-80366104D02*
X80482969Y-80404200D01*
X80482969Y-80404200D02*
X80559159Y-80442295D01*
X80559159Y-80442295D02*
X80711540Y-80442295D01*
X80711540Y-80442295D02*
X80787731Y-80404200D01*
X80787731Y-80404200D02*
X80825826Y-80366104D01*
X80825826Y-80366104D02*
X80863921Y-80289914D01*
X80863921Y-80289914D02*
X80863921Y-80137533D01*
X80863921Y-80137533D02*
X80825826Y-80061342D01*
X80825826Y-80061342D02*
X80787731Y-80023247D01*
X80787731Y-80023247D02*
X80711540Y-79985152D01*
X69897982Y-60014200D02*
X70012268Y-60052295D01*
X70012268Y-60052295D02*
X70202744Y-60052295D01*
X70202744Y-60052295D02*
X70278935Y-60014200D01*
X70278935Y-60014200D02*
X70317030Y-59976104D01*
X70317030Y-59976104D02*
X70355125Y-59899914D01*
X70355125Y-59899914D02*
X70355125Y-59823723D01*
X70355125Y-59823723D02*
X70317030Y-59747533D01*
X70317030Y-59747533D02*
X70278935Y-59709438D01*
X70278935Y-59709438D02*
X70202744Y-59671342D01*
X70202744Y-59671342D02*
X70050363Y-59633247D01*
X70050363Y-59633247D02*
X69974173Y-59595152D01*
X69974173Y-59595152D02*
X69936078Y-59557057D01*
X69936078Y-59557057D02*
X69897982Y-59480866D01*
X69897982Y-59480866D02*
X69897982Y-59404676D01*
X69897982Y-59404676D02*
X69936078Y-59328485D01*
X69936078Y-59328485D02*
X69974173Y-59290390D01*
X69974173Y-59290390D02*
X70050363Y-59252295D01*
X70050363Y-59252295D02*
X70240840Y-59252295D01*
X70240840Y-59252295D02*
X70355125Y-59290390D01*
X70850364Y-59671342D02*
X70850364Y-60052295D01*
X70583697Y-59252295D02*
X70850364Y-59671342D01*
X70850364Y-59671342D02*
X71117030Y-59252295D01*
X71383697Y-60052295D02*
X71383697Y-59252295D01*
X71383697Y-59252295D02*
X71840840Y-60052295D01*
X71840840Y-60052295D02*
X71840840Y-59252295D01*
X72678935Y-59976104D02*
X72640839Y-60014200D01*
X72640839Y-60014200D02*
X72526554Y-60052295D01*
X72526554Y-60052295D02*
X72450363Y-60052295D01*
X72450363Y-60052295D02*
X72336077Y-60014200D01*
X72336077Y-60014200D02*
X72259887Y-59938009D01*
X72259887Y-59938009D02*
X72221792Y-59861819D01*
X72221792Y-59861819D02*
X72183696Y-59709438D01*
X72183696Y-59709438D02*
X72183696Y-59595152D01*
X72183696Y-59595152D02*
X72221792Y-59442771D01*
X72221792Y-59442771D02*
X72259887Y-59366580D01*
X72259887Y-59366580D02*
X72336077Y-59290390D01*
X72336077Y-59290390D02*
X72450363Y-59252295D01*
X72450363Y-59252295D02*
X72526554Y-59252295D01*
X72526554Y-59252295D02*
X72640839Y-59290390D01*
X72640839Y-59290390D02*
X72678935Y-59328485D01*
X71459887Y-85452295D02*
X71459887Y-84652295D01*
X71459887Y-84652295D02*
X71650363Y-84652295D01*
X71650363Y-84652295D02*
X71764649Y-84690390D01*
X71764649Y-84690390D02*
X71840839Y-84766580D01*
X71840839Y-84766580D02*
X71878934Y-84842771D01*
X71878934Y-84842771D02*
X71917030Y-84995152D01*
X71917030Y-84995152D02*
X71917030Y-85109438D01*
X71917030Y-85109438D02*
X71878934Y-85261819D01*
X71878934Y-85261819D02*
X71840839Y-85338009D01*
X71840839Y-85338009D02*
X71764649Y-85414200D01*
X71764649Y-85414200D02*
X71650363Y-85452295D01*
X71650363Y-85452295D02*
X71459887Y-85452295D01*
X72602744Y-84918961D02*
X72602744Y-85452295D01*
X72412268Y-84614200D02*
X72221791Y-85185628D01*
X72221791Y-85185628D02*
X72717030Y-85185628D01*
X71459887Y-77872295D02*
X71459887Y-77072295D01*
X71459887Y-77072295D02*
X71650363Y-77072295D01*
X71650363Y-77072295D02*
X71764649Y-77110390D01*
X71764649Y-77110390D02*
X71840839Y-77186580D01*
X71840839Y-77186580D02*
X71878934Y-77262771D01*
X71878934Y-77262771D02*
X71917030Y-77415152D01*
X71917030Y-77415152D02*
X71917030Y-77529438D01*
X71917030Y-77529438D02*
X71878934Y-77681819D01*
X71878934Y-77681819D02*
X71840839Y-77758009D01*
X71840839Y-77758009D02*
X71764649Y-77834200D01*
X71764649Y-77834200D02*
X71650363Y-77872295D01*
X71650363Y-77872295D02*
X71459887Y-77872295D01*
X72183696Y-77072295D02*
X72717030Y-77072295D01*
X72717030Y-77072295D02*
X72374172Y-77872295D01*
X71917030Y-70212295D02*
X71650363Y-69831342D01*
X71459887Y-70212295D02*
X71459887Y-69412295D01*
X71459887Y-69412295D02*
X71764649Y-69412295D01*
X71764649Y-69412295D02*
X71840839Y-69450390D01*
X71840839Y-69450390D02*
X71878934Y-69488485D01*
X71878934Y-69488485D02*
X71917030Y-69564676D01*
X71917030Y-69564676D02*
X71917030Y-69678961D01*
X71917030Y-69678961D02*
X71878934Y-69755152D01*
X71878934Y-69755152D02*
X71840839Y-69793247D01*
X71840839Y-69793247D02*
X71764649Y-69831342D01*
X71764649Y-69831342D02*
X71459887Y-69831342D01*
X72412268Y-69412295D02*
X72488458Y-69412295D01*
X72488458Y-69412295D02*
X72564649Y-69450390D01*
X72564649Y-69450390D02*
X72602744Y-69488485D01*
X72602744Y-69488485D02*
X72640839Y-69564676D01*
X72640839Y-69564676D02*
X72678934Y-69717057D01*
X72678934Y-69717057D02*
X72678934Y-69907533D01*
X72678934Y-69907533D02*
X72640839Y-70059914D01*
X72640839Y-70059914D02*
X72602744Y-70136104D01*
X72602744Y-70136104D02*
X72564649Y-70174200D01*
X72564649Y-70174200D02*
X72488458Y-70212295D01*
X72488458Y-70212295D02*
X72412268Y-70212295D01*
X72412268Y-70212295D02*
X72336077Y-70174200D01*
X72336077Y-70174200D02*
X72297982Y-70136104D01*
X72297982Y-70136104D02*
X72259887Y-70059914D01*
X72259887Y-70059914D02*
X72221791Y-69907533D01*
X72221791Y-69907533D02*
X72221791Y-69717057D01*
X72221791Y-69717057D02*
X72259887Y-69564676D01*
X72259887Y-69564676D02*
X72297982Y-69488485D01*
X72297982Y-69488485D02*
X72336077Y-69450390D01*
X72336077Y-69450390D02*
X72412268Y-69412295D01*
X71459887Y-95652295D02*
X71459887Y-94852295D01*
X71459887Y-94852295D02*
X71650363Y-94852295D01*
X71650363Y-94852295D02*
X71764649Y-94890390D01*
X71764649Y-94890390D02*
X71840839Y-94966580D01*
X71840839Y-94966580D02*
X71878934Y-95042771D01*
X71878934Y-95042771D02*
X71917030Y-95195152D01*
X71917030Y-95195152D02*
X71917030Y-95309438D01*
X71917030Y-95309438D02*
X71878934Y-95461819D01*
X71878934Y-95461819D02*
X71840839Y-95538009D01*
X71840839Y-95538009D02*
X71764649Y-95614200D01*
X71764649Y-95614200D02*
X71650363Y-95652295D01*
X71650363Y-95652295D02*
X71459887Y-95652295D01*
X72412268Y-94852295D02*
X72488458Y-94852295D01*
X72488458Y-94852295D02*
X72564649Y-94890390D01*
X72564649Y-94890390D02*
X72602744Y-94928485D01*
X72602744Y-94928485D02*
X72640839Y-95004676D01*
X72640839Y-95004676D02*
X72678934Y-95157057D01*
X72678934Y-95157057D02*
X72678934Y-95347533D01*
X72678934Y-95347533D02*
X72640839Y-95499914D01*
X72640839Y-95499914D02*
X72602744Y-95576104D01*
X72602744Y-95576104D02*
X72564649Y-95614200D01*
X72564649Y-95614200D02*
X72488458Y-95652295D01*
X72488458Y-95652295D02*
X72412268Y-95652295D01*
X72412268Y-95652295D02*
X72336077Y-95614200D01*
X72336077Y-95614200D02*
X72297982Y-95576104D01*
X72297982Y-95576104D02*
X72259887Y-95499914D01*
X72259887Y-95499914D02*
X72221791Y-95347533D01*
X72221791Y-95347533D02*
X72221791Y-95157057D01*
X72221791Y-95157057D02*
X72259887Y-95004676D01*
X72259887Y-95004676D02*
X72297982Y-94928485D01*
X72297982Y-94928485D02*
X72336077Y-94890390D01*
X72336077Y-94890390D02*
X72412268Y-94852295D01*
X79721064Y-77643723D02*
X80102017Y-77643723D01*
X79644874Y-77872295D02*
X79911541Y-77072295D01*
X79911541Y-77072295D02*
X80178207Y-77872295D01*
X80368683Y-77072295D02*
X80902017Y-77072295D01*
X80902017Y-77072295D02*
X80559159Y-77872295D01*
X71459887Y-87992295D02*
X71459887Y-87192295D01*
X71459887Y-87192295D02*
X71650363Y-87192295D01*
X71650363Y-87192295D02*
X71764649Y-87230390D01*
X71764649Y-87230390D02*
X71840839Y-87306580D01*
X71840839Y-87306580D02*
X71878934Y-87382771D01*
X71878934Y-87382771D02*
X71917030Y-87535152D01*
X71917030Y-87535152D02*
X71917030Y-87649438D01*
X71917030Y-87649438D02*
X71878934Y-87801819D01*
X71878934Y-87801819D02*
X71840839Y-87878009D01*
X71840839Y-87878009D02*
X71764649Y-87954200D01*
X71764649Y-87954200D02*
X71650363Y-87992295D01*
X71650363Y-87992295D02*
X71459887Y-87992295D01*
X72183696Y-87192295D02*
X72678934Y-87192295D01*
X72678934Y-87192295D02*
X72412268Y-87497057D01*
X72412268Y-87497057D02*
X72526553Y-87497057D01*
X72526553Y-87497057D02*
X72602744Y-87535152D01*
X72602744Y-87535152D02*
X72640839Y-87573247D01*
X72640839Y-87573247D02*
X72678934Y-87649438D01*
X72678934Y-87649438D02*
X72678934Y-87839914D01*
X72678934Y-87839914D02*
X72640839Y-87916104D01*
X72640839Y-87916104D02*
X72602744Y-87954200D01*
X72602744Y-87954200D02*
X72526553Y-87992295D01*
X72526553Y-87992295D02*
X72297982Y-87992295D01*
X72297982Y-87992295D02*
X72221791Y-87954200D01*
X72221791Y-87954200D02*
X72183696Y-87916104D01*
X71459887Y-82912295D02*
X71459887Y-82112295D01*
X71459887Y-82112295D02*
X71650363Y-82112295D01*
X71650363Y-82112295D02*
X71764649Y-82150390D01*
X71764649Y-82150390D02*
X71840839Y-82226580D01*
X71840839Y-82226580D02*
X71878934Y-82302771D01*
X71878934Y-82302771D02*
X71917030Y-82455152D01*
X71917030Y-82455152D02*
X71917030Y-82569438D01*
X71917030Y-82569438D02*
X71878934Y-82721819D01*
X71878934Y-82721819D02*
X71840839Y-82798009D01*
X71840839Y-82798009D02*
X71764649Y-82874200D01*
X71764649Y-82874200D02*
X71650363Y-82912295D01*
X71650363Y-82912295D02*
X71459887Y-82912295D01*
X72640839Y-82112295D02*
X72259887Y-82112295D01*
X72259887Y-82112295D02*
X72221791Y-82493247D01*
X72221791Y-82493247D02*
X72259887Y-82455152D01*
X72259887Y-82455152D02*
X72336077Y-82417057D01*
X72336077Y-82417057D02*
X72526553Y-82417057D01*
X72526553Y-82417057D02*
X72602744Y-82455152D01*
X72602744Y-82455152D02*
X72640839Y-82493247D01*
X72640839Y-82493247D02*
X72678934Y-82569438D01*
X72678934Y-82569438D02*
X72678934Y-82759914D01*
X72678934Y-82759914D02*
X72640839Y-82836104D01*
X72640839Y-82836104D02*
X72602744Y-82874200D01*
X72602744Y-82874200D02*
X72526553Y-82912295D01*
X72526553Y-82912295D02*
X72336077Y-82912295D01*
X72336077Y-82912295D02*
X72259887Y-82874200D01*
X72259887Y-82874200D02*
X72221791Y-82836104D01*
X80216303Y-113432295D02*
X79949636Y-113051342D01*
X79759160Y-113432295D02*
X79759160Y-112632295D01*
X79759160Y-112632295D02*
X80063922Y-112632295D01*
X80063922Y-112632295D02*
X80140112Y-112670390D01*
X80140112Y-112670390D02*
X80178207Y-112708485D01*
X80178207Y-112708485D02*
X80216303Y-112784676D01*
X80216303Y-112784676D02*
X80216303Y-112898961D01*
X80216303Y-112898961D02*
X80178207Y-112975152D01*
X80178207Y-112975152D02*
X80140112Y-113013247D01*
X80140112Y-113013247D02*
X80063922Y-113051342D01*
X80063922Y-113051342D02*
X79759160Y-113051342D01*
X80521064Y-113203723D02*
X80902017Y-113203723D01*
X80444874Y-113432295D02*
X80711541Y-112632295D01*
X80711541Y-112632295D02*
X80978207Y-113432295D01*
X81244874Y-113432295D02*
X81244874Y-112632295D01*
X81244874Y-112632295D02*
X81511540Y-113203723D01*
X81511540Y-113203723D02*
X81778207Y-112632295D01*
X81778207Y-112632295D02*
X81778207Y-113432295D01*
X82616303Y-113432295D02*
X82349636Y-113051342D01*
X82159160Y-113432295D02*
X82159160Y-112632295D01*
X82159160Y-112632295D02*
X82463922Y-112632295D01*
X82463922Y-112632295D02*
X82540112Y-112670390D01*
X82540112Y-112670390D02*
X82578207Y-112708485D01*
X82578207Y-112708485D02*
X82616303Y-112784676D01*
X82616303Y-112784676D02*
X82616303Y-112898961D01*
X82616303Y-112898961D02*
X82578207Y-112975152D01*
X82578207Y-112975152D02*
X82540112Y-113013247D01*
X82540112Y-113013247D02*
X82463922Y-113051342D01*
X82463922Y-113051342D02*
X82159160Y-113051342D01*
X82882969Y-112632295D02*
X83073445Y-113432295D01*
X83073445Y-113432295D02*
X83225826Y-112860866D01*
X83225826Y-112860866D02*
X83378207Y-113432295D01*
X83378207Y-113432295D02*
X83568684Y-112632295D01*
X79721064Y-90303723D02*
X80102017Y-90303723D01*
X79644874Y-90532295D02*
X79911541Y-89732295D01*
X79911541Y-89732295D02*
X80178207Y-90532295D01*
X80863921Y-90532295D02*
X80406778Y-90532295D01*
X80635350Y-90532295D02*
X80635350Y-89732295D01*
X80635350Y-89732295D02*
X80559159Y-89846580D01*
X80559159Y-89846580D02*
X80482969Y-89922771D01*
X80482969Y-89922771D02*
X80406778Y-89960866D01*
X81168683Y-89808485D02*
X81206779Y-89770390D01*
X81206779Y-89770390D02*
X81282969Y-89732295D01*
X81282969Y-89732295D02*
X81473445Y-89732295D01*
X81473445Y-89732295D02*
X81549636Y-89770390D01*
X81549636Y-89770390D02*
X81587731Y-89808485D01*
X81587731Y-89808485D02*
X81625826Y-89884676D01*
X81625826Y-89884676D02*
X81625826Y-89960866D01*
X81625826Y-89960866D02*
X81587731Y-90075152D01*
X81587731Y-90075152D02*
X81130588Y-90532295D01*
X81130588Y-90532295D02*
X81625826Y-90532295D01*
X71193220Y-75332295D02*
X70926553Y-74951342D01*
X70736077Y-75332295D02*
X70736077Y-74532295D01*
X70736077Y-74532295D02*
X71040839Y-74532295D01*
X71040839Y-74532295D02*
X71117029Y-74570390D01*
X71117029Y-74570390D02*
X71155124Y-74608485D01*
X71155124Y-74608485D02*
X71193220Y-74684676D01*
X71193220Y-74684676D02*
X71193220Y-74798961D01*
X71193220Y-74798961D02*
X71155124Y-74875152D01*
X71155124Y-74875152D02*
X71117029Y-74913247D01*
X71117029Y-74913247D02*
X71040839Y-74951342D01*
X71040839Y-74951342D02*
X70736077Y-74951342D01*
X71536077Y-74913247D02*
X71802743Y-74913247D01*
X71917029Y-75332295D02*
X71536077Y-75332295D01*
X71536077Y-75332295D02*
X71536077Y-74532295D01*
X71536077Y-74532295D02*
X71917029Y-74532295D01*
X72221791Y-75294200D02*
X72336077Y-75332295D01*
X72336077Y-75332295D02*
X72526553Y-75332295D01*
X72526553Y-75332295D02*
X72602744Y-75294200D01*
X72602744Y-75294200D02*
X72640839Y-75256104D01*
X72640839Y-75256104D02*
X72678934Y-75179914D01*
X72678934Y-75179914D02*
X72678934Y-75103723D01*
X72678934Y-75103723D02*
X72640839Y-75027533D01*
X72640839Y-75027533D02*
X72602744Y-74989438D01*
X72602744Y-74989438D02*
X72526553Y-74951342D01*
X72526553Y-74951342D02*
X72374172Y-74913247D01*
X72374172Y-74913247D02*
X72297982Y-74875152D01*
X72297982Y-74875152D02*
X72259887Y-74837057D01*
X72259887Y-74837057D02*
X72221791Y-74760866D01*
X72221791Y-74760866D02*
X72221791Y-74684676D01*
X72221791Y-74684676D02*
X72259887Y-74608485D01*
X72259887Y-74608485D02*
X72297982Y-74570390D01*
X72297982Y-74570390D02*
X72374172Y-74532295D01*
X72374172Y-74532295D02*
X72564649Y-74532295D01*
X72564649Y-74532295D02*
X72678934Y-74570390D01*
X70625601Y-74310200D02*
X72751316Y-74310200D01*
X71459887Y-93112295D02*
X71459887Y-92312295D01*
X71459887Y-92312295D02*
X71650363Y-92312295D01*
X71650363Y-92312295D02*
X71764649Y-92350390D01*
X71764649Y-92350390D02*
X71840839Y-92426580D01*
X71840839Y-92426580D02*
X71878934Y-92502771D01*
X71878934Y-92502771D02*
X71917030Y-92655152D01*
X71917030Y-92655152D02*
X71917030Y-92769438D01*
X71917030Y-92769438D02*
X71878934Y-92921819D01*
X71878934Y-92921819D02*
X71840839Y-92998009D01*
X71840839Y-92998009D02*
X71764649Y-93074200D01*
X71764649Y-93074200D02*
X71650363Y-93112295D01*
X71650363Y-93112295D02*
X71459887Y-93112295D01*
X72678934Y-93112295D02*
X72221791Y-93112295D01*
X72450363Y-93112295D02*
X72450363Y-92312295D01*
X72450363Y-92312295D02*
X72374172Y-92426580D01*
X72374172Y-92426580D02*
X72297982Y-92502771D01*
X72297982Y-92502771D02*
X72221791Y-92540866D01*
X70545602Y-103232295D02*
X70545602Y-102432295D01*
X70545602Y-102432295D02*
X71002745Y-103232295D01*
X71002745Y-103232295D02*
X71002745Y-102432295D01*
X71955125Y-102394200D02*
X71269411Y-103422771D01*
X72678935Y-103156104D02*
X72640839Y-103194200D01*
X72640839Y-103194200D02*
X72526554Y-103232295D01*
X72526554Y-103232295D02*
X72450363Y-103232295D01*
X72450363Y-103232295D02*
X72336077Y-103194200D01*
X72336077Y-103194200D02*
X72259887Y-103118009D01*
X72259887Y-103118009D02*
X72221792Y-103041819D01*
X72221792Y-103041819D02*
X72183696Y-102889438D01*
X72183696Y-102889438D02*
X72183696Y-102775152D01*
X72183696Y-102775152D02*
X72221792Y-102622771D01*
X72221792Y-102622771D02*
X72259887Y-102546580D01*
X72259887Y-102546580D02*
X72336077Y-102470390D01*
X72336077Y-102470390D02*
X72450363Y-102432295D01*
X72450363Y-102432295D02*
X72526554Y-102432295D01*
X72526554Y-102432295D02*
X72640839Y-102470390D01*
X72640839Y-102470390D02*
X72678935Y-102508485D01*
X70850362Y-100654200D02*
X70964648Y-100692295D01*
X70964648Y-100692295D02*
X71155124Y-100692295D01*
X71155124Y-100692295D02*
X71231315Y-100654200D01*
X71231315Y-100654200D02*
X71269410Y-100616104D01*
X71269410Y-100616104D02*
X71307505Y-100539914D01*
X71307505Y-100539914D02*
X71307505Y-100463723D01*
X71307505Y-100463723D02*
X71269410Y-100387533D01*
X71269410Y-100387533D02*
X71231315Y-100349438D01*
X71231315Y-100349438D02*
X71155124Y-100311342D01*
X71155124Y-100311342D02*
X71002743Y-100273247D01*
X71002743Y-100273247D02*
X70926553Y-100235152D01*
X70926553Y-100235152D02*
X70888458Y-100197057D01*
X70888458Y-100197057D02*
X70850362Y-100120866D01*
X70850362Y-100120866D02*
X70850362Y-100044676D01*
X70850362Y-100044676D02*
X70888458Y-99968485D01*
X70888458Y-99968485D02*
X70926553Y-99930390D01*
X70926553Y-99930390D02*
X71002743Y-99892295D01*
X71002743Y-99892295D02*
X71193220Y-99892295D01*
X71193220Y-99892295D02*
X71307505Y-99930390D01*
X71612267Y-100654200D02*
X71726553Y-100692295D01*
X71726553Y-100692295D02*
X71917029Y-100692295D01*
X71917029Y-100692295D02*
X71993220Y-100654200D01*
X71993220Y-100654200D02*
X72031315Y-100616104D01*
X72031315Y-100616104D02*
X72069410Y-100539914D01*
X72069410Y-100539914D02*
X72069410Y-100463723D01*
X72069410Y-100463723D02*
X72031315Y-100387533D01*
X72031315Y-100387533D02*
X71993220Y-100349438D01*
X71993220Y-100349438D02*
X71917029Y-100311342D01*
X71917029Y-100311342D02*
X71764648Y-100273247D01*
X71764648Y-100273247D02*
X71688458Y-100235152D01*
X71688458Y-100235152D02*
X71650363Y-100197057D01*
X71650363Y-100197057D02*
X71612267Y-100120866D01*
X71612267Y-100120866D02*
X71612267Y-100044676D01*
X71612267Y-100044676D02*
X71650363Y-99968485D01*
X71650363Y-99968485D02*
X71688458Y-99930390D01*
X71688458Y-99930390D02*
X71764648Y-99892295D01*
X71764648Y-99892295D02*
X71955125Y-99892295D01*
X71955125Y-99892295D02*
X72069410Y-99930390D01*
X72297982Y-99892295D02*
X72755125Y-99892295D01*
X72526553Y-100692295D02*
X72526553Y-99892295D01*
D11*
X231678095Y-139106266D02*
X232440000Y-139106266D01*
X232059047Y-139487219D02*
X232059047Y-138725314D01*
X233439999Y-139487219D02*
X232868571Y-139487219D01*
X233154285Y-139487219D02*
X233154285Y-138487219D01*
X233154285Y-138487219D02*
X233059047Y-138630076D01*
X233059047Y-138630076D02*
X232963809Y-138725314D01*
X232963809Y-138725314D02*
X232868571Y-138772933D01*
X233820952Y-138582457D02*
X233868571Y-138534838D01*
X233868571Y-138534838D02*
X233963809Y-138487219D01*
X233963809Y-138487219D02*
X234201904Y-138487219D01*
X234201904Y-138487219D02*
X234297142Y-138534838D01*
X234297142Y-138534838D02*
X234344761Y-138582457D01*
X234344761Y-138582457D02*
X234392380Y-138677695D01*
X234392380Y-138677695D02*
X234392380Y-138772933D01*
X234392380Y-138772933D02*
X234344761Y-138915790D01*
X234344761Y-138915790D02*
X233773333Y-139487219D01*
X233773333Y-139487219D02*
X234392380Y-139487219D01*
X234678095Y-138487219D02*
X235011428Y-139487219D01*
X235011428Y-139487219D02*
X235344761Y-138487219D01*
D10*
X79721064Y-59823723D02*
X80102017Y-59823723D01*
X79644874Y-60052295D02*
X79911541Y-59252295D01*
X79911541Y-59252295D02*
X80178207Y-60052295D01*
X80597255Y-59252295D02*
X80673445Y-59252295D01*
X80673445Y-59252295D02*
X80749636Y-59290390D01*
X80749636Y-59290390D02*
X80787731Y-59328485D01*
X80787731Y-59328485D02*
X80825826Y-59404676D01*
X80825826Y-59404676D02*
X80863921Y-59557057D01*
X80863921Y-59557057D02*
X80863921Y-59747533D01*
X80863921Y-59747533D02*
X80825826Y-59899914D01*
X80825826Y-59899914D02*
X80787731Y-59976104D01*
X80787731Y-59976104D02*
X80749636Y-60014200D01*
X80749636Y-60014200D02*
X80673445Y-60052295D01*
X80673445Y-60052295D02*
X80597255Y-60052295D01*
X80597255Y-60052295D02*
X80521064Y-60014200D01*
X80521064Y-60014200D02*
X80482969Y-59976104D01*
X80482969Y-59976104D02*
X80444874Y-59899914D01*
X80444874Y-59899914D02*
X80406778Y-59747533D01*
X80406778Y-59747533D02*
X80406778Y-59557057D01*
X80406778Y-59557057D02*
X80444874Y-59404676D01*
X80444874Y-59404676D02*
X80482969Y-59328485D01*
X80482969Y-59328485D02*
X80521064Y-59290390D01*
X80521064Y-59290390D02*
X80597255Y-59252295D01*
D11*
X216678095Y-139106266D02*
X217440000Y-139106266D01*
X217059047Y-139487219D02*
X217059047Y-138725314D01*
X218439999Y-139487219D02*
X217868571Y-139487219D01*
X218154285Y-139487219D02*
X218154285Y-138487219D01*
X218154285Y-138487219D02*
X218059047Y-138630076D01*
X218059047Y-138630076D02*
X217963809Y-138725314D01*
X217963809Y-138725314D02*
X217868571Y-138772933D01*
X219297142Y-138487219D02*
X219106666Y-138487219D01*
X219106666Y-138487219D02*
X219011428Y-138534838D01*
X219011428Y-138534838D02*
X218963809Y-138582457D01*
X218963809Y-138582457D02*
X218868571Y-138725314D01*
X218868571Y-138725314D02*
X218820952Y-138915790D01*
X218820952Y-138915790D02*
X218820952Y-139296742D01*
X218820952Y-139296742D02*
X218868571Y-139391980D01*
X218868571Y-139391980D02*
X218916190Y-139439600D01*
X218916190Y-139439600D02*
X219011428Y-139487219D01*
X219011428Y-139487219D02*
X219201904Y-139487219D01*
X219201904Y-139487219D02*
X219297142Y-139439600D01*
X219297142Y-139439600D02*
X219344761Y-139391980D01*
X219344761Y-139391980D02*
X219392380Y-139296742D01*
X219392380Y-139296742D02*
X219392380Y-139058647D01*
X219392380Y-139058647D02*
X219344761Y-138963409D01*
X219344761Y-138963409D02*
X219297142Y-138915790D01*
X219297142Y-138915790D02*
X219201904Y-138868171D01*
X219201904Y-138868171D02*
X219011428Y-138868171D01*
X219011428Y-138868171D02*
X218916190Y-138915790D01*
X218916190Y-138915790D02*
X218868571Y-138963409D01*
X218868571Y-138963409D02*
X218820952Y-139058647D01*
X219678095Y-138487219D02*
X220011428Y-139487219D01*
X220011428Y-139487219D02*
X220344761Y-138487219D01*
D10*
X71002745Y-67672295D02*
X71002745Y-66872295D01*
X71840840Y-67672295D02*
X71574173Y-67291342D01*
X71383697Y-67672295D02*
X71383697Y-66872295D01*
X71383697Y-66872295D02*
X71688459Y-66872295D01*
X71688459Y-66872295D02*
X71764649Y-66910390D01*
X71764649Y-66910390D02*
X71802744Y-66948485D01*
X71802744Y-66948485D02*
X71840840Y-67024676D01*
X71840840Y-67024676D02*
X71840840Y-67138961D01*
X71840840Y-67138961D02*
X71802744Y-67215152D01*
X71802744Y-67215152D02*
X71764649Y-67253247D01*
X71764649Y-67253247D02*
X71688459Y-67291342D01*
X71688459Y-67291342D02*
X71383697Y-67291342D01*
X72717030Y-67748485D02*
X72640840Y-67710390D01*
X72640840Y-67710390D02*
X72564649Y-67634200D01*
X72564649Y-67634200D02*
X72450363Y-67519914D01*
X72450363Y-67519914D02*
X72374173Y-67481819D01*
X72374173Y-67481819D02*
X72297982Y-67481819D01*
X72336078Y-67672295D02*
X72259887Y-67634200D01*
X72259887Y-67634200D02*
X72183697Y-67558009D01*
X72183697Y-67558009D02*
X72145601Y-67405628D01*
X72145601Y-67405628D02*
X72145601Y-67138961D01*
X72145601Y-67138961D02*
X72183697Y-66986580D01*
X72183697Y-66986580D02*
X72259887Y-66910390D01*
X72259887Y-66910390D02*
X72336078Y-66872295D01*
X72336078Y-66872295D02*
X72488459Y-66872295D01*
X72488459Y-66872295D02*
X72564649Y-66910390D01*
X72564649Y-66910390D02*
X72640840Y-66986580D01*
X72640840Y-66986580D02*
X72678935Y-67138961D01*
X72678935Y-67138961D02*
X72678935Y-67405628D01*
X72678935Y-67405628D02*
X72640840Y-67558009D01*
X72640840Y-67558009D02*
X72564649Y-67634200D01*
X72564649Y-67634200D02*
X72488459Y-67672295D01*
X72488459Y-67672295D02*
X72336078Y-67672295D01*
X70892269Y-66650200D02*
X72751316Y-66650200D01*
X79721064Y-62363723D02*
X80102017Y-62363723D01*
X79644874Y-62592295D02*
X79911541Y-61792295D01*
X79911541Y-61792295D02*
X80178207Y-62592295D01*
X80863921Y-62592295D02*
X80406778Y-62592295D01*
X80635350Y-62592295D02*
X80635350Y-61792295D01*
X80635350Y-61792295D02*
X80559159Y-61906580D01*
X80559159Y-61906580D02*
X80482969Y-61982771D01*
X80482969Y-61982771D02*
X80406778Y-62020866D01*
X71459887Y-98192295D02*
X71459887Y-97392295D01*
X71917030Y-98192295D02*
X71574172Y-97735152D01*
X71917030Y-97392295D02*
X71459887Y-97849438D01*
X72602744Y-97392295D02*
X72450363Y-97392295D01*
X72450363Y-97392295D02*
X72374172Y-97430390D01*
X72374172Y-97430390D02*
X72336077Y-97468485D01*
X72336077Y-97468485D02*
X72259887Y-97582771D01*
X72259887Y-97582771D02*
X72221791Y-97735152D01*
X72221791Y-97735152D02*
X72221791Y-98039914D01*
X72221791Y-98039914D02*
X72259887Y-98116104D01*
X72259887Y-98116104D02*
X72297982Y-98154200D01*
X72297982Y-98154200D02*
X72374172Y-98192295D01*
X72374172Y-98192295D02*
X72526553Y-98192295D01*
X72526553Y-98192295D02*
X72602744Y-98154200D01*
X72602744Y-98154200D02*
X72640839Y-98116104D01*
X72640839Y-98116104D02*
X72678934Y-98039914D01*
X72678934Y-98039914D02*
X72678934Y-97849438D01*
X72678934Y-97849438D02*
X72640839Y-97773247D01*
X72640839Y-97773247D02*
X72602744Y-97735152D01*
X72602744Y-97735152D02*
X72526553Y-97697057D01*
X72526553Y-97697057D02*
X72374172Y-97697057D01*
X72374172Y-97697057D02*
X72297982Y-97735152D01*
X72297982Y-97735152D02*
X72259887Y-97773247D01*
X72259887Y-97773247D02*
X72221791Y-97849438D01*
X79759160Y-108352295D02*
X79759160Y-107552295D01*
X79759160Y-107552295D02*
X80063922Y-107552295D01*
X80063922Y-107552295D02*
X80140112Y-107590390D01*
X80140112Y-107590390D02*
X80178207Y-107628485D01*
X80178207Y-107628485D02*
X80216303Y-107704676D01*
X80216303Y-107704676D02*
X80216303Y-107818961D01*
X80216303Y-107818961D02*
X80178207Y-107895152D01*
X80178207Y-107895152D02*
X80140112Y-107933247D01*
X80140112Y-107933247D02*
X80063922Y-107971342D01*
X80063922Y-107971342D02*
X79759160Y-107971342D01*
X80940112Y-108352295D02*
X80559160Y-108352295D01*
X80559160Y-108352295D02*
X80559160Y-107552295D01*
X81587731Y-108352295D02*
X81206779Y-108352295D01*
X81206779Y-108352295D02*
X81206779Y-107552295D01*
X79721064Y-67443723D02*
X80102017Y-67443723D01*
X79644874Y-67672295D02*
X79911541Y-66872295D01*
X79911541Y-66872295D02*
X80178207Y-67672295D01*
X80368683Y-66872295D02*
X80863921Y-66872295D01*
X80863921Y-66872295D02*
X80597255Y-67177057D01*
X80597255Y-67177057D02*
X80711540Y-67177057D01*
X80711540Y-67177057D02*
X80787731Y-67215152D01*
X80787731Y-67215152D02*
X80825826Y-67253247D01*
X80825826Y-67253247D02*
X80863921Y-67329438D01*
X80863921Y-67329438D02*
X80863921Y-67519914D01*
X80863921Y-67519914D02*
X80825826Y-67596104D01*
X80825826Y-67596104D02*
X80787731Y-67634200D01*
X80787731Y-67634200D02*
X80711540Y-67672295D01*
X80711540Y-67672295D02*
X80482969Y-67672295D01*
X80482969Y-67672295D02*
X80406778Y-67634200D01*
X80406778Y-67634200D02*
X80368683Y-67596104D01*
X71193221Y-62592295D02*
X70926554Y-62211342D01*
X70736078Y-62592295D02*
X70736078Y-61792295D01*
X70736078Y-61792295D02*
X71040840Y-61792295D01*
X71040840Y-61792295D02*
X71117030Y-61830390D01*
X71117030Y-61830390D02*
X71155125Y-61868485D01*
X71155125Y-61868485D02*
X71193221Y-61944676D01*
X71193221Y-61944676D02*
X71193221Y-62058961D01*
X71193221Y-62058961D02*
X71155125Y-62135152D01*
X71155125Y-62135152D02*
X71117030Y-62173247D01*
X71117030Y-62173247D02*
X71040840Y-62211342D01*
X71040840Y-62211342D02*
X70736078Y-62211342D01*
X71536078Y-62592295D02*
X71536078Y-61792295D01*
X71536078Y-61792295D02*
X71726554Y-61792295D01*
X71726554Y-61792295D02*
X71840840Y-61830390D01*
X71840840Y-61830390D02*
X71917030Y-61906580D01*
X71917030Y-61906580D02*
X71955125Y-61982771D01*
X71955125Y-61982771D02*
X71993221Y-62135152D01*
X71993221Y-62135152D02*
X71993221Y-62249438D01*
X71993221Y-62249438D02*
X71955125Y-62401819D01*
X71955125Y-62401819D02*
X71917030Y-62478009D01*
X71917030Y-62478009D02*
X71840840Y-62554200D01*
X71840840Y-62554200D02*
X71726554Y-62592295D01*
X71726554Y-62592295D02*
X71536078Y-62592295D01*
X72488459Y-62211342D02*
X72488459Y-62592295D01*
X72221792Y-61792295D02*
X72488459Y-62211342D01*
X72488459Y-62211342D02*
X72755125Y-61792295D01*
X70625602Y-61570200D02*
X72751316Y-61570200D01*
D11*
X227154286Y-139106266D02*
X227916191Y-139106266D01*
X227535238Y-139487219D02*
X227535238Y-138725314D01*
X228868571Y-138487219D02*
X228392381Y-138487219D01*
X228392381Y-138487219D02*
X228344762Y-138963409D01*
X228344762Y-138963409D02*
X228392381Y-138915790D01*
X228392381Y-138915790D02*
X228487619Y-138868171D01*
X228487619Y-138868171D02*
X228725714Y-138868171D01*
X228725714Y-138868171D02*
X228820952Y-138915790D01*
X228820952Y-138915790D02*
X228868571Y-138963409D01*
X228868571Y-138963409D02*
X228916190Y-139058647D01*
X228916190Y-139058647D02*
X228916190Y-139296742D01*
X228916190Y-139296742D02*
X228868571Y-139391980D01*
X228868571Y-139391980D02*
X228820952Y-139439600D01*
X228820952Y-139439600D02*
X228725714Y-139487219D01*
X228725714Y-139487219D02*
X228487619Y-139487219D01*
X228487619Y-139487219D02*
X228392381Y-139439600D01*
X228392381Y-139439600D02*
X228344762Y-139391980D01*
X229201905Y-138487219D02*
X229535238Y-139487219D01*
X229535238Y-139487219D02*
X229868571Y-138487219D01*
D10*
X70545602Y-105772295D02*
X70545602Y-104972295D01*
X70545602Y-104972295D02*
X71002745Y-105772295D01*
X71002745Y-105772295D02*
X71002745Y-104972295D01*
X71955125Y-104934200D02*
X71269411Y-105962771D01*
X72678935Y-105696104D02*
X72640839Y-105734200D01*
X72640839Y-105734200D02*
X72526554Y-105772295D01*
X72526554Y-105772295D02*
X72450363Y-105772295D01*
X72450363Y-105772295D02*
X72336077Y-105734200D01*
X72336077Y-105734200D02*
X72259887Y-105658009D01*
X72259887Y-105658009D02*
X72221792Y-105581819D01*
X72221792Y-105581819D02*
X72183696Y-105429438D01*
X72183696Y-105429438D02*
X72183696Y-105315152D01*
X72183696Y-105315152D02*
X72221792Y-105162771D01*
X72221792Y-105162771D02*
X72259887Y-105086580D01*
X72259887Y-105086580D02*
X72336077Y-105010390D01*
X72336077Y-105010390D02*
X72450363Y-104972295D01*
X72450363Y-104972295D02*
X72526554Y-104972295D01*
X72526554Y-104972295D02*
X72640839Y-105010390D01*
X72640839Y-105010390D02*
X72678935Y-105048485D01*
D11*
X222678095Y-138534838D02*
X222582857Y-138487219D01*
X222582857Y-138487219D02*
X222440000Y-138487219D01*
X222440000Y-138487219D02*
X222297143Y-138534838D01*
X222297143Y-138534838D02*
X222201905Y-138630076D01*
X222201905Y-138630076D02*
X222154286Y-138725314D01*
X222154286Y-138725314D02*
X222106667Y-138915790D01*
X222106667Y-138915790D02*
X222106667Y-139058647D01*
X222106667Y-139058647D02*
X222154286Y-139249123D01*
X222154286Y-139249123D02*
X222201905Y-139344361D01*
X222201905Y-139344361D02*
X222297143Y-139439600D01*
X222297143Y-139439600D02*
X222440000Y-139487219D01*
X222440000Y-139487219D02*
X222535238Y-139487219D01*
X222535238Y-139487219D02*
X222678095Y-139439600D01*
X222678095Y-139439600D02*
X222725714Y-139391980D01*
X222725714Y-139391980D02*
X222725714Y-139058647D01*
X222725714Y-139058647D02*
X222535238Y-139058647D01*
X223154286Y-139487219D02*
X223154286Y-138487219D01*
X223154286Y-138487219D02*
X223725714Y-139487219D01*
X223725714Y-139487219D02*
X223725714Y-138487219D01*
X224201905Y-139487219D02*
X224201905Y-138487219D01*
X224201905Y-138487219D02*
X224440000Y-138487219D01*
X224440000Y-138487219D02*
X224582857Y-138534838D01*
X224582857Y-138534838D02*
X224678095Y-138630076D01*
X224678095Y-138630076D02*
X224725714Y-138725314D01*
X224725714Y-138725314D02*
X224773333Y-138915790D01*
X224773333Y-138915790D02*
X224773333Y-139058647D01*
X224773333Y-139058647D02*
X224725714Y-139249123D01*
X224725714Y-139249123D02*
X224678095Y-139344361D01*
X224678095Y-139344361D02*
X224582857Y-139439600D01*
X224582857Y-139439600D02*
X224440000Y-139487219D01*
X224440000Y-139487219D02*
X224201905Y-139487219D01*
D10*
X79721064Y-69983723D02*
X80102017Y-69983723D01*
X79644874Y-70212295D02*
X79911541Y-69412295D01*
X79911541Y-69412295D02*
X80178207Y-70212295D01*
X80787731Y-69678961D02*
X80787731Y-70212295D01*
X80597255Y-69374200D02*
X80406778Y-69945628D01*
X80406778Y-69945628D02*
X80902017Y-69945628D01*
X71459887Y-90532295D02*
X71459887Y-89732295D01*
X71459887Y-89732295D02*
X71650363Y-89732295D01*
X71650363Y-89732295D02*
X71764649Y-89770390D01*
X71764649Y-89770390D02*
X71840839Y-89846580D01*
X71840839Y-89846580D02*
X71878934Y-89922771D01*
X71878934Y-89922771D02*
X71917030Y-90075152D01*
X71917030Y-90075152D02*
X71917030Y-90189438D01*
X71917030Y-90189438D02*
X71878934Y-90341819D01*
X71878934Y-90341819D02*
X71840839Y-90418009D01*
X71840839Y-90418009D02*
X71764649Y-90494200D01*
X71764649Y-90494200D02*
X71650363Y-90532295D01*
X71650363Y-90532295D02*
X71459887Y-90532295D01*
X72221791Y-89808485D02*
X72259887Y-89770390D01*
X72259887Y-89770390D02*
X72336077Y-89732295D01*
X72336077Y-89732295D02*
X72526553Y-89732295D01*
X72526553Y-89732295D02*
X72602744Y-89770390D01*
X72602744Y-89770390D02*
X72640839Y-89808485D01*
X72640839Y-89808485D02*
X72678934Y-89884676D01*
X72678934Y-89884676D02*
X72678934Y-89960866D01*
X72678934Y-89960866D02*
X72640839Y-90075152D01*
X72640839Y-90075152D02*
X72183696Y-90532295D01*
X72183696Y-90532295D02*
X72678934Y-90532295D01*
X79721064Y-97963723D02*
X80102017Y-97963723D01*
X79644874Y-98192295D02*
X79911541Y-97392295D01*
X79911541Y-97392295D02*
X80178207Y-98192295D01*
X80863921Y-98192295D02*
X80406778Y-98192295D01*
X80635350Y-98192295D02*
X80635350Y-97392295D01*
X80635350Y-97392295D02*
X80559159Y-97506580D01*
X80559159Y-97506580D02*
X80482969Y-97582771D01*
X80482969Y-97582771D02*
X80406778Y-97620866D01*
X81587731Y-97392295D02*
X81206779Y-97392295D01*
X81206779Y-97392295D02*
X81168683Y-97773247D01*
X81168683Y-97773247D02*
X81206779Y-97735152D01*
X81206779Y-97735152D02*
X81282969Y-97697057D01*
X81282969Y-97697057D02*
X81473445Y-97697057D01*
X81473445Y-97697057D02*
X81549636Y-97735152D01*
X81549636Y-97735152D02*
X81587731Y-97773247D01*
X81587731Y-97773247D02*
X81625826Y-97849438D01*
X81625826Y-97849438D02*
X81625826Y-98039914D01*
X81625826Y-98039914D02*
X81587731Y-98116104D01*
X81587731Y-98116104D02*
X81549636Y-98154200D01*
X81549636Y-98154200D02*
X81473445Y-98192295D01*
X81473445Y-98192295D02*
X81282969Y-98192295D01*
X81282969Y-98192295D02*
X81206779Y-98154200D01*
X81206779Y-98154200D02*
X81168683Y-98116104D01*
X79721064Y-72563723D02*
X80102017Y-72563723D01*
X79644874Y-72792295D02*
X79911541Y-71992295D01*
X79911541Y-71992295D02*
X80178207Y-72792295D01*
X80825826Y-71992295D02*
X80444874Y-71992295D01*
X80444874Y-71992295D02*
X80406778Y-72373247D01*
X80406778Y-72373247D02*
X80444874Y-72335152D01*
X80444874Y-72335152D02*
X80521064Y-72297057D01*
X80521064Y-72297057D02*
X80711540Y-72297057D01*
X80711540Y-72297057D02*
X80787731Y-72335152D01*
X80787731Y-72335152D02*
X80825826Y-72373247D01*
X80825826Y-72373247D02*
X80863921Y-72449438D01*
X80863921Y-72449438D02*
X80863921Y-72639914D01*
X80863921Y-72639914D02*
X80825826Y-72716104D01*
X80825826Y-72716104D02*
X80787731Y-72754200D01*
X80787731Y-72754200D02*
X80711540Y-72792295D01*
X80711540Y-72792295D02*
X80521064Y-72792295D01*
X80521064Y-72792295D02*
X80444874Y-72754200D01*
X80444874Y-72754200D02*
X80406778Y-72716104D01*
X80216303Y-105772295D02*
X79949636Y-105391342D01*
X79759160Y-105772295D02*
X79759160Y-104972295D01*
X79759160Y-104972295D02*
X80063922Y-104972295D01*
X80063922Y-104972295D02*
X80140112Y-105010390D01*
X80140112Y-105010390D02*
X80178207Y-105048485D01*
X80178207Y-105048485D02*
X80216303Y-105124676D01*
X80216303Y-105124676D02*
X80216303Y-105238961D01*
X80216303Y-105238961D02*
X80178207Y-105315152D01*
X80178207Y-105315152D02*
X80140112Y-105353247D01*
X80140112Y-105353247D02*
X80063922Y-105391342D01*
X80063922Y-105391342D02*
X79759160Y-105391342D01*
X79648684Y-104750200D02*
X80288684Y-104750200D01*
X81130588Y-104934200D02*
X80444874Y-105962771D01*
X81321064Y-104972295D02*
X81511540Y-105772295D01*
X81511540Y-105772295D02*
X81663921Y-105200866D01*
X81663921Y-105200866D02*
X81816302Y-105772295D01*
X81816302Y-105772295D02*
X82006779Y-104972295D01*
X71955125Y-64332295D02*
X71345601Y-65132295D01*
X71574173Y-65132295D02*
X71497982Y-65094200D01*
X71497982Y-65094200D02*
X71421792Y-65018009D01*
X71421792Y-65018009D02*
X71383696Y-64865628D01*
X71383696Y-64865628D02*
X71383696Y-64598961D01*
X71383696Y-64598961D02*
X71421792Y-64446580D01*
X71421792Y-64446580D02*
X71497982Y-64370390D01*
X71497982Y-64370390D02*
X71574173Y-64332295D01*
X71574173Y-64332295D02*
X71726554Y-64332295D01*
X71726554Y-64332295D02*
X71802744Y-64370390D01*
X71802744Y-64370390D02*
X71878935Y-64446580D01*
X71878935Y-64446580D02*
X71917030Y-64598961D01*
X71917030Y-64598961D02*
X71917030Y-64865628D01*
X71917030Y-64865628D02*
X71878935Y-65018009D01*
X71878935Y-65018009D02*
X71802744Y-65094200D01*
X71802744Y-65094200D02*
X71726554Y-65132295D01*
X71726554Y-65132295D02*
X71574173Y-65132295D01*
X72678934Y-65132295D02*
X72221791Y-65132295D01*
X72450363Y-65132295D02*
X72450363Y-64332295D01*
X72450363Y-64332295D02*
X72374172Y-64446580D01*
X72374172Y-64446580D02*
X72297982Y-64522771D01*
X72297982Y-64522771D02*
X72221791Y-64560866D01*
X79721064Y-85223723D02*
X80102017Y-85223723D01*
X79644874Y-85452295D02*
X79911541Y-84652295D01*
X79911541Y-84652295D02*
X80178207Y-85452295D01*
X80863921Y-85452295D02*
X80406778Y-85452295D01*
X80635350Y-85452295D02*
X80635350Y-84652295D01*
X80635350Y-84652295D02*
X80559159Y-84766580D01*
X80559159Y-84766580D02*
X80482969Y-84842771D01*
X80482969Y-84842771D02*
X80406778Y-84880866D01*
X81359160Y-84652295D02*
X81435350Y-84652295D01*
X81435350Y-84652295D02*
X81511541Y-84690390D01*
X81511541Y-84690390D02*
X81549636Y-84728485D01*
X81549636Y-84728485D02*
X81587731Y-84804676D01*
X81587731Y-84804676D02*
X81625826Y-84957057D01*
X81625826Y-84957057D02*
X81625826Y-85147533D01*
X81625826Y-85147533D02*
X81587731Y-85299914D01*
X81587731Y-85299914D02*
X81549636Y-85376104D01*
X81549636Y-85376104D02*
X81511541Y-85414200D01*
X81511541Y-85414200D02*
X81435350Y-85452295D01*
X81435350Y-85452295D02*
X81359160Y-85452295D01*
X81359160Y-85452295D02*
X81282969Y-85414200D01*
X81282969Y-85414200D02*
X81244874Y-85376104D01*
X81244874Y-85376104D02*
X81206779Y-85299914D01*
X81206779Y-85299914D02*
X81168683Y-85147533D01*
X81168683Y-85147533D02*
X81168683Y-84957057D01*
X81168683Y-84957057D02*
X81206779Y-84804676D01*
X81206779Y-84804676D02*
X81244874Y-84728485D01*
X81244874Y-84728485D02*
X81282969Y-84690390D01*
X81282969Y-84690390D02*
X81359160Y-84652295D01*
X79721064Y-87763723D02*
X80102017Y-87763723D01*
X79644874Y-87992295D02*
X79911541Y-87192295D01*
X79911541Y-87192295D02*
X80178207Y-87992295D01*
X80863921Y-87992295D02*
X80406778Y-87992295D01*
X80635350Y-87992295D02*
X80635350Y-87192295D01*
X80635350Y-87192295D02*
X80559159Y-87306580D01*
X80559159Y-87306580D02*
X80482969Y-87382771D01*
X80482969Y-87382771D02*
X80406778Y-87420866D01*
X81625826Y-87992295D02*
X81168683Y-87992295D01*
X81397255Y-87992295D02*
X81397255Y-87192295D01*
X81397255Y-87192295D02*
X81321064Y-87306580D01*
X81321064Y-87306580D02*
X81244874Y-87382771D01*
X81244874Y-87382771D02*
X81168683Y-87420866D01*
D11*
X211637780Y-121019673D02*
X212637780Y-121019673D01*
X212637780Y-121019673D02*
X212637780Y-121257768D01*
X212637780Y-121257768D02*
X212590161Y-121400625D01*
X212590161Y-121400625D02*
X212494923Y-121495863D01*
X212494923Y-121495863D02*
X212399685Y-121543482D01*
X212399685Y-121543482D02*
X212209209Y-121591101D01*
X212209209Y-121591101D02*
X212066352Y-121591101D01*
X212066352Y-121591101D02*
X211875876Y-121543482D01*
X211875876Y-121543482D02*
X211780638Y-121495863D01*
X211780638Y-121495863D02*
X211685400Y-121400625D01*
X211685400Y-121400625D02*
X211637780Y-121257768D01*
X211637780Y-121257768D02*
X211637780Y-121019673D01*
X212161590Y-122019673D02*
X212161590Y-122353006D01*
X211637780Y-122495863D02*
X211637780Y-122019673D01*
X211637780Y-122019673D02*
X212637780Y-122019673D01*
X212637780Y-122019673D02*
X212637780Y-122495863D01*
X211733019Y-123495863D02*
X211685400Y-123448244D01*
X211685400Y-123448244D02*
X211637780Y-123305387D01*
X211637780Y-123305387D02*
X211637780Y-123210149D01*
X211637780Y-123210149D02*
X211685400Y-123067292D01*
X211685400Y-123067292D02*
X211780638Y-122972054D01*
X211780638Y-122972054D02*
X211875876Y-122924435D01*
X211875876Y-122924435D02*
X212066352Y-122876816D01*
X212066352Y-122876816D02*
X212209209Y-122876816D01*
X212209209Y-122876816D02*
X212399685Y-122924435D01*
X212399685Y-122924435D02*
X212494923Y-122972054D01*
X212494923Y-122972054D02*
X212590161Y-123067292D01*
X212590161Y-123067292D02*
X212637780Y-123210149D01*
X212637780Y-123210149D02*
X212637780Y-123305387D01*
X212637780Y-123305387D02*
X212590161Y-123448244D01*
X212590161Y-123448244D02*
X212542542Y-123495863D01*
X212637780Y-124114911D02*
X212637780Y-124305387D01*
X212637780Y-124305387D02*
X212590161Y-124400625D01*
X212590161Y-124400625D02*
X212494923Y-124495863D01*
X212494923Y-124495863D02*
X212304447Y-124543482D01*
X212304447Y-124543482D02*
X211971114Y-124543482D01*
X211971114Y-124543482D02*
X211780638Y-124495863D01*
X211780638Y-124495863D02*
X211685400Y-124400625D01*
X211685400Y-124400625D02*
X211637780Y-124305387D01*
X211637780Y-124305387D02*
X211637780Y-124114911D01*
X211637780Y-124114911D02*
X211685400Y-124019673D01*
X211685400Y-124019673D02*
X211780638Y-123924435D01*
X211780638Y-123924435D02*
X211971114Y-123876816D01*
X211971114Y-123876816D02*
X212304447Y-123876816D01*
X212304447Y-123876816D02*
X212494923Y-123924435D01*
X212494923Y-123924435D02*
X212590161Y-124019673D01*
X212590161Y-124019673D02*
X212637780Y-124114911D01*
X211637780Y-124972054D02*
X212637780Y-124972054D01*
X212637780Y-124972054D02*
X212637780Y-125210149D01*
X212637780Y-125210149D02*
X212590161Y-125353006D01*
X212590161Y-125353006D02*
X212494923Y-125448244D01*
X212494923Y-125448244D02*
X212399685Y-125495863D01*
X212399685Y-125495863D02*
X212209209Y-125543482D01*
X212209209Y-125543482D02*
X212066352Y-125543482D01*
X212066352Y-125543482D02*
X211875876Y-125495863D01*
X211875876Y-125495863D02*
X211780638Y-125448244D01*
X211780638Y-125448244D02*
X211685400Y-125353006D01*
X211685400Y-125353006D02*
X211637780Y-125210149D01*
X211637780Y-125210149D02*
X211637780Y-124972054D01*
X212161590Y-125972054D02*
X212161590Y-126305387D01*
X211637780Y-126448244D02*
X211637780Y-125972054D01*
X211637780Y-125972054D02*
X212637780Y-125972054D01*
X212637780Y-125972054D02*
X212637780Y-126448244D01*
X211542542Y-126638721D02*
X211542542Y-127400625D01*
X212161590Y-127638721D02*
X212161590Y-127972054D01*
X211637780Y-128114911D02*
X211637780Y-127638721D01*
X211637780Y-127638721D02*
X212637780Y-127638721D01*
X212637780Y-127638721D02*
X212637780Y-128114911D01*
X211637780Y-128543483D02*
X212637780Y-128543483D01*
X212637780Y-128543483D02*
X211637780Y-129114911D01*
X211637780Y-129114911D02*
X212637780Y-129114911D01*
D10*
X79721064Y-95423723D02*
X80102017Y-95423723D01*
X79644874Y-95652295D02*
X79911541Y-94852295D01*
X79911541Y-94852295D02*
X80178207Y-95652295D01*
X80863921Y-95652295D02*
X80406778Y-95652295D01*
X80635350Y-95652295D02*
X80635350Y-94852295D01*
X80635350Y-94852295D02*
X80559159Y-94966580D01*
X80559159Y-94966580D02*
X80482969Y-95042771D01*
X80482969Y-95042771D02*
X80406778Y-95080866D01*
X81549636Y-95118961D02*
X81549636Y-95652295D01*
X81359160Y-94814200D02*
X81168683Y-95385628D01*
X81168683Y-95385628D02*
X81663922Y-95385628D01*
X79721064Y-75103723D02*
X80102017Y-75103723D01*
X79644874Y-75332295D02*
X79911541Y-74532295D01*
X79911541Y-74532295D02*
X80178207Y-75332295D01*
X80787731Y-74532295D02*
X80635350Y-74532295D01*
X80635350Y-74532295D02*
X80559159Y-74570390D01*
X80559159Y-74570390D02*
X80521064Y-74608485D01*
X80521064Y-74608485D02*
X80444874Y-74722771D01*
X80444874Y-74722771D02*
X80406778Y-74875152D01*
X80406778Y-74875152D02*
X80406778Y-75179914D01*
X80406778Y-75179914D02*
X80444874Y-75256104D01*
X80444874Y-75256104D02*
X80482969Y-75294200D01*
X80482969Y-75294200D02*
X80559159Y-75332295D01*
X80559159Y-75332295D02*
X80711540Y-75332295D01*
X80711540Y-75332295D02*
X80787731Y-75294200D01*
X80787731Y-75294200D02*
X80825826Y-75256104D01*
X80825826Y-75256104D02*
X80863921Y-75179914D01*
X80863921Y-75179914D02*
X80863921Y-74989438D01*
X80863921Y-74989438D02*
X80825826Y-74913247D01*
X80825826Y-74913247D02*
X80787731Y-74875152D01*
X80787731Y-74875152D02*
X80711540Y-74837057D01*
X80711540Y-74837057D02*
X80559159Y-74837057D01*
X80559159Y-74837057D02*
X80482969Y-74875152D01*
X80482969Y-74875152D02*
X80444874Y-74913247D01*
X80444874Y-74913247D02*
X80406778Y-74989438D01*
X70583697Y-110587533D02*
X71193221Y-110587533D01*
X70888459Y-110892295D02*
X70888459Y-110282771D01*
X71955125Y-110092295D02*
X71574173Y-110092295D01*
X71574173Y-110092295D02*
X71536077Y-110473247D01*
X71536077Y-110473247D02*
X71574173Y-110435152D01*
X71574173Y-110435152D02*
X71650363Y-110397057D01*
X71650363Y-110397057D02*
X71840839Y-110397057D01*
X71840839Y-110397057D02*
X71917030Y-110435152D01*
X71917030Y-110435152D02*
X71955125Y-110473247D01*
X71955125Y-110473247D02*
X71993220Y-110549438D01*
X71993220Y-110549438D02*
X71993220Y-110739914D01*
X71993220Y-110739914D02*
X71955125Y-110816104D01*
X71955125Y-110816104D02*
X71917030Y-110854200D01*
X71917030Y-110854200D02*
X71840839Y-110892295D01*
X71840839Y-110892295D02*
X71650363Y-110892295D01*
X71650363Y-110892295D02*
X71574173Y-110854200D01*
X71574173Y-110854200D02*
X71536077Y-110816104D01*
X72221792Y-110092295D02*
X72488459Y-110892295D01*
X72488459Y-110892295D02*
X72755125Y-110092295D01*
D11*
X215447780Y-121019673D02*
X216447780Y-121019673D01*
X215447780Y-121591101D02*
X216019209Y-121162530D01*
X216447780Y-121591101D02*
X215876352Y-121019673D01*
X216447780Y-121924435D02*
X216447780Y-122591101D01*
X216447780Y-122591101D02*
X215447780Y-122162530D01*
D10*
X71459887Y-80442295D02*
X71459887Y-79642295D01*
X71459887Y-79642295D02*
X71650363Y-79642295D01*
X71650363Y-79642295D02*
X71764649Y-79680390D01*
X71764649Y-79680390D02*
X71840839Y-79756580D01*
X71840839Y-79756580D02*
X71878934Y-79832771D01*
X71878934Y-79832771D02*
X71917030Y-79985152D01*
X71917030Y-79985152D02*
X71917030Y-80099438D01*
X71917030Y-80099438D02*
X71878934Y-80251819D01*
X71878934Y-80251819D02*
X71840839Y-80328009D01*
X71840839Y-80328009D02*
X71764649Y-80404200D01*
X71764649Y-80404200D02*
X71650363Y-80442295D01*
X71650363Y-80442295D02*
X71459887Y-80442295D01*
X72602744Y-79642295D02*
X72450363Y-79642295D01*
X72450363Y-79642295D02*
X72374172Y-79680390D01*
X72374172Y-79680390D02*
X72336077Y-79718485D01*
X72336077Y-79718485D02*
X72259887Y-79832771D01*
X72259887Y-79832771D02*
X72221791Y-79985152D01*
X72221791Y-79985152D02*
X72221791Y-80289914D01*
X72221791Y-80289914D02*
X72259887Y-80366104D01*
X72259887Y-80366104D02*
X72297982Y-80404200D01*
X72297982Y-80404200D02*
X72374172Y-80442295D01*
X72374172Y-80442295D02*
X72526553Y-80442295D01*
X72526553Y-80442295D02*
X72602744Y-80404200D01*
X72602744Y-80404200D02*
X72640839Y-80366104D01*
X72640839Y-80366104D02*
X72678934Y-80289914D01*
X72678934Y-80289914D02*
X72678934Y-80099438D01*
X72678934Y-80099438D02*
X72640839Y-80023247D01*
X72640839Y-80023247D02*
X72602744Y-79985152D01*
X72602744Y-79985152D02*
X72526553Y-79947057D01*
X72526553Y-79947057D02*
X72374172Y-79947057D01*
X72374172Y-79947057D02*
X72297982Y-79985152D01*
X72297982Y-79985152D02*
X72259887Y-80023247D01*
X72259887Y-80023247D02*
X72221791Y-80099438D01*
X80292493Y-110092295D02*
X79682969Y-110892295D01*
X79911541Y-110892295D02*
X79835350Y-110854200D01*
X79835350Y-110854200D02*
X79759160Y-110778009D01*
X79759160Y-110778009D02*
X79721064Y-110625628D01*
X79721064Y-110625628D02*
X79721064Y-110358961D01*
X79721064Y-110358961D02*
X79759160Y-110206580D01*
X79759160Y-110206580D02*
X79835350Y-110130390D01*
X79835350Y-110130390D02*
X79911541Y-110092295D01*
X79911541Y-110092295D02*
X80063922Y-110092295D01*
X80063922Y-110092295D02*
X80140112Y-110130390D01*
X80140112Y-110130390D02*
X80216303Y-110206580D01*
X80216303Y-110206580D02*
X80254398Y-110358961D01*
X80254398Y-110358961D02*
X80254398Y-110625628D01*
X80254398Y-110625628D02*
X80216303Y-110778009D01*
X80216303Y-110778009D02*
X80140112Y-110854200D01*
X80140112Y-110854200D02*
X80063922Y-110892295D01*
X80063922Y-110892295D02*
X79911541Y-110892295D01*
X80559159Y-110168485D02*
X80597255Y-110130390D01*
X80597255Y-110130390D02*
X80673445Y-110092295D01*
X80673445Y-110092295D02*
X80863921Y-110092295D01*
X80863921Y-110092295D02*
X80940112Y-110130390D01*
X80940112Y-110130390D02*
X80978207Y-110168485D01*
X80978207Y-110168485D02*
X81016302Y-110244676D01*
X81016302Y-110244676D02*
X81016302Y-110320866D01*
X81016302Y-110320866D02*
X80978207Y-110435152D01*
X80978207Y-110435152D02*
X80521064Y-110892295D01*
X80521064Y-110892295D02*
X81016302Y-110892295D01*
X79648684Y-109870200D02*
X81088684Y-109870200D01*
X79721064Y-64903723D02*
X80102017Y-64903723D01*
X79644874Y-65132295D02*
X79911541Y-64332295D01*
X79911541Y-64332295D02*
X80178207Y-65132295D01*
X80406778Y-64408485D02*
X80444874Y-64370390D01*
X80444874Y-64370390D02*
X80521064Y-64332295D01*
X80521064Y-64332295D02*
X80711540Y-64332295D01*
X80711540Y-64332295D02*
X80787731Y-64370390D01*
X80787731Y-64370390D02*
X80825826Y-64408485D01*
X80825826Y-64408485D02*
X80863921Y-64484676D01*
X80863921Y-64484676D02*
X80863921Y-64560866D01*
X80863921Y-64560866D02*
X80825826Y-64675152D01*
X80825826Y-64675152D02*
X80368683Y-65132295D01*
X80368683Y-65132295D02*
X80863921Y-65132295D01*
X120986779Y-37284819D02*
X120986779Y-36284819D01*
X120986779Y-36284819D02*
X121367731Y-36284819D01*
X121367731Y-36284819D02*
X121462969Y-36332438D01*
X121462969Y-36332438D02*
X121510588Y-36380057D01*
X121510588Y-36380057D02*
X121558207Y-36475295D01*
X121558207Y-36475295D02*
X121558207Y-36618152D01*
X121558207Y-36618152D02*
X121510588Y-36713390D01*
X121510588Y-36713390D02*
X121462969Y-36761009D01*
X121462969Y-36761009D02*
X121367731Y-36808628D01*
X121367731Y-36808628D02*
X120986779Y-36808628D01*
X122462969Y-36284819D02*
X121986779Y-36284819D01*
X121986779Y-36284819D02*
X121939160Y-36761009D01*
X121939160Y-36761009D02*
X121986779Y-36713390D01*
X121986779Y-36713390D02*
X122082017Y-36665771D01*
X122082017Y-36665771D02*
X122320112Y-36665771D01*
X122320112Y-36665771D02*
X122415350Y-36713390D01*
X122415350Y-36713390D02*
X122462969Y-36761009D01*
X122462969Y-36761009D02*
X122510588Y-36856247D01*
X122510588Y-36856247D02*
X122510588Y-37094342D01*
X122510588Y-37094342D02*
X122462969Y-37189580D01*
X122462969Y-37189580D02*
X122415350Y-37237200D01*
X122415350Y-37237200D02*
X122320112Y-37284819D01*
X122320112Y-37284819D02*
X122082017Y-37284819D01*
X122082017Y-37284819D02*
X121986779Y-37237200D01*
X121986779Y-37237200D02*
X121939160Y-37189580D01*
X123490588Y-44649819D02*
X122919160Y-44649819D01*
X123204874Y-44649819D02*
X123204874Y-43649819D01*
X123204874Y-43649819D02*
X123109636Y-43792676D01*
X123109636Y-43792676D02*
X123014398Y-43887914D01*
X123014398Y-43887914D02*
X122919160Y-43935533D01*
X146386779Y-37284819D02*
X146386779Y-36284819D01*
X146386779Y-36284819D02*
X146767731Y-36284819D01*
X146767731Y-36284819D02*
X146862969Y-36332438D01*
X146862969Y-36332438D02*
X146910588Y-36380057D01*
X146910588Y-36380057D02*
X146958207Y-36475295D01*
X146958207Y-36475295D02*
X146958207Y-36618152D01*
X146958207Y-36618152D02*
X146910588Y-36713390D01*
X146910588Y-36713390D02*
X146862969Y-36761009D01*
X146862969Y-36761009D02*
X146767731Y-36808628D01*
X146767731Y-36808628D02*
X146386779Y-36808628D01*
X147815350Y-36618152D02*
X147815350Y-37284819D01*
X147577255Y-36237200D02*
X147339160Y-36951485D01*
X147339160Y-36951485D02*
X147958207Y-36951485D01*
X148890588Y-44649819D02*
X148319160Y-44649819D01*
X148604874Y-44649819D02*
X148604874Y-43649819D01*
X148604874Y-43649819D02*
X148509636Y-43792676D01*
X148509636Y-43792676D02*
X148414398Y-43887914D01*
X148414398Y-43887914D02*
X148319160Y-43935533D01*
X197186779Y-37284819D02*
X197186779Y-36284819D01*
X197186779Y-36284819D02*
X197567731Y-36284819D01*
X197567731Y-36284819D02*
X197662969Y-36332438D01*
X197662969Y-36332438D02*
X197710588Y-36380057D01*
X197710588Y-36380057D02*
X197758207Y-36475295D01*
X197758207Y-36475295D02*
X197758207Y-36618152D01*
X197758207Y-36618152D02*
X197710588Y-36713390D01*
X197710588Y-36713390D02*
X197662969Y-36761009D01*
X197662969Y-36761009D02*
X197567731Y-36808628D01*
X197567731Y-36808628D02*
X197186779Y-36808628D01*
X198139160Y-36380057D02*
X198186779Y-36332438D01*
X198186779Y-36332438D02*
X198282017Y-36284819D01*
X198282017Y-36284819D02*
X198520112Y-36284819D01*
X198520112Y-36284819D02*
X198615350Y-36332438D01*
X198615350Y-36332438D02*
X198662969Y-36380057D01*
X198662969Y-36380057D02*
X198710588Y-36475295D01*
X198710588Y-36475295D02*
X198710588Y-36570533D01*
X198710588Y-36570533D02*
X198662969Y-36713390D01*
X198662969Y-36713390D02*
X198091541Y-37284819D01*
X198091541Y-37284819D02*
X198710588Y-37284819D01*
X199690588Y-44649819D02*
X199119160Y-44649819D01*
X199404874Y-44649819D02*
X199404874Y-43649819D01*
X199404874Y-43649819D02*
X199309636Y-43792676D01*
X199309636Y-43792676D02*
X199214398Y-43887914D01*
X199214398Y-43887914D02*
X199119160Y-43935533D01*
X171786779Y-37284819D02*
X171786779Y-36284819D01*
X171786779Y-36284819D02*
X172167731Y-36284819D01*
X172167731Y-36284819D02*
X172262969Y-36332438D01*
X172262969Y-36332438D02*
X172310588Y-36380057D01*
X172310588Y-36380057D02*
X172358207Y-36475295D01*
X172358207Y-36475295D02*
X172358207Y-36618152D01*
X172358207Y-36618152D02*
X172310588Y-36713390D01*
X172310588Y-36713390D02*
X172262969Y-36761009D01*
X172262969Y-36761009D02*
X172167731Y-36808628D01*
X172167731Y-36808628D02*
X171786779Y-36808628D01*
X172691541Y-36284819D02*
X173310588Y-36284819D01*
X173310588Y-36284819D02*
X172977255Y-36665771D01*
X172977255Y-36665771D02*
X173120112Y-36665771D01*
X173120112Y-36665771D02*
X173215350Y-36713390D01*
X173215350Y-36713390D02*
X173262969Y-36761009D01*
X173262969Y-36761009D02*
X173310588Y-36856247D01*
X173310588Y-36856247D02*
X173310588Y-37094342D01*
X173310588Y-37094342D02*
X173262969Y-37189580D01*
X173262969Y-37189580D02*
X173215350Y-37237200D01*
X173215350Y-37237200D02*
X173120112Y-37284819D01*
X173120112Y-37284819D02*
X172834398Y-37284819D01*
X172834398Y-37284819D02*
X172739160Y-37237200D01*
X172739160Y-37237200D02*
X172691541Y-37189580D01*
X174290588Y-44649819D02*
X173719160Y-44649819D01*
X174004874Y-44649819D02*
X174004874Y-43649819D01*
X174004874Y-43649819D02*
X173909636Y-43792676D01*
X173909636Y-43792676D02*
X173814398Y-43887914D01*
X173814398Y-43887914D02*
X173719160Y-43935533D01*
X95586779Y-37284819D02*
X95586779Y-36284819D01*
X95586779Y-36284819D02*
X95967731Y-36284819D01*
X95967731Y-36284819D02*
X96062969Y-36332438D01*
X96062969Y-36332438D02*
X96110588Y-36380057D01*
X96110588Y-36380057D02*
X96158207Y-36475295D01*
X96158207Y-36475295D02*
X96158207Y-36618152D01*
X96158207Y-36618152D02*
X96110588Y-36713390D01*
X96110588Y-36713390D02*
X96062969Y-36761009D01*
X96062969Y-36761009D02*
X95967731Y-36808628D01*
X95967731Y-36808628D02*
X95586779Y-36808628D01*
X97015350Y-36284819D02*
X96824874Y-36284819D01*
X96824874Y-36284819D02*
X96729636Y-36332438D01*
X96729636Y-36332438D02*
X96682017Y-36380057D01*
X96682017Y-36380057D02*
X96586779Y-36522914D01*
X96586779Y-36522914D02*
X96539160Y-36713390D01*
X96539160Y-36713390D02*
X96539160Y-37094342D01*
X96539160Y-37094342D02*
X96586779Y-37189580D01*
X96586779Y-37189580D02*
X96634398Y-37237200D01*
X96634398Y-37237200D02*
X96729636Y-37284819D01*
X96729636Y-37284819D02*
X96920112Y-37284819D01*
X96920112Y-37284819D02*
X97015350Y-37237200D01*
X97015350Y-37237200D02*
X97062969Y-37189580D01*
X97062969Y-37189580D02*
X97110588Y-37094342D01*
X97110588Y-37094342D02*
X97110588Y-36856247D01*
X97110588Y-36856247D02*
X97062969Y-36761009D01*
X97062969Y-36761009D02*
X97015350Y-36713390D01*
X97015350Y-36713390D02*
X96920112Y-36665771D01*
X96920112Y-36665771D02*
X96729636Y-36665771D01*
X96729636Y-36665771D02*
X96634398Y-36713390D01*
X96634398Y-36713390D02*
X96586779Y-36761009D01*
X96586779Y-36761009D02*
X96539160Y-36856247D01*
X98090588Y-44649819D02*
X97519160Y-44649819D01*
X97804874Y-44649819D02*
X97804874Y-43649819D01*
X97804874Y-43649819D02*
X97709636Y-43792676D01*
X97709636Y-43792676D02*
X97614398Y-43887914D01*
X97614398Y-43887914D02*
X97519160Y-43935533D01*
X223106666Y-141784819D02*
X223106666Y-142499104D01*
X223106666Y-142499104D02*
X223059047Y-142641961D01*
X223059047Y-142641961D02*
X222963809Y-142737200D01*
X222963809Y-142737200D02*
X222820952Y-142784819D01*
X222820952Y-142784819D02*
X222725714Y-142784819D01*
X223535238Y-141880057D02*
X223582857Y-141832438D01*
X223582857Y-141832438D02*
X223678095Y-141784819D01*
X223678095Y-141784819D02*
X223916190Y-141784819D01*
X223916190Y-141784819D02*
X224011428Y-141832438D01*
X224011428Y-141832438D02*
X224059047Y-141880057D01*
X224059047Y-141880057D02*
X224106666Y-141975295D01*
X224106666Y-141975295D02*
X224106666Y-142070533D01*
X224106666Y-142070533D02*
X224059047Y-142213390D01*
X224059047Y-142213390D02*
X223487619Y-142784819D01*
X223487619Y-142784819D02*
X224106666Y-142784819D01*
X215566666Y-115234819D02*
X215566666Y-115949104D01*
X215566666Y-115949104D02*
X215519047Y-116091961D01*
X215519047Y-116091961D02*
X215423809Y-116187200D01*
X215423809Y-116187200D02*
X215280952Y-116234819D01*
X215280952Y-116234819D02*
X215185714Y-116234819D01*
X215947619Y-115234819D02*
X216566666Y-115234819D01*
X216566666Y-115234819D02*
X216233333Y-115615771D01*
X216233333Y-115615771D02*
X216376190Y-115615771D01*
X216376190Y-115615771D02*
X216471428Y-115663390D01*
X216471428Y-115663390D02*
X216519047Y-115711009D01*
X216519047Y-115711009D02*
X216566666Y-115806247D01*
X216566666Y-115806247D02*
X216566666Y-116044342D01*
X216566666Y-116044342D02*
X216519047Y-116139580D01*
X216519047Y-116139580D02*
X216471428Y-116187200D01*
X216471428Y-116187200D02*
X216376190Y-116234819D01*
X216376190Y-116234819D02*
X216090476Y-116234819D01*
X216090476Y-116234819D02*
X215995238Y-116187200D01*
X215995238Y-116187200D02*
X215947619Y-116139580D01*
X211756666Y-115234819D02*
X211756666Y-115949104D01*
X211756666Y-115949104D02*
X211709047Y-116091961D01*
X211709047Y-116091961D02*
X211613809Y-116187200D01*
X211613809Y-116187200D02*
X211470952Y-116234819D01*
X211470952Y-116234819D02*
X211375714Y-116234819D01*
X212661428Y-115568152D02*
X212661428Y-116234819D01*
X212423333Y-115187200D02*
X212185238Y-115901485D01*
X212185238Y-115901485D02*
X212804285Y-115901485D01*
X226591905Y-37284819D02*
X226591905Y-36284819D01*
X226591905Y-36284819D02*
X226972857Y-36284819D01*
X226972857Y-36284819D02*
X227068095Y-36332438D01*
X227068095Y-36332438D02*
X227115714Y-36380057D01*
X227115714Y-36380057D02*
X227163333Y-36475295D01*
X227163333Y-36475295D02*
X227163333Y-36618152D01*
X227163333Y-36618152D02*
X227115714Y-36713390D01*
X227115714Y-36713390D02*
X227068095Y-36761009D01*
X227068095Y-36761009D02*
X226972857Y-36808628D01*
X226972857Y-36808628D02*
X226591905Y-36808628D01*
X228115714Y-37284819D02*
X227544286Y-37284819D01*
X227830000Y-37284819D02*
X227830000Y-36284819D01*
X227830000Y-36284819D02*
X227734762Y-36427676D01*
X227734762Y-36427676D02*
X227639524Y-36522914D01*
X227639524Y-36522914D02*
X227544286Y-36570533D01*
X75866666Y-55334819D02*
X75866666Y-56049104D01*
X75866666Y-56049104D02*
X75819047Y-56191961D01*
X75819047Y-56191961D02*
X75723809Y-56287200D01*
X75723809Y-56287200D02*
X75580952Y-56334819D01*
X75580952Y-56334819D02*
X75485714Y-56334819D01*
X76866666Y-56334819D02*
X76295238Y-56334819D01*
X76580952Y-56334819D02*
X76580952Y-55334819D01*
X76580952Y-55334819D02*
X76485714Y-55477676D01*
X76485714Y-55477676D02*
X76390476Y-55572914D01*
X76390476Y-55572914D02*
X76295238Y-55620533D01*
%TO.C,P5*%
X124140000Y-32030000D02*
X132400000Y-32030000D01*
X124140000Y-140690000D02*
X124140000Y-32030000D01*
X132400000Y-32030000D02*
X132400000Y-140690000D01*
X132400000Y-140690000D02*
X124140000Y-140690000D01*
%TO.C,P4*%
X149540000Y-32030000D02*
X157800000Y-32030000D01*
X149540000Y-140690000D02*
X149540000Y-32030000D01*
X157800000Y-32030000D02*
X157800000Y-140690000D01*
X157800000Y-140690000D02*
X149540000Y-140690000D01*
%TO.C,P2*%
X200340000Y-32030000D02*
X208600000Y-32030000D01*
X200340000Y-140690000D02*
X200340000Y-32030000D01*
X208600000Y-32030000D02*
X208600000Y-140690000D01*
X208600000Y-140690000D02*
X200340000Y-140690000D01*
%TO.C,P3*%
X174940000Y-32030000D02*
X183200000Y-32030000D01*
X174940000Y-140690000D02*
X174940000Y-32030000D01*
X183200000Y-32030000D02*
X183200000Y-140690000D01*
X183200000Y-140690000D02*
X174940000Y-140690000D01*
%TO.C,P6*%
X98740000Y-32030000D02*
X107000000Y-32030000D01*
X98740000Y-140690000D02*
X98740000Y-32030000D01*
X107000000Y-32030000D02*
X107000000Y-140690000D01*
X107000000Y-140690000D02*
X98740000Y-140690000D01*
D12*
%TO.C,J2*%
X210640000Y-152750000D02*
X210640000Y-153490000D01*
X210640000Y-153490000D02*
X211140000Y-153490000D01*
X210880000Y-143329000D02*
X210880000Y-153250000D01*
X210880000Y-143329000D02*
X236000000Y-143329000D01*
X210880000Y-146289000D02*
X236000000Y-146289000D01*
X210880000Y-151190000D02*
X236000000Y-151190000D01*
X210880000Y-152690000D02*
X236000000Y-152690000D01*
X210880000Y-153250000D02*
X236000000Y-153250000D01*
X217213000Y-149613000D02*
X217166000Y-149659000D01*
X217406000Y-149829000D02*
X217371000Y-149864000D01*
X219510000Y-147315000D02*
X219475000Y-147351000D01*
X219715000Y-147521000D02*
X219668000Y-147567000D01*
X222213000Y-149613000D02*
X222166000Y-149659000D01*
X222406000Y-149829000D02*
X222371000Y-149864000D01*
X224510000Y-147315000D02*
X224475000Y-147351000D01*
X224715000Y-147521000D02*
X224668000Y-147567000D01*
X227213000Y-149613000D02*
X227166000Y-149659000D01*
X227406000Y-149829000D02*
X227371000Y-149864000D01*
X229510000Y-147315000D02*
X229475000Y-147351000D01*
X229715000Y-147521000D02*
X229668000Y-147567000D01*
X232213000Y-149613000D02*
X232166000Y-149659000D01*
X232406000Y-149829000D02*
X232371000Y-149864000D01*
X234510000Y-147315000D02*
X234475000Y-147351000D01*
X234715000Y-147521000D02*
X234668000Y-147567000D01*
X236000000Y-143329000D02*
X236000000Y-153250000D01*
X211905001Y-147906001D02*
G75*
G03*
X211904574Y-149273042I1534992J-684000D01*
G01*
X214123999Y-147055001D02*
G75*
G03*
X212756958Y-147054574I-684000J-1534992D01*
G01*
X212756000Y-150124999D02*
G75*
G03*
X213468805Y-150270252I683999J1535000D01*
G01*
X213440000Y-150269999D02*
G75*
G03*
X214123318Y-150124755I0J1679999D01*
G01*
X214975000Y-149274000D02*
G75*
G03*
X214975426Y-147906958I-1535000J684000D01*
G01*
X220120000Y-148590000D02*
G75*
G03*
X220120000Y-148590000I-1680000J0D01*
G01*
X225120000Y-148590000D02*
G75*
G03*
X225120000Y-148590000I-1680000J0D01*
G01*
X230120000Y-148590000D02*
G75*
G03*
X230120000Y-148590000I-1680000J0D01*
G01*
X235120000Y-148590000D02*
G75*
G03*
X235120000Y-148590000I-1680000J0D01*
G01*
%TO.C,J3*%
X214570000Y-116780000D02*
X215900000Y-116780000D01*
X214570000Y-118110000D02*
X214570000Y-116780000D01*
X214570000Y-119380000D02*
X214570000Y-119440000D01*
X214570000Y-119380000D02*
X217230000Y-119380000D01*
X214570000Y-119440000D02*
X217230000Y-119440000D01*
X217230000Y-119380000D02*
X217230000Y-119440000D01*
%TO.C,J4*%
X210760000Y-116780000D02*
X212090000Y-116780000D01*
X210760000Y-118110000D02*
X210760000Y-116780000D01*
X210760000Y-119380000D02*
X210760000Y-119440000D01*
X210760000Y-119380000D02*
X213420000Y-119380000D01*
X210760000Y-119440000D02*
X213420000Y-119440000D01*
X213420000Y-119380000D02*
X213420000Y-119440000D01*
%TO.C,J1*%
X73600000Y-58360000D02*
X74930000Y-58360000D01*
X73600000Y-59690000D02*
X73600000Y-58360000D01*
X73600000Y-60960000D02*
X73600000Y-114360000D01*
X73600000Y-60960000D02*
X76200000Y-60960000D01*
X73600000Y-114360000D02*
X78800000Y-114360000D01*
X76200000Y-58360000D02*
X78800000Y-58360000D01*
X76200000Y-60960000D02*
X76200000Y-58360000D01*
X78800000Y-58360000D02*
X78800000Y-114360000D01*
%TD*%
%LPC*%
%TO.C,P7*%
X58140000Y-40740000D02*
X68200000Y-40740000D01*
X68200000Y-40740000D02*
X68200000Y-131980000D01*
X68200000Y-131980000D02*
X58140000Y-131980000D01*
X58140000Y-131980000D02*
X58140000Y-40740000D01*
G36*
X58140000Y-40740000D02*
G01*
X68200000Y-40740000D01*
X68200000Y-131980000D01*
X58140000Y-131980000D01*
X58140000Y-40740000D01*
G37*
%TD*%
D13*
%TO.C,P5*%
X128270000Y-35205000D03*
X128270000Y-137515000D03*
D14*
X125730000Y-44780000D03*
X125730000Y-48740000D03*
X125730000Y-52700000D03*
X125730000Y-56660000D03*
X125730000Y-60620000D03*
X125730000Y-64580000D03*
X125730000Y-68540000D03*
X125730000Y-72500000D03*
X125730000Y-76460000D03*
X125730000Y-80420000D03*
X125730000Y-84380000D03*
X125730000Y-88340000D03*
X125730000Y-92300000D03*
X125730000Y-96260000D03*
X125730000Y-100220000D03*
X125730000Y-104180000D03*
X125730000Y-108140000D03*
X125730000Y-112100000D03*
X125730000Y-116060000D03*
X125730000Y-120020000D03*
X125730000Y-123980000D03*
X125730000Y-127940000D03*
X130810000Y-44780000D03*
X130810000Y-48740000D03*
X130810000Y-52700000D03*
X130810000Y-56660000D03*
X130810000Y-60620000D03*
X130810000Y-64580000D03*
X130810000Y-68540000D03*
X130810000Y-72500000D03*
X130810000Y-76460000D03*
X130810000Y-80420000D03*
X130810000Y-84380000D03*
X130810000Y-88340000D03*
X130810000Y-92300000D03*
X130810000Y-96260000D03*
X130810000Y-100220000D03*
X130810000Y-104180000D03*
X130810000Y-108140000D03*
X130810000Y-112100000D03*
X130810000Y-116060000D03*
X130810000Y-120020000D03*
X130810000Y-123980000D03*
X130810000Y-127940000D03*
%TD*%
D13*
%TO.C,P4*%
X153670000Y-35205000D03*
X153670000Y-137515000D03*
D14*
X151130000Y-44780000D03*
X151130000Y-48740000D03*
X151130000Y-52700000D03*
X151130000Y-56660000D03*
X151130000Y-60620000D03*
X151130000Y-64580000D03*
X151130000Y-68540000D03*
X151130000Y-72500000D03*
X151130000Y-76460000D03*
X151130000Y-80420000D03*
X151130000Y-84380000D03*
X151130000Y-88340000D03*
X151130000Y-92300000D03*
X151130000Y-96260000D03*
X151130000Y-100220000D03*
X151130000Y-104180000D03*
X151130000Y-108140000D03*
X151130000Y-112100000D03*
X151130000Y-116060000D03*
X151130000Y-120020000D03*
X151130000Y-123980000D03*
X151130000Y-127940000D03*
X156210000Y-44780000D03*
X156210000Y-48740000D03*
X156210000Y-52700000D03*
X156210000Y-56660000D03*
X156210000Y-60620000D03*
X156210000Y-64580000D03*
X156210000Y-68540000D03*
X156210000Y-72500000D03*
X156210000Y-76460000D03*
X156210000Y-80420000D03*
X156210000Y-84380000D03*
X156210000Y-88340000D03*
X156210000Y-92300000D03*
X156210000Y-96260000D03*
X156210000Y-100220000D03*
X156210000Y-104180000D03*
X156210000Y-108140000D03*
X156210000Y-112100000D03*
X156210000Y-116060000D03*
X156210000Y-120020000D03*
X156210000Y-123980000D03*
X156210000Y-127940000D03*
%TD*%
D13*
%TO.C,P2*%
X204470000Y-35205000D03*
X204470000Y-137515000D03*
D14*
X201930000Y-44780000D03*
X201930000Y-48740000D03*
X201930000Y-52700000D03*
X201930000Y-56660000D03*
X201930000Y-60620000D03*
X201930000Y-64580000D03*
X201930000Y-68540000D03*
X201930000Y-72500000D03*
X201930000Y-76460000D03*
X201930000Y-80420000D03*
X201930000Y-84380000D03*
X201930000Y-88340000D03*
X201930000Y-92300000D03*
X201930000Y-96260000D03*
X201930000Y-100220000D03*
X201930000Y-104180000D03*
X201930000Y-108140000D03*
X201930000Y-112100000D03*
X201930000Y-116060000D03*
X201930000Y-120020000D03*
X201930000Y-123980000D03*
X201930000Y-127940000D03*
X207010000Y-44780000D03*
X207010000Y-48740000D03*
X207010000Y-52700000D03*
X207010000Y-56660000D03*
X207010000Y-60620000D03*
X207010000Y-64580000D03*
X207010000Y-68540000D03*
X207010000Y-72500000D03*
X207010000Y-76460000D03*
X207010000Y-80420000D03*
X207010000Y-84380000D03*
X207010000Y-88340000D03*
X207010000Y-92300000D03*
X207010000Y-96260000D03*
X207010000Y-100220000D03*
X207010000Y-104180000D03*
X207010000Y-108140000D03*
X207010000Y-112100000D03*
X207010000Y-116060000D03*
X207010000Y-120020000D03*
X207010000Y-123980000D03*
X207010000Y-127940000D03*
%TD*%
D13*
%TO.C,P3*%
X179070000Y-35205000D03*
X179070000Y-137515000D03*
D14*
X176530000Y-44780000D03*
X176530000Y-48740000D03*
X176530000Y-52700000D03*
X176530000Y-56660000D03*
X176530000Y-60620000D03*
X176530000Y-64580000D03*
X176530000Y-68540000D03*
X176530000Y-72500000D03*
X176530000Y-76460000D03*
X176530000Y-80420000D03*
X176530000Y-84380000D03*
X176530000Y-88340000D03*
X176530000Y-92300000D03*
X176530000Y-96260000D03*
X176530000Y-100220000D03*
X176530000Y-104180000D03*
X176530000Y-108140000D03*
X176530000Y-112100000D03*
X176530000Y-116060000D03*
X176530000Y-120020000D03*
X176530000Y-123980000D03*
X176530000Y-127940000D03*
X181610000Y-44780000D03*
X181610000Y-48740000D03*
X181610000Y-52700000D03*
X181610000Y-56660000D03*
X181610000Y-60620000D03*
X181610000Y-64580000D03*
X181610000Y-68540000D03*
X181610000Y-72500000D03*
X181610000Y-76460000D03*
X181610000Y-80420000D03*
X181610000Y-84380000D03*
X181610000Y-88340000D03*
X181610000Y-92300000D03*
X181610000Y-96260000D03*
X181610000Y-100220000D03*
X181610000Y-104180000D03*
X181610000Y-108140000D03*
X181610000Y-112100000D03*
X181610000Y-116060000D03*
X181610000Y-120020000D03*
X181610000Y-123980000D03*
X181610000Y-127940000D03*
%TD*%
D13*
%TO.C,P6*%
X102870000Y-35205000D03*
X102870000Y-137515000D03*
D14*
X100330000Y-44780000D03*
X100330000Y-48740000D03*
X100330000Y-52700000D03*
X100330000Y-56660000D03*
X100330000Y-60620000D03*
X100330000Y-64580000D03*
X100330000Y-68540000D03*
X100330000Y-72500000D03*
X100330000Y-76460000D03*
X100330000Y-80420000D03*
X100330000Y-84380000D03*
X100330000Y-88340000D03*
X100330000Y-92300000D03*
X100330000Y-96260000D03*
X100330000Y-100220000D03*
X100330000Y-104180000D03*
X100330000Y-108140000D03*
X100330000Y-112100000D03*
X100330000Y-116060000D03*
X100330000Y-120020000D03*
X100330000Y-123980000D03*
X100330000Y-127940000D03*
X105410000Y-44780000D03*
X105410000Y-48740000D03*
X105410000Y-52700000D03*
X105410000Y-56660000D03*
X105410000Y-60620000D03*
X105410000Y-64580000D03*
X105410000Y-68540000D03*
X105410000Y-72500000D03*
X105410000Y-76460000D03*
X105410000Y-80420000D03*
X105410000Y-84380000D03*
X105410000Y-88340000D03*
X105410000Y-92300000D03*
X105410000Y-96260000D03*
X105410000Y-100220000D03*
X105410000Y-104180000D03*
X105410000Y-108140000D03*
X105410000Y-112100000D03*
X105410000Y-116060000D03*
X105410000Y-120020000D03*
X105410000Y-123980000D03*
X105410000Y-127940000D03*
%TD*%
D15*
%TO.C,J2*%
X213440000Y-148590000D03*
D16*
X218440000Y-148590000D03*
X223440000Y-148590000D03*
X228440000Y-148590000D03*
X233440000Y-148590000D03*
%TD*%
D17*
%TO.C,J3*%
X215900000Y-118110000D03*
%TD*%
%TO.C,J4*%
X212090000Y-118110000D03*
%TD*%
D18*
%TO.C,P1*%
X233680000Y-44780000D03*
X233680000Y-48740000D03*
X233680000Y-52700000D03*
X233680000Y-56660000D03*
X233680000Y-60620000D03*
X233680000Y-64580000D03*
X233680000Y-68540000D03*
X233680000Y-72500000D03*
X233680000Y-76460000D03*
X233680000Y-80420000D03*
X233680000Y-84380000D03*
X233680000Y-88340000D03*
X233680000Y-92300000D03*
X233680000Y-96260000D03*
X233680000Y-100220000D03*
X233680000Y-104180000D03*
X233680000Y-108140000D03*
X233680000Y-112100000D03*
X233680000Y-116060000D03*
X233680000Y-120020000D03*
X233680000Y-123980000D03*
X233680000Y-127940000D03*
%TD*%
D19*
%TO.C,J1*%
X74930000Y-59690000D03*
D20*
X74930000Y-62230000D03*
X74930000Y-64770000D03*
X74930000Y-67310000D03*
X74930000Y-69850000D03*
X74930000Y-72390000D03*
X74930000Y-74930000D03*
X74930000Y-77470000D03*
X74930000Y-80010000D03*
X74930000Y-82550000D03*
X74930000Y-85090000D03*
X74930000Y-87630000D03*
X74930000Y-90170000D03*
X74930000Y-92710000D03*
X74930000Y-95250000D03*
X74930000Y-97790000D03*
X74930000Y-100330000D03*
X74930000Y-102870000D03*
X74930000Y-105410000D03*
X74930000Y-107950000D03*
X74930000Y-110490000D03*
X74930000Y-113030000D03*
X77470000Y-59690000D03*
X77470000Y-62230000D03*
X77470000Y-64770000D03*
X77470000Y-67310000D03*
X77470000Y-69850000D03*
X77470000Y-72390000D03*
X77470000Y-74930000D03*
X77470000Y-77470000D03*
X77470000Y-80010000D03*
X77470000Y-82550000D03*
X77470000Y-85090000D03*
X77470000Y-87630000D03*
X77470000Y-90170000D03*
X77470000Y-92710000D03*
X77470000Y-95250000D03*
X77470000Y-97790000D03*
X77470000Y-100330000D03*
X77470000Y-102870000D03*
X77470000Y-105410000D03*
X77470000Y-107950000D03*
X77470000Y-110490000D03*
X77470000Y-113030000D03*
%TD*%
%LPD*%
M02*
