%TF.GenerationSoftware,KiCad,Pcbnew,7.0.6*%
%TF.CreationDate,2023-07-16T00:54:31+02:00*%
%TF.ProjectId,kim-1-mtu-expansion-card,6b696d2d-312d-46d7-9475-2d657870616e,rev?*%
%TF.SameCoordinates,Original*%
%TF.FileFunction,Soldermask,Top*%
%TF.FilePolarity,Negative*%
%FSLAX46Y46*%
G04 Gerber Fmt 4.6, Leading zero omitted, Abs format (unit mm)*
G04 Created by KiCad (PCBNEW 7.0.6) date 2023-07-16 00:54:31*
%MOMM*%
%LPD*%
G01*
G04 APERTURE LIST*
G04 Aperture macros list*
%AMFreePoly0*
4,1,22,-1.270000,3.180000,1.270000,3.180000,1.270000,-1.910000,1.254364,-2.108672,1.198732,-2.329454,1.104571,-2.536755,0.974909,-2.723912,0.813912,-2.884909,0.626755,-3.014571,0.419454,-3.108732,0.198672,-3.164364,0.000000,-3.180000,-0.198672,-3.164364,-0.419454,-3.108732,-0.626755,-3.014571,-0.813912,-2.884909,-0.974909,-2.723912,-1.104571,-2.536755,-1.198732,-2.329454,-1.254364,-2.108672,
-1.270000,-1.910000,-1.270000,3.180000,-1.270000,3.180000,$1*%
G04 Aperture macros list end*
%ADD10C,0.120000*%
%ADD11C,3.180000*%
%ADD12C,1.700000*%
%ADD13R,2.600000X2.600000*%
%ADD14C,2.600000*%
%ADD15FreePoly0,270.000000*%
%ADD16R,1.700000X1.700000*%
%ADD17O,1.700000X1.700000*%
G04 APERTURE END LIST*
D10*
%TO.C,P7*%
X58140000Y-40740000D02*
X68200000Y-40740000D01*
X68200000Y-40740000D02*
X68200000Y-131980000D01*
X68200000Y-131980000D02*
X58140000Y-131980000D01*
X58140000Y-131980000D02*
X58140000Y-40740000D01*
G36*
X58140000Y-40740000D02*
G01*
X68200000Y-40740000D01*
X68200000Y-131980000D01*
X58140000Y-131980000D01*
X58140000Y-40740000D01*
G37*
%TD*%
D11*
%TO.C,P5*%
X128270000Y-35205000D03*
X128270000Y-137515000D03*
%TD*%
D12*
%TO.C,J3*%
X215900000Y-118110000D03*
%TD*%
%TO.C,J4*%
X212090000Y-118110000D03*
%TD*%
D13*
%TO.C,J2*%
X213440000Y-148590000D03*
D14*
X218440000Y-148590000D03*
X223440000Y-148590000D03*
X228440000Y-148590000D03*
X233440000Y-148590000D03*
%TD*%
D11*
%TO.C,P4*%
X153670000Y-35205000D03*
X153670000Y-137515000D03*
%TD*%
%TO.C,P2*%
X204470000Y-35205000D03*
X204470000Y-137515000D03*
%TD*%
D15*
%TO.C,P1*%
X233680000Y-44780000D03*
X233680000Y-48740000D03*
X233680000Y-52700000D03*
X233680000Y-56660000D03*
X233680000Y-60620000D03*
X233680000Y-64580000D03*
X233680000Y-68540000D03*
X233680000Y-72500000D03*
X233680000Y-76460000D03*
X233680000Y-80420000D03*
X233680000Y-84380000D03*
X233680000Y-88340000D03*
X233680000Y-92300000D03*
X233680000Y-96260000D03*
X233680000Y-100220000D03*
X233680000Y-104180000D03*
X233680000Y-108140000D03*
X233680000Y-112100000D03*
X233680000Y-116060000D03*
X233680000Y-120020000D03*
X233680000Y-123980000D03*
X233680000Y-127940000D03*
%TD*%
D11*
%TO.C,P3*%
X179070000Y-35205000D03*
X179070000Y-137515000D03*
%TD*%
D16*
%TO.C,J1*%
X74930000Y-59690000D03*
D17*
X74930000Y-62230000D03*
X74930000Y-64770000D03*
X74930000Y-67310000D03*
X74930000Y-69850000D03*
X74930000Y-72390000D03*
X74930000Y-74930000D03*
X74930000Y-77470000D03*
X74930000Y-80010000D03*
X74930000Y-82550000D03*
X74930000Y-85090000D03*
X74930000Y-87630000D03*
X74930000Y-90170000D03*
X74930000Y-92710000D03*
X74930000Y-95250000D03*
X74930000Y-97790000D03*
X74930000Y-100330000D03*
X74930000Y-102870000D03*
X74930000Y-105410000D03*
X74930000Y-107950000D03*
X74930000Y-110490000D03*
X74930000Y-113030000D03*
X77470000Y-59690000D03*
X77470000Y-62230000D03*
X77470000Y-64770000D03*
X77470000Y-67310000D03*
X77470000Y-69850000D03*
X77470000Y-72390000D03*
X77470000Y-74930000D03*
X77470000Y-77470000D03*
X77470000Y-80010000D03*
X77470000Y-82550000D03*
X77470000Y-85090000D03*
X77470000Y-87630000D03*
X77470000Y-90170000D03*
X77470000Y-92710000D03*
X77470000Y-95250000D03*
X77470000Y-97790000D03*
X77470000Y-100330000D03*
X77470000Y-102870000D03*
X77470000Y-105410000D03*
X77470000Y-107950000D03*
X77470000Y-110490000D03*
X77470000Y-113030000D03*
%TD*%
D11*
%TO.C,P6*%
X102870000Y-35205000D03*
X102870000Y-137515000D03*
%TD*%
M02*
