M48
; DRILL file {KiCad 7.0.9} date Sat Nov 11 13:47:06 2023
; FORMAT={-:-/ absolute / inch / decimal}
; #@! TF.CreationDate,2023-11-11T13:47:06+01:00
; #@! TF.GenerationSoftware,Kicad,Pcbnew,7.0.9
; #@! TF.FileFunction,MixedPlating,1,2
FMAT,2
INCH
; #@! TA.AperFunction,Plated,PTH,ViaDrill
T1C0.0118
; #@! TA.AperFunction,Plated,PTH,ViaDrill
T2C0.0157
; #@! TA.AperFunction,Plated,PTH,ViaDrill
T3C0.0394
; #@! TA.AperFunction,Plated,PTH,ComponentDrill
T4C0.0394
; #@! TA.AperFunction,Plated,PTH,ComponentDrill
T5C0.0512
; #@! TA.AperFunction,NonPlated,NPTH,ComponentDrill
T6C0.1252
%
G90
G05
T1
X3.1748Y-2.2516
X8.9016Y-5.1035
X8.9614Y-1.763
X8.9614Y-1.9189
X8.9614Y-2.0748
X8.9614Y-2.2307
X8.9614Y-2.3866
X8.9614Y-2.5425
X8.9614Y-2.6984
X8.9614Y-2.8543
X8.9614Y-3.1661
X8.9614Y-3.322
X8.9614Y-3.478
X8.9614Y-3.6346
X8.9614Y-3.7898
X8.9614Y-3.9457
X8.9614Y-4.1016
X8.9614Y-4.2575
X8.9614Y-4.4134
X8.9614Y-4.5693
X8.9614Y-4.8811
X8.9614Y-5.037
T2
X3.1748Y-4.5059
X3.2209Y-2.1906
X3.2209Y-4.5669
X3.278Y-4.7224
X8.7461Y-1.6409
X8.7461Y-1.8409
X8.7461Y-4.1795
X8.7461Y-5.2811
X8.8417Y-1.5764
X8.8417Y-1.9969
X8.8417Y-4.3354
X8.8417Y-5.2201
X8.9614Y-3.0102
T3
X2.8Y-5.05
X3.65Y-5.85
X3.775Y-5.55
X4.25Y-5.7
X4.65Y-5.85
X4.775Y-5.55
X5.25Y-5.7
X5.65Y-5.85
X5.775Y-5.55
X6.25Y-5.7
X6.65Y-5.85
X6.775Y-5.55
X7.25Y-5.7
X7.65Y-5.85
X7.775Y-5.55
X8.25Y-5.7
X8.6Y-4.8
X8.6Y-5.55
X9.2Y-5.2
T4
X2.95Y-2.35
X2.95Y-2.45
X2.95Y-2.55
X2.95Y-2.65
X2.95Y-2.75
X2.95Y-2.85
X2.95Y-2.95
X2.95Y-3.05
X2.95Y-3.15
X2.95Y-3.25
X2.95Y-3.35
X2.95Y-3.45
X2.95Y-3.55
X2.95Y-3.65
X2.95Y-3.75
X2.95Y-3.85
X2.95Y-3.95
X2.95Y-4.05
X2.95Y-4.15
X2.95Y-4.25
X2.95Y-4.35
X2.95Y-4.45
X3.05Y-2.35
X3.05Y-2.45
X3.05Y-2.55
X3.05Y-2.65
X3.05Y-2.75
X3.05Y-2.85
X3.05Y-2.95
X3.05Y-3.05
X3.05Y-3.15
X3.05Y-3.25
X3.05Y-3.35
X3.05Y-3.45
X3.05Y-3.55
X3.05Y-3.65
X3.05Y-3.75
X3.05Y-3.85
X3.05Y-3.95
X3.05Y-4.05
X3.05Y-4.15
X3.05Y-4.25
X3.05Y-4.35
X3.05Y-4.45
X8.35Y-4.65
X8.5Y-4.65
T5
X3.95Y-1.763
X3.95Y-1.9189
X3.95Y-2.0748
X3.95Y-2.2307
X3.95Y-2.3866
X3.95Y-2.5425
X3.95Y-2.6984
X3.95Y-2.8543
X3.95Y-3.0102
X3.95Y-3.1661
X3.95Y-3.322
X3.95Y-3.478
X3.95Y-3.6339
X3.95Y-3.7898
X3.95Y-3.9457
X3.95Y-4.1016
X3.95Y-4.2575
X3.95Y-4.4134
X3.95Y-4.5693
X3.95Y-4.7252
X3.95Y-4.8811
X3.95Y-5.037
X4.15Y-1.763
X4.15Y-1.9189
X4.15Y-2.0748
X4.15Y-2.2307
X4.15Y-2.3866
X4.15Y-2.5425
X4.15Y-2.6984
X4.15Y-2.8543
X4.15Y-3.0102
X4.15Y-3.1661
X4.15Y-3.322
X4.15Y-3.478
X4.15Y-3.6339
X4.15Y-3.7898
X4.15Y-3.9457
X4.15Y-4.1016
X4.15Y-4.2575
X4.15Y-4.4134
X4.15Y-4.5693
X4.15Y-4.7252
X4.15Y-4.8811
X4.15Y-5.037
X4.95Y-1.763
X4.95Y-1.9189
X4.95Y-2.0748
X4.95Y-2.2307
X4.95Y-2.3866
X4.95Y-2.5425
X4.95Y-2.6984
X4.95Y-2.8543
X4.95Y-3.0102
X4.95Y-3.1661
X4.95Y-3.322
X4.95Y-3.478
X4.95Y-3.6339
X4.95Y-3.7898
X4.95Y-3.9457
X4.95Y-4.1016
X4.95Y-4.2575
X4.95Y-4.4134
X4.95Y-4.5693
X4.95Y-4.7252
X4.95Y-4.8811
X4.95Y-5.037
X5.15Y-1.763
X5.15Y-1.9189
X5.15Y-2.0748
X5.15Y-2.2307
X5.15Y-2.3866
X5.15Y-2.5425
X5.15Y-2.6984
X5.15Y-2.8543
X5.15Y-3.0102
X5.15Y-3.1661
X5.15Y-3.322
X5.15Y-3.478
X5.15Y-3.6339
X5.15Y-3.7898
X5.15Y-3.9457
X5.15Y-4.1016
X5.15Y-4.2575
X5.15Y-4.4134
X5.15Y-4.5693
X5.15Y-4.7252
X5.15Y-4.8811
X5.15Y-5.037
X5.95Y-1.763
X5.95Y-1.9189
X5.95Y-2.0748
X5.95Y-2.2307
X5.95Y-2.3866
X5.95Y-2.5425
X5.95Y-2.6984
X5.95Y-2.8543
X5.95Y-3.0102
X5.95Y-3.1661
X5.95Y-3.322
X5.95Y-3.478
X5.95Y-3.6339
X5.95Y-3.7898
X5.95Y-3.9457
X5.95Y-4.1016
X5.95Y-4.2575
X5.95Y-4.4134
X5.95Y-4.5693
X5.95Y-4.7252
X5.95Y-4.8811
X5.95Y-5.037
X6.15Y-1.763
X6.15Y-1.9189
X6.15Y-2.0748
X6.15Y-2.2307
X6.15Y-2.3866
X6.15Y-2.5425
X6.15Y-2.6984
X6.15Y-2.8543
X6.15Y-3.0102
X6.15Y-3.1661
X6.15Y-3.322
X6.15Y-3.478
X6.15Y-3.6339
X6.15Y-3.7898
X6.15Y-3.9457
X6.15Y-4.1016
X6.15Y-4.2575
X6.15Y-4.4134
X6.15Y-4.5693
X6.15Y-4.7252
X6.15Y-4.8811
X6.15Y-5.037
X6.95Y-1.763
X6.95Y-1.9189
X6.95Y-2.0748
X6.95Y-2.2307
X6.95Y-2.3866
X6.95Y-2.5425
X6.95Y-2.6984
X6.95Y-2.8543
X6.95Y-3.0102
X6.95Y-3.1661
X6.95Y-3.322
X6.95Y-3.478
X6.95Y-3.6339
X6.95Y-3.7898
X6.95Y-3.9457
X6.95Y-4.1016
X6.95Y-4.2575
X6.95Y-4.4134
X6.95Y-4.5693
X6.95Y-4.7252
X6.95Y-4.8811
X6.95Y-5.037
X7.15Y-1.763
X7.15Y-1.9189
X7.15Y-2.0748
X7.15Y-2.2307
X7.15Y-2.3866
X7.15Y-2.5425
X7.15Y-2.6984
X7.15Y-2.8543
X7.15Y-3.0102
X7.15Y-3.1661
X7.15Y-3.322
X7.15Y-3.478
X7.15Y-3.6339
X7.15Y-3.7898
X7.15Y-3.9457
X7.15Y-4.1016
X7.15Y-4.2575
X7.15Y-4.4134
X7.15Y-4.5693
X7.15Y-4.7252
X7.15Y-4.8811
X7.15Y-5.037
X7.95Y-1.763
X7.95Y-1.9189
X7.95Y-2.0748
X7.95Y-2.2307
X7.95Y-2.3866
X7.95Y-2.5425
X7.95Y-2.6984
X7.95Y-2.8543
X7.95Y-3.0102
X7.95Y-3.1661
X7.95Y-3.322
X7.95Y-3.478
X7.95Y-3.6339
X7.95Y-3.7898
X7.95Y-3.9457
X7.95Y-4.1016
X7.95Y-4.2575
X7.95Y-4.4134
X7.95Y-4.5693
X7.95Y-4.7252
X7.95Y-4.8811
X7.95Y-5.037
X8.15Y-1.763
X8.15Y-1.9189
X8.15Y-2.0748
X8.15Y-2.2307
X8.15Y-2.3866
X8.15Y-2.5425
X8.15Y-2.6984
X8.15Y-2.8543
X8.15Y-3.0102
X8.15Y-3.1661
X8.15Y-3.322
X8.15Y-3.478
X8.15Y-3.6339
X8.15Y-3.7898
X8.15Y-3.9457
X8.15Y-4.1016
X8.15Y-4.2575
X8.15Y-4.4134
X8.15Y-4.5693
X8.15Y-4.7252
X8.15Y-4.8811
X8.15Y-5.037
X8.4031Y-5.85
X8.6Y-5.85
X8.7969Y-5.85
X8.9937Y-5.85
X9.1906Y-5.85
T6
X4.05Y-1.386
X4.05Y-5.414
X5.05Y-1.386
X5.05Y-5.414
X6.05Y-1.386
X6.05Y-5.414
X7.05Y-1.386
X7.05Y-5.414
X8.05Y-1.386
X8.05Y-5.414
T0
M30
