%TF.GenerationSoftware,KiCad,Pcbnew,7.0.9*%
%TF.CreationDate,2023-11-11T13:47:04+01:00*%
%TF.ProjectId,kim-1-mtu-expansion-card,6b696d2d-312d-46d7-9475-2d657870616e,rev?*%
%TF.SameCoordinates,Original*%
%TF.FileFunction,Copper,L1,Top*%
%TF.FilePolarity,Positive*%
%FSLAX46Y46*%
G04 Gerber Fmt 4.6, Leading zero omitted, Abs format (unit mm)*
G04 Created by KiCad (PCBNEW 7.0.9) date 2023-11-11 13:47:04*
%MOMM*%
%LPD*%
G01*
G04 APERTURE LIST*
G04 Aperture macros list*
%AMFreePoly0*
4,1,22,-1.270000,3.180000,1.270000,3.180000,1.270000,-1.910000,1.254364,-2.108672,1.198732,-2.329454,1.104571,-2.536755,0.974909,-2.723912,0.813912,-2.884909,0.626755,-3.014571,0.419454,-3.108732,0.198672,-3.164364,0.000000,-3.180000,-0.198672,-3.164364,-0.419454,-3.108732,-0.626755,-3.014571,-0.813912,-2.884909,-0.974909,-2.723912,-1.104571,-2.536755,-1.198732,-2.329454,-1.254364,-2.108672,
-1.270000,-1.910000,-1.270000,3.180000,-1.270000,3.180000,$1*%
%AMFreePoly1*
4,1,22,-1.300000,4.445000,1.300000,4.445000,1.300000,-3.145000,1.280250,-3.370743,1.221600,-3.589626,1.125833,-3.795000,0.995858,-3.980624,0.835624,-4.140858,0.650000,-4.270833,0.444626,-4.366600,0.225743,-4.425250,0.000000,-4.445000,-0.225743,-4.425250,-0.444626,-4.366600,-0.650000,-4.270833,-0.835624,-4.140858,-0.995858,-3.980624,-1.125833,-3.795000,-1.221600,-3.589626,-1.280250,-3.370743,
-1.300000,-3.145000,-1.300000,4.445000,-1.300000,4.445000,$1*%
G04 Aperture macros list end*
%TA.AperFunction,ComponentPad*%
%ADD10O,2.000000X2.000000*%
%TD*%
%TA.AperFunction,ComponentPad*%
%ADD11R,2.600000X2.600000*%
%TD*%
%TA.AperFunction,ComponentPad*%
%ADD12C,2.600000*%
%TD*%
%TA.AperFunction,ComponentPad*%
%ADD13C,1.700000*%
%TD*%
%TA.AperFunction,ConnectorPad*%
%ADD14FreePoly0,270.000000*%
%TD*%
%TA.AperFunction,ConnectorPad*%
%ADD15FreePoly1,90.000000*%
%TD*%
%TA.AperFunction,ComponentPad*%
%ADD16R,1.700000X1.700000*%
%TD*%
%TA.AperFunction,ComponentPad*%
%ADD17O,1.700000X1.700000*%
%TD*%
%TA.AperFunction,ViaPad*%
%ADD18C,1.100000*%
%TD*%
%TA.AperFunction,ViaPad*%
%ADD19C,2.000000*%
%TD*%
%TA.AperFunction,Conductor*%
%ADD20C,0.700000*%
%TD*%
%TA.AperFunction,Conductor*%
%ADD21C,0.400000*%
%TD*%
%TA.AperFunction,Conductor*%
%ADD22C,2.000000*%
%TD*%
%TA.AperFunction,Conductor*%
%ADD23C,1.400000*%
%TD*%
G04 APERTURE END LIST*
D10*
%TO.P,P5,1,SYNC*%
%TO.N,/SYNC*%
X125730000Y-44780000D03*
%TO.P,P5,2,PIN_2*%
%TO.N,/PIN_2*%
X125730000Y-48740000D03*
%TO.P,P5,3,PIN_3*%
%TO.N,/PIN_3*%
X125730000Y-52700000D03*
%TO.P,P5,4,~{IRQ}*%
%TO.N,/~{IRQ}*%
X125730000Y-56660000D03*
%TO.P,P5,5,R0*%
%TO.N,/R0*%
X125730000Y-60620000D03*
%TO.P,P5,6,~{NMI}*%
%TO.N,/~{NMI}*%
X125730000Y-64580000D03*
%TO.P,P5,7,~{RES}*%
%TO.N,/~{RES}*%
X125730000Y-68540000D03*
%TO.P,P5,8,D7*%
%TO.N,/D7*%
X125730000Y-72500000D03*
%TO.P,P5,9,D6*%
%TO.N,/D6*%
X125730000Y-76460000D03*
%TO.P,P5,10,D5*%
%TO.N,/D5*%
X125730000Y-80420000D03*
%TO.P,P5,11,D4*%
%TO.N,/D4*%
X125730000Y-84380000D03*
%TO.P,P5,12,D3*%
%TO.N,/D3*%
X125730000Y-88340000D03*
%TO.P,P5,13,D2*%
%TO.N,/D2*%
X125730000Y-92300000D03*
%TO.P,P5,14,D1*%
%TO.N,/D1*%
X125730000Y-96260000D03*
%TO.P,P5,15,D0*%
%TO.N,/D0*%
X125730000Y-100220000D03*
%TO.P,P5,16,PIN_16*%
%TO.N,/PIN_16*%
X125730000Y-104180000D03*
%TO.P,P5,17,PIN_17*%
%TO.N,/PIN_17*%
X125730000Y-108140000D03*
%TO.P,P5,18,+7.5V_RAW*%
%TO.N,+7.5V_RAW*%
X125730000Y-112100000D03*
%TO.P,P5,19,~{VECTOR_FETCH}*%
%TO.N,/~{VECTOR_FETCH}*%
X125730000Y-116060000D03*
%TO.P,P5,20,~{DECODE_ENABLE}*%
%TO.N,/~{DECODE_ENABLE}*%
X125730000Y-120020000D03*
%TO.P,P5,21,+5V*%
%TO.N,+5V*%
X125730000Y-123980000D03*
%TO.P,P5,22,GND*%
%TO.N,GND*%
X125730000Y-127940000D03*
%TO.P,P5,A,A0*%
%TO.N,/A0*%
X130810000Y-44780000D03*
%TO.P,P5,B,A1*%
%TO.N,/A1*%
X130810000Y-48740000D03*
%TO.P,P5,C,A2*%
%TO.N,/A2*%
X130810000Y-52700000D03*
%TO.P,P5,D,A3*%
%TO.N,/A3*%
X130810000Y-56660000D03*
%TO.P,P5,E,A4*%
%TO.N,/A4*%
X130810000Y-60620000D03*
%TO.P,P5,F,A5*%
%TO.N,/A5*%
X130810000Y-64580000D03*
%TO.P,P5,H,A6*%
%TO.N,/A6*%
X130810000Y-68540000D03*
%TO.P,P5,J,A7*%
%TO.N,/A7*%
X130810000Y-72500000D03*
%TO.P,P5,K,A8*%
%TO.N,/A8*%
X130810000Y-76460000D03*
%TO.P,P5,L,A9*%
%TO.N,/A9*%
X130810000Y-80420000D03*
%TO.P,P5,M,A10*%
%TO.N,/A10*%
X130810000Y-84380000D03*
%TO.P,P5,N,A11*%
%TO.N,/A11*%
X130810000Y-88340000D03*
%TO.P,P5,P,A12*%
%TO.N,/A12*%
X130810000Y-92300000D03*
%TO.P,P5,R,A13*%
%TO.N,/A13*%
X130810000Y-96260000D03*
%TO.P,P5,S,A14*%
%TO.N,/A14*%
X130810000Y-100220000D03*
%TO.P,P5,T,A15*%
%TO.N,/A15*%
X130810000Y-104180000D03*
%TO.P,P5,U,\u00D82*%
%TO.N,/\u00D82*%
X130810000Y-108140000D03*
%TO.P,P5,V,R/~{W}*%
%TO.N,/R{slash}~{W}*%
X130810000Y-112100000D03*
%TO.P,P5,W,~{R}/W*%
%TO.N,/~{R}{slash}W*%
X130810000Y-116060000D03*
%TO.P,P5,X,+16V_RAW*%
%TO.N,+16V_RAW*%
X130810000Y-120020000D03*
%TO.P,P5,Y,~{\u00D82}*%
%TO.N,/~{\u00D82}*%
X130810000Y-123980000D03*
%TO.P,P5,Z,RAMRW*%
%TO.N,/RAMRW*%
X130810000Y-127940000D03*
%TD*%
%TO.P,P4,1,SYNC*%
%TO.N,/SYNC*%
X151130000Y-44780000D03*
%TO.P,P4,2,PIN_2*%
%TO.N,/PIN_2*%
X151130000Y-48740000D03*
%TO.P,P4,3,PIN_3*%
%TO.N,/PIN_3*%
X151130000Y-52700000D03*
%TO.P,P4,4,~{IRQ}*%
%TO.N,/~{IRQ}*%
X151130000Y-56660000D03*
%TO.P,P4,5,R0*%
%TO.N,/R0*%
X151130000Y-60620000D03*
%TO.P,P4,6,~{NMI}*%
%TO.N,/~{NMI}*%
X151130000Y-64580000D03*
%TO.P,P4,7,~{RES}*%
%TO.N,/~{RES}*%
X151130000Y-68540000D03*
%TO.P,P4,8,D7*%
%TO.N,/D7*%
X151130000Y-72500000D03*
%TO.P,P4,9,D6*%
%TO.N,/D6*%
X151130000Y-76460000D03*
%TO.P,P4,10,D5*%
%TO.N,/D5*%
X151130000Y-80420000D03*
%TO.P,P4,11,D4*%
%TO.N,/D4*%
X151130000Y-84380000D03*
%TO.P,P4,12,D3*%
%TO.N,/D3*%
X151130000Y-88340000D03*
%TO.P,P4,13,D2*%
%TO.N,/D2*%
X151130000Y-92300000D03*
%TO.P,P4,14,D1*%
%TO.N,/D1*%
X151130000Y-96260000D03*
%TO.P,P4,15,D0*%
%TO.N,/D0*%
X151130000Y-100220000D03*
%TO.P,P4,16,PIN_16*%
%TO.N,/PIN_16*%
X151130000Y-104180000D03*
%TO.P,P4,17,PIN_17*%
%TO.N,/PIN_17*%
X151130000Y-108140000D03*
%TO.P,P4,18,+7.5V_RAW*%
%TO.N,+7.5V_RAW*%
X151130000Y-112100000D03*
%TO.P,P4,19,~{VECTOR_FETCH}*%
%TO.N,/~{VECTOR_FETCH}*%
X151130000Y-116060000D03*
%TO.P,P4,20,~{DECODE_ENABLE}*%
%TO.N,/~{DECODE_ENABLE}*%
X151130000Y-120020000D03*
%TO.P,P4,21,+5V*%
%TO.N,+5V*%
X151130000Y-123980000D03*
%TO.P,P4,22,GND*%
%TO.N,GND*%
X151130000Y-127940000D03*
%TO.P,P4,A,A0*%
%TO.N,/A0*%
X156210000Y-44780000D03*
%TO.P,P4,B,A1*%
%TO.N,/A1*%
X156210000Y-48740000D03*
%TO.P,P4,C,A2*%
%TO.N,/A2*%
X156210000Y-52700000D03*
%TO.P,P4,D,A3*%
%TO.N,/A3*%
X156210000Y-56660000D03*
%TO.P,P4,E,A4*%
%TO.N,/A4*%
X156210000Y-60620000D03*
%TO.P,P4,F,A5*%
%TO.N,/A5*%
X156210000Y-64580000D03*
%TO.P,P4,H,A6*%
%TO.N,/A6*%
X156210000Y-68540000D03*
%TO.P,P4,J,A7*%
%TO.N,/A7*%
X156210000Y-72500000D03*
%TO.P,P4,K,A8*%
%TO.N,/A8*%
X156210000Y-76460000D03*
%TO.P,P4,L,A9*%
%TO.N,/A9*%
X156210000Y-80420000D03*
%TO.P,P4,M,A10*%
%TO.N,/A10*%
X156210000Y-84380000D03*
%TO.P,P4,N,A11*%
%TO.N,/A11*%
X156210000Y-88340000D03*
%TO.P,P4,P,A12*%
%TO.N,/A12*%
X156210000Y-92300000D03*
%TO.P,P4,R,A13*%
%TO.N,/A13*%
X156210000Y-96260000D03*
%TO.P,P4,S,A14*%
%TO.N,/A14*%
X156210000Y-100220000D03*
%TO.P,P4,T,A15*%
%TO.N,/A15*%
X156210000Y-104180000D03*
%TO.P,P4,U,\u00D82*%
%TO.N,/\u00D82*%
X156210000Y-108140000D03*
%TO.P,P4,V,R/~{W}*%
%TO.N,/R{slash}~{W}*%
X156210000Y-112100000D03*
%TO.P,P4,W,~{R}/W*%
%TO.N,/~{R}{slash}W*%
X156210000Y-116060000D03*
%TO.P,P4,X,+16V_RAW*%
%TO.N,+16V_RAW*%
X156210000Y-120020000D03*
%TO.P,P4,Y,~{\u00D82}*%
%TO.N,/~{\u00D82}*%
X156210000Y-123980000D03*
%TO.P,P4,Z,RAMRW*%
%TO.N,/RAMRW*%
X156210000Y-127940000D03*
%TD*%
%TO.P,P2,1,SYNC*%
%TO.N,/SYNC*%
X201930000Y-44780000D03*
%TO.P,P2,2,PIN_2*%
%TO.N,/PIN_2*%
X201930000Y-48740000D03*
%TO.P,P2,3,PIN_3*%
%TO.N,/PIN_3*%
X201930000Y-52700000D03*
%TO.P,P2,4,~{IRQ}*%
%TO.N,/~{IRQ}*%
X201930000Y-56660000D03*
%TO.P,P2,5,R0*%
%TO.N,/R0*%
X201930000Y-60620000D03*
%TO.P,P2,6,~{NMI}*%
%TO.N,/~{NMI}*%
X201930000Y-64580000D03*
%TO.P,P2,7,~{RES}*%
%TO.N,/~{RES}*%
X201930000Y-68540000D03*
%TO.P,P2,8,D7*%
%TO.N,/D7*%
X201930000Y-72500000D03*
%TO.P,P2,9,D6*%
%TO.N,/D6*%
X201930000Y-76460000D03*
%TO.P,P2,10,D5*%
%TO.N,/D5*%
X201930000Y-80420000D03*
%TO.P,P2,11,D4*%
%TO.N,/D4*%
X201930000Y-84380000D03*
%TO.P,P2,12,D3*%
%TO.N,/D3*%
X201930000Y-88340000D03*
%TO.P,P2,13,D2*%
%TO.N,/D2*%
X201930000Y-92300000D03*
%TO.P,P2,14,D1*%
%TO.N,/D1*%
X201930000Y-96260000D03*
%TO.P,P2,15,D0*%
%TO.N,/D0*%
X201930000Y-100220000D03*
%TO.P,P2,16,PIN_16*%
%TO.N,/PIN_16*%
X201930000Y-104180000D03*
%TO.P,P2,17,PIN_17*%
%TO.N,/PIN_17*%
X201930000Y-108140000D03*
%TO.P,P2,18,+7.5V_RAW*%
%TO.N,+7.5V_RAW*%
X201930000Y-112100000D03*
%TO.P,P2,19,~{VECTOR_FETCH}*%
%TO.N,/~{VECTOR_FETCH}*%
X201930000Y-116060000D03*
%TO.P,P2,20,~{DECODE_ENABLE}*%
%TO.N,/~{DECODE_ENABLE}*%
X201930000Y-120020000D03*
%TO.P,P2,21,+5V*%
%TO.N,+5V*%
X201930000Y-123980000D03*
%TO.P,P2,22,GND*%
%TO.N,GND*%
X201930000Y-127940000D03*
%TO.P,P2,A,A0*%
%TO.N,/A0*%
X207010000Y-44780000D03*
%TO.P,P2,B,A1*%
%TO.N,/A1*%
X207010000Y-48740000D03*
%TO.P,P2,C,A2*%
%TO.N,/A2*%
X207010000Y-52700000D03*
%TO.P,P2,D,A3*%
%TO.N,/A3*%
X207010000Y-56660000D03*
%TO.P,P2,E,A4*%
%TO.N,/A4*%
X207010000Y-60620000D03*
%TO.P,P2,F,A5*%
%TO.N,/A5*%
X207010000Y-64580000D03*
%TO.P,P2,H,A6*%
%TO.N,/A6*%
X207010000Y-68540000D03*
%TO.P,P2,J,A7*%
%TO.N,/A7*%
X207010000Y-72500000D03*
%TO.P,P2,K,A8*%
%TO.N,/A8*%
X207010000Y-76460000D03*
%TO.P,P2,L,A9*%
%TO.N,/A9*%
X207010000Y-80420000D03*
%TO.P,P2,M,A10*%
%TO.N,/A10*%
X207010000Y-84380000D03*
%TO.P,P2,N,A11*%
%TO.N,/A11*%
X207010000Y-88340000D03*
%TO.P,P2,P,A12*%
%TO.N,/A12*%
X207010000Y-92300000D03*
%TO.P,P2,R,A13*%
%TO.N,/A13*%
X207010000Y-96260000D03*
%TO.P,P2,S,A14*%
%TO.N,/A14*%
X207010000Y-100220000D03*
%TO.P,P2,T,A15*%
%TO.N,/A15*%
X207010000Y-104180000D03*
%TO.P,P2,U,\u00D82*%
%TO.N,/\u00D82*%
X207010000Y-108140000D03*
%TO.P,P2,V,R/~{W}*%
%TO.N,/R{slash}~{W}*%
X207010000Y-112100000D03*
%TO.P,P2,W,~{R}/W*%
%TO.N,/~{R}{slash}W*%
X207010000Y-116060000D03*
%TO.P,P2,X,+16V_RAW*%
%TO.N,+16V_RAW*%
X207010000Y-120020000D03*
%TO.P,P2,Y,~{\u00D82}*%
%TO.N,/~{\u00D82}*%
X207010000Y-123980000D03*
%TO.P,P2,Z,RAMRW*%
%TO.N,/RAMRW*%
X207010000Y-127940000D03*
%TD*%
%TO.P,P3,1,SYNC*%
%TO.N,/SYNC*%
X176530000Y-44780000D03*
%TO.P,P3,2,PIN_2*%
%TO.N,/PIN_2*%
X176530000Y-48740000D03*
%TO.P,P3,3,PIN_3*%
%TO.N,/PIN_3*%
X176530000Y-52700000D03*
%TO.P,P3,4,~{IRQ}*%
%TO.N,/~{IRQ}*%
X176530000Y-56660000D03*
%TO.P,P3,5,R0*%
%TO.N,/R0*%
X176530000Y-60620000D03*
%TO.P,P3,6,~{NMI}*%
%TO.N,/~{NMI}*%
X176530000Y-64580000D03*
%TO.P,P3,7,~{RES}*%
%TO.N,/~{RES}*%
X176530000Y-68540000D03*
%TO.P,P3,8,D7*%
%TO.N,/D7*%
X176530000Y-72500000D03*
%TO.P,P3,9,D6*%
%TO.N,/D6*%
X176530000Y-76460000D03*
%TO.P,P3,10,D5*%
%TO.N,/D5*%
X176530000Y-80420000D03*
%TO.P,P3,11,D4*%
%TO.N,/D4*%
X176530000Y-84380000D03*
%TO.P,P3,12,D3*%
%TO.N,/D3*%
X176530000Y-88340000D03*
%TO.P,P3,13,D2*%
%TO.N,/D2*%
X176530000Y-92300000D03*
%TO.P,P3,14,D1*%
%TO.N,/D1*%
X176530000Y-96260000D03*
%TO.P,P3,15,D0*%
%TO.N,/D0*%
X176530000Y-100220000D03*
%TO.P,P3,16,PIN_16*%
%TO.N,/PIN_16*%
X176530000Y-104180000D03*
%TO.P,P3,17,PIN_17*%
%TO.N,/PIN_17*%
X176530000Y-108140000D03*
%TO.P,P3,18,+7.5V_RAW*%
%TO.N,+7.5V_RAW*%
X176530000Y-112100000D03*
%TO.P,P3,19,~{VECTOR_FETCH}*%
%TO.N,/~{VECTOR_FETCH}*%
X176530000Y-116060000D03*
%TO.P,P3,20,~{DECODE_ENABLE}*%
%TO.N,/~{DECODE_ENABLE}*%
X176530000Y-120020000D03*
%TO.P,P3,21,+5V*%
%TO.N,+5V*%
X176530000Y-123980000D03*
%TO.P,P3,22,GND*%
%TO.N,GND*%
X176530000Y-127940000D03*
%TO.P,P3,A,A0*%
%TO.N,/A0*%
X181610000Y-44780000D03*
%TO.P,P3,B,A1*%
%TO.N,/A1*%
X181610000Y-48740000D03*
%TO.P,P3,C,A2*%
%TO.N,/A2*%
X181610000Y-52700000D03*
%TO.P,P3,D,A3*%
%TO.N,/A3*%
X181610000Y-56660000D03*
%TO.P,P3,E,A4*%
%TO.N,/A4*%
X181610000Y-60620000D03*
%TO.P,P3,F,A5*%
%TO.N,/A5*%
X181610000Y-64580000D03*
%TO.P,P3,H,A6*%
%TO.N,/A6*%
X181610000Y-68540000D03*
%TO.P,P3,J,A7*%
%TO.N,/A7*%
X181610000Y-72500000D03*
%TO.P,P3,K,A8*%
%TO.N,/A8*%
X181610000Y-76460000D03*
%TO.P,P3,L,A9*%
%TO.N,/A9*%
X181610000Y-80420000D03*
%TO.P,P3,M,A10*%
%TO.N,/A10*%
X181610000Y-84380000D03*
%TO.P,P3,N,A11*%
%TO.N,/A11*%
X181610000Y-88340000D03*
%TO.P,P3,P,A12*%
%TO.N,/A12*%
X181610000Y-92300000D03*
%TO.P,P3,R,A13*%
%TO.N,/A13*%
X181610000Y-96260000D03*
%TO.P,P3,S,A14*%
%TO.N,/A14*%
X181610000Y-100220000D03*
%TO.P,P3,T,A15*%
%TO.N,/A15*%
X181610000Y-104180000D03*
%TO.P,P3,U,\u00D82*%
%TO.N,/\u00D82*%
X181610000Y-108140000D03*
%TO.P,P3,V,R/~{W}*%
%TO.N,/R{slash}~{W}*%
X181610000Y-112100000D03*
%TO.P,P3,W,~{R}/W*%
%TO.N,/~{R}{slash}W*%
X181610000Y-116060000D03*
%TO.P,P3,X,+16V_RAW*%
%TO.N,+16V_RAW*%
X181610000Y-120020000D03*
%TO.P,P3,Y,~{\u00D82}*%
%TO.N,/~{\u00D82}*%
X181610000Y-123980000D03*
%TO.P,P3,Z,RAMRW*%
%TO.N,/RAMRW*%
X181610000Y-127940000D03*
%TD*%
%TO.P,P6,1,SYNC*%
%TO.N,/SYNC*%
X100330000Y-44780000D03*
%TO.P,P6,2,PIN_2*%
%TO.N,/PIN_2*%
X100330000Y-48740000D03*
%TO.P,P6,3,PIN_3*%
%TO.N,/PIN_3*%
X100330000Y-52700000D03*
%TO.P,P6,4,~{IRQ}*%
%TO.N,/~{IRQ}*%
X100330000Y-56660000D03*
%TO.P,P6,5,R0*%
%TO.N,/R0*%
X100330000Y-60620000D03*
%TO.P,P6,6,~{NMI}*%
%TO.N,/~{NMI}*%
X100330000Y-64580000D03*
%TO.P,P6,7,~{RES}*%
%TO.N,/~{RES}*%
X100330000Y-68540000D03*
%TO.P,P6,8,D7*%
%TO.N,/D7*%
X100330000Y-72500000D03*
%TO.P,P6,9,D6*%
%TO.N,/D6*%
X100330000Y-76460000D03*
%TO.P,P6,10,D5*%
%TO.N,/D5*%
X100330000Y-80420000D03*
%TO.P,P6,11,D4*%
%TO.N,/D4*%
X100330000Y-84380000D03*
%TO.P,P6,12,D3*%
%TO.N,/D3*%
X100330000Y-88340000D03*
%TO.P,P6,13,D2*%
%TO.N,/D2*%
X100330000Y-92300000D03*
%TO.P,P6,14,D1*%
%TO.N,/D1*%
X100330000Y-96260000D03*
%TO.P,P6,15,D0*%
%TO.N,/D0*%
X100330000Y-100220000D03*
%TO.P,P6,16,PIN_16*%
%TO.N,/PIN_16*%
X100330000Y-104180000D03*
%TO.P,P6,17,PIN_17*%
%TO.N,/PIN_17*%
X100330000Y-108140000D03*
%TO.P,P6,18,+7.5V_RAW*%
%TO.N,+7.5V_RAW*%
X100330000Y-112100000D03*
%TO.P,P6,19,~{VECTOR_FETCH}*%
%TO.N,/~{VECTOR_FETCH}*%
X100330000Y-116060000D03*
%TO.P,P6,20,~{DECODE_ENABLE}*%
%TO.N,/~{DECODE_ENABLE}*%
X100330000Y-120020000D03*
%TO.P,P6,21,+5V*%
%TO.N,+5V*%
X100330000Y-123980000D03*
%TO.P,P6,22,GND*%
%TO.N,GND*%
X100330000Y-127940000D03*
%TO.P,P6,A,A0*%
%TO.N,/A0*%
X105410000Y-44780000D03*
%TO.P,P6,B,A1*%
%TO.N,/A1*%
X105410000Y-48740000D03*
%TO.P,P6,C,A2*%
%TO.N,/A2*%
X105410000Y-52700000D03*
%TO.P,P6,D,A3*%
%TO.N,/A3*%
X105410000Y-56660000D03*
%TO.P,P6,E,A4*%
%TO.N,/A4*%
X105410000Y-60620000D03*
%TO.P,P6,F,A5*%
%TO.N,/A5*%
X105410000Y-64580000D03*
%TO.P,P6,H,A6*%
%TO.N,/A6*%
X105410000Y-68540000D03*
%TO.P,P6,J,A7*%
%TO.N,/A7*%
X105410000Y-72500000D03*
%TO.P,P6,K,A8*%
%TO.N,/A8*%
X105410000Y-76460000D03*
%TO.P,P6,L,A9*%
%TO.N,/A9*%
X105410000Y-80420000D03*
%TO.P,P6,M,A10*%
%TO.N,/A10*%
X105410000Y-84380000D03*
%TO.P,P6,N,A11*%
%TO.N,/A11*%
X105410000Y-88340000D03*
%TO.P,P6,P,A12*%
%TO.N,/A12*%
X105410000Y-92300000D03*
%TO.P,P6,R,A13*%
%TO.N,/A13*%
X105410000Y-96260000D03*
%TO.P,P6,S,A14*%
%TO.N,/A14*%
X105410000Y-100220000D03*
%TO.P,P6,T,A15*%
%TO.N,/A15*%
X105410000Y-104180000D03*
%TO.P,P6,U,\u00D82*%
%TO.N,/\u00D82*%
X105410000Y-108140000D03*
%TO.P,P6,V,R/~{W}*%
%TO.N,/R{slash}~{W}*%
X105410000Y-112100000D03*
%TO.P,P6,W,~{R}/W*%
%TO.N,/~{R}{slash}W*%
X105410000Y-116060000D03*
%TO.P,P6,X,+16V_RAW*%
%TO.N,+16V_RAW*%
X105410000Y-120020000D03*
%TO.P,P6,Y,~{\u00D82}*%
%TO.N,/~{\u00D82}*%
X105410000Y-123980000D03*
%TO.P,P6,Z,RAMRW*%
%TO.N,/RAMRW*%
X105410000Y-127940000D03*
%TD*%
D11*
%TO.P,J2,1,Pin_1*%
%TO.N,+7.5V_RAW*%
X213440000Y-148590000D03*
D12*
%TO.P,J2,2,Pin_2*%
%TO.N,+16V_RAW*%
X218440000Y-148590000D03*
%TO.P,J2,3,Pin_3*%
%TO.N,GND*%
X223440000Y-148590000D03*
%TO.P,J2,4,Pin_4*%
%TO.N,+5V*%
X228440000Y-148590000D03*
%TO.P,J2,5,Pin_5*%
%TO.N,+12V*%
X233440000Y-148590000D03*
%TD*%
D13*
%TO.P,J3,1,Pin_1*%
%TO.N,/~{VECTOR_FETCH}*%
X215900000Y-118110000D03*
%TD*%
%TO.P,J4,1,Pin_1*%
%TO.N,/~{DECODE_ENABLE}*%
X212090000Y-118110000D03*
%TD*%
D14*
%TO.P,P1,1,SYNC*%
%TO.N,/SYNC*%
X233680000Y-44780000D03*
%TO.P,P1,2,~{RDY}*%
%TO.N,/~{RDY}*%
X233680000Y-48740000D03*
%TO.P,P1,3,\u00D81*%
%TO.N,/\u00D81*%
X233680000Y-52700000D03*
%TO.P,P1,4,~{IRQ}*%
%TO.N,/~{IRQ}*%
X233680000Y-56660000D03*
%TO.P,P1,5,R0*%
%TO.N,/R0*%
X233680000Y-60620000D03*
%TO.P,P1,6,~{NMI}*%
%TO.N,/~{NMI}*%
X233680000Y-64580000D03*
%TO.P,P1,7,~{RES}*%
%TO.N,/~{RES}*%
X233680000Y-68540000D03*
%TO.P,P1,8,D7*%
%TO.N,/D7*%
X233680000Y-72500000D03*
%TO.P,P1,9,D6*%
%TO.N,/D6*%
X233680000Y-76460000D03*
%TO.P,P1,10,D5*%
%TO.N,/D5*%
X233680000Y-80420000D03*
%TO.P,P1,11,D4*%
%TO.N,/D4*%
X233680000Y-84380000D03*
%TO.P,P1,12,D3*%
%TO.N,/D3*%
X233680000Y-88340000D03*
%TO.P,P1,13,D2*%
%TO.N,/D2*%
X233680000Y-92300000D03*
%TO.P,P1,14,D1*%
%TO.N,/D1*%
X233680000Y-96260000D03*
%TO.P,P1,15,D0*%
%TO.N,/D0*%
X233680000Y-100220000D03*
%TO.P,P1,16,K6*%
%TO.N,/K6*%
X233680000Y-104180000D03*
%TO.P,P1,17,SST*%
%TO.N,/SST*%
X233680000Y-108140000D03*
%TO.P,P1,18,N.C.*%
%TO.N,unconnected-(P1-N.C.-Pad18)*%
X233680000Y-112100000D03*
%TO.P,P1,19,N.C.*%
%TO.N,unconnected-(P1-N.C.-Pad19)*%
X233680000Y-116060000D03*
%TO.P,P1,20,N.C.*%
%TO.N,unconnected-(P1-N.C.-Pad20)*%
X233680000Y-120020000D03*
%TO.P,P1,21,+5V*%
%TO.N,+5V*%
X233680000Y-123980000D03*
%TO.P,P1,22,GND*%
%TO.N,GND*%
X233680000Y-127940000D03*
%TD*%
D15*
%TO.P,P7,1,SYNC*%
%TO.N,/SYNC*%
X63500000Y-44780000D03*
%TO.P,P7,2,~{RDY}*%
%TO.N,/~{RDY}*%
X63500000Y-48740000D03*
%TO.P,P7,3,\u00D81*%
%TO.N,/\u00D81*%
X63500000Y-52700000D03*
%TO.P,P7,4,~{IRQ}*%
%TO.N,/~{IRQ}*%
X63500000Y-56660000D03*
%TO.P,P7,5,R0*%
%TO.N,/R0*%
X63500000Y-60620000D03*
%TO.P,P7,6,~{NMI}*%
%TO.N,/~{NMI}*%
X63500000Y-64580000D03*
%TO.P,P7,7,~{RES}*%
%TO.N,/~{RES}*%
X63500000Y-68540000D03*
%TO.P,P7,8,D7*%
%TO.N,/D7*%
X63500000Y-72500000D03*
%TO.P,P7,9,D6*%
%TO.N,/D6*%
X63500000Y-76460000D03*
%TO.P,P7,10,D5*%
%TO.N,/D5*%
X63500000Y-80420000D03*
%TO.P,P7,11,D4*%
%TO.N,/D4*%
X63500000Y-84380000D03*
%TO.P,P7,12,D3*%
%TO.N,/D3*%
X63500000Y-88340000D03*
%TO.P,P7,13,D2*%
%TO.N,/D2*%
X63500000Y-92300000D03*
%TO.P,P7,14,D1*%
%TO.N,/D1*%
X63500000Y-96260000D03*
%TO.P,P7,15,D0*%
%TO.N,/D0*%
X63500000Y-100220000D03*
%TO.P,P7,16,K6*%
%TO.N,/K6*%
X63500000Y-104180000D03*
%TO.P,P7,17,SST*%
%TO.N,/SST*%
X63500000Y-108140000D03*
%TO.P,P7,18,N.C.*%
%TO.N,unconnected-(P7-N.C.-Pad18)*%
X63500000Y-112100000D03*
%TO.P,P7,19,N.C.*%
%TO.N,unconnected-(P7-N.C.-Pad19)*%
X63500000Y-116060000D03*
%TO.P,P7,20,N.C.*%
%TO.N,unconnected-(P7-N.C.-Pad20)*%
X63500000Y-120020000D03*
%TO.P,P7,21,+5V*%
%TO.N,+5V*%
X63500000Y-123980000D03*
%TO.P,P7,22,GND*%
%TO.N,GND*%
X63500000Y-127940000D03*
%TD*%
D16*
%TO.P,J1,1,Pin_1*%
%TO.N,/SYNC*%
X74930000Y-59690000D03*
D17*
%TO.P,J1,2,Pin_2*%
%TO.N,/~{RDY}*%
X74930000Y-62230000D03*
%TO.P,J1,3,Pin_3*%
%TO.N,/\u00D81*%
X74930000Y-64770000D03*
%TO.P,J1,4,Pin_4*%
%TO.N,/~{IRQ}*%
X74930000Y-67310000D03*
%TO.P,J1,5,Pin_5*%
%TO.N,/R0*%
X74930000Y-69850000D03*
%TO.P,J1,6,Pin_6*%
%TO.N,/~{NMI}*%
X74930000Y-72390000D03*
%TO.P,J1,7,Pin_7*%
%TO.N,/~{RES}*%
X74930000Y-74930000D03*
%TO.P,J1,8,Pin_8*%
%TO.N,/D7*%
X74930000Y-77470000D03*
%TO.P,J1,9,Pin_9*%
%TO.N,/D6*%
X74930000Y-80010000D03*
%TO.P,J1,10,Pin_10*%
%TO.N,/D5*%
X74930000Y-82550000D03*
%TO.P,J1,11,Pin_11*%
%TO.N,/D4*%
X74930000Y-85090000D03*
%TO.P,J1,12,Pin_12*%
%TO.N,/D3*%
X74930000Y-87630000D03*
%TO.P,J1,13,Pin_13*%
%TO.N,/D2*%
X74930000Y-90170000D03*
%TO.P,J1,14,Pin_14*%
%TO.N,/D1*%
X74930000Y-92710000D03*
%TO.P,J1,15,Pin_15*%
%TO.N,/D0*%
X74930000Y-95250000D03*
%TO.P,J1,16,Pin_16*%
%TO.N,/K6*%
X74930000Y-97790000D03*
%TO.P,J1,17,Pin_17*%
%TO.N,/SST*%
X74930000Y-100330000D03*
%TO.P,J1,18,Pin_18*%
%TO.N,unconnected-(J1-Pin_18-Pad18)*%
X74930000Y-102870000D03*
%TO.P,J1,19,Pin_19*%
%TO.N,unconnected-(J1-Pin_19-Pad19)*%
X74930000Y-105410000D03*
%TO.P,J1,20,Pin_20*%
%TO.N,unconnected-(J1-Pin_20-Pad20)*%
X74930000Y-107950000D03*
%TO.P,J1,21,Pin_21*%
%TO.N,+5V*%
X74930000Y-110490000D03*
%TO.P,J1,22,Pin_22*%
%TO.N,GND*%
X74930000Y-113030000D03*
%TO.P,J1,A,Pin_A*%
%TO.N,/A0*%
X77470000Y-59690000D03*
%TO.P,J1,B,Pin_B*%
%TO.N,/A1*%
X77470000Y-62230000D03*
%TO.P,J1,C,Pin_C*%
%TO.N,/A2*%
X77470000Y-64770000D03*
%TO.P,J1,D,Pin_D*%
%TO.N,/A3*%
X77470000Y-67310000D03*
%TO.P,J1,E,Pin_E*%
%TO.N,/A4*%
X77470000Y-69850000D03*
%TO.P,J1,F,Pin_F*%
%TO.N,/A5*%
X77470000Y-72390000D03*
%TO.P,J1,H,Pin_H*%
%TO.N,/A6*%
X77470000Y-74930000D03*
%TO.P,J1,J,Pin_J*%
%TO.N,/A7*%
X77470000Y-77470000D03*
%TO.P,J1,K,Pin_K*%
%TO.N,/A8*%
X77470000Y-80010000D03*
%TO.P,J1,L,Pin_L*%
%TO.N,/A9*%
X77470000Y-82550000D03*
%TO.P,J1,M,Pin_M*%
%TO.N,/A10*%
X77470000Y-85090000D03*
%TO.P,J1,N,Pin_N*%
%TO.N,/A11*%
X77470000Y-87630000D03*
%TO.P,J1,P,Pin_P*%
%TO.N,/A12*%
X77470000Y-90170000D03*
%TO.P,J1,R,Pin_R*%
%TO.N,/A13*%
X77470000Y-92710000D03*
%TO.P,J1,S,Pin_S*%
%TO.N,/A14*%
X77470000Y-95250000D03*
%TO.P,J1,T,Pin_T*%
%TO.N,/A15*%
X77470000Y-97790000D03*
%TO.P,J1,U,Pin_U*%
%TO.N,/\u00D82*%
X77470000Y-100330000D03*
%TO.P,J1,V,Pin_V*%
%TO.N,/R{slash}~{W}*%
X77470000Y-102870000D03*
%TO.P,J1,W,Pin_W*%
%TO.N,/~{R}{slash}W*%
X77470000Y-105410000D03*
%TO.P,J1,X,Pin_X*%
%TO.N,/PLL*%
X77470000Y-107950000D03*
%TO.P,J1,Y,Pin_Y*%
%TO.N,/~{\u00D82}*%
X77470000Y-110490000D03*
%TO.P,J1,Z,Pin_Z*%
%TO.N,/RAMRW*%
X77470000Y-113030000D03*
%TD*%
D18*
%TO.N,/~{RDY}*%
X222150000Y-41680000D03*
X80640000Y-57190000D03*
X222150000Y-46760000D03*
%TO.N,/\u00D81*%
X81810000Y-55640000D03*
X224580000Y-40040000D03*
X224580000Y-50720000D03*
%TO.N,/K6*%
X83260000Y-119950000D03*
X222150000Y-134140000D03*
X222150000Y-106160000D03*
%TO.N,/SST*%
X81810000Y-116000000D03*
X224580000Y-132590000D03*
X224580000Y-110120000D03*
D19*
%TO.N,+5V*%
X95885000Y-140970000D03*
X218440000Y-121920000D03*
X146685000Y-140970000D03*
X197485000Y-140970000D03*
X172085000Y-140970000D03*
X121285000Y-140970000D03*
X218440000Y-140970000D03*
%TO.N,GND*%
X233680000Y-132080000D03*
X71120000Y-128270000D03*
%TO.N,+16V_RAW*%
X209550000Y-144780000D03*
X184150000Y-144780000D03*
X158750000Y-144780000D03*
X107950000Y-144780000D03*
X133350000Y-144780000D03*
%TO.N,+7.5V_RAW*%
X194310000Y-148590000D03*
X143510000Y-148590000D03*
X92710000Y-148590000D03*
X168910000Y-148590000D03*
X118110000Y-148590000D03*
D18*
%TO.N,/A0*%
X227620000Y-44780000D03*
%TO.N,/A1*%
X227620000Y-48740000D03*
%TO.N,/A2*%
X227620000Y-52700000D03*
%TO.N,/A3*%
X227620000Y-56660000D03*
%TO.N,/A4*%
X227620000Y-60620000D03*
%TO.N,/A5*%
X227620000Y-64580000D03*
%TO.N,/A6*%
X227620000Y-68540000D03*
%TO.N,/A7*%
X227620000Y-72500000D03*
%TO.N,/A8*%
X227620000Y-76460000D03*
%TO.N,/A9*%
X227620000Y-80420000D03*
%TO.N,/A10*%
X227620000Y-84380000D03*
%TO.N,/A11*%
X227620000Y-88340000D03*
%TO.N,/A12*%
X227620000Y-92320000D03*
%TO.N,/A13*%
X227620000Y-96260000D03*
%TO.N,/A14*%
X227620000Y-100220000D03*
%TO.N,/A15*%
X227620000Y-104180000D03*
%TO.N,/\u00D82*%
X227620000Y-108140000D03*
%TO.N,/R{slash}~{W}*%
X227620000Y-112100000D03*
%TO.N,/~{R}{slash}W*%
X227620000Y-116060000D03*
%TO.N,/PLL*%
X80640000Y-114450000D03*
X226100000Y-129630000D03*
%TO.N,/~{\u00D82}*%
X227620000Y-123980000D03*
%TO.N,/RAMRW*%
X227620000Y-127940000D03*
%TD*%
D20*
%TO.N,/SYNC*%
X201930000Y-44780000D02*
X200672893Y-43522893D01*
D21*
X74637107Y-51472107D02*
X68237893Y-45072893D01*
X67530786Y-44780000D02*
X63500000Y-44780000D01*
D20*
X152387107Y-43522893D02*
X151130000Y-44780000D01*
D21*
X74930000Y-59690000D02*
X74930000Y-52179214D01*
D20*
X177787107Y-43522893D02*
X176530000Y-44780000D01*
X174565786Y-43230000D02*
X153094214Y-43230000D01*
X151130000Y-44780000D02*
X149872893Y-43522893D01*
X233680000Y-44780000D02*
X229589849Y-44780000D01*
X176530000Y-44780000D02*
X175272893Y-43522893D01*
D21*
X86962893Y-58147107D02*
X100330000Y-44780000D01*
D20*
X199965786Y-43230000D02*
X178494214Y-43230000D01*
X101587107Y-43522893D02*
X100330000Y-44780000D01*
X123765786Y-43230000D02*
X102294214Y-43230000D01*
X125730000Y-44780000D02*
X124472893Y-43522893D01*
X126987107Y-43522893D02*
X125730000Y-44780000D01*
D21*
X76594214Y-58440000D02*
X86255786Y-58440000D01*
D20*
X228882742Y-44487107D02*
X227918528Y-43522893D01*
D21*
X74930000Y-59690000D02*
X75887107Y-58732893D01*
D20*
X203187107Y-43522893D02*
X201930000Y-44780000D01*
X227211421Y-43230000D02*
X203894214Y-43230000D01*
X149165786Y-43230000D02*
X127694214Y-43230000D01*
X228882718Y-44487131D02*
G75*
G03*
X229589849Y-44780000I707082J707131D01*
G01*
D21*
X76594214Y-58440010D02*
G75*
G03*
X75887107Y-58732893I-14J-999990D01*
G01*
D20*
X124472900Y-43522886D02*
G75*
G03*
X123765786Y-43230000I-707100J-707114D01*
G01*
X102294214Y-43230010D02*
G75*
G03*
X101587107Y-43522893I-14J-999990D01*
G01*
D21*
X68237900Y-45072886D02*
G75*
G03*
X67530786Y-44780000I-707100J-707114D01*
G01*
D20*
X178494214Y-43230010D02*
G75*
G03*
X177787107Y-43522893I-14J-999990D01*
G01*
X227918517Y-43522904D02*
G75*
G03*
X227211421Y-43230000I-707117J-707096D01*
G01*
X127694214Y-43230010D02*
G75*
G03*
X126987107Y-43522893I-14J-999990D01*
G01*
X200672900Y-43522886D02*
G75*
G03*
X199965786Y-43230000I-707100J-707114D01*
G01*
X149872900Y-43522886D02*
G75*
G03*
X149165786Y-43230000I-707100J-707114D01*
G01*
D21*
X86255786Y-58439990D02*
G75*
G03*
X86962893Y-58147107I14J999990D01*
G01*
X74929990Y-52179214D02*
G75*
G03*
X74637107Y-51472107I-999990J14D01*
G01*
D20*
X203894214Y-43230010D02*
G75*
G03*
X203187107Y-43522893I-14J-999990D01*
G01*
X175272900Y-43522886D02*
G75*
G03*
X174565786Y-43230000I-707100J-707114D01*
G01*
X153094214Y-43230010D02*
G75*
G03*
X152387107Y-43522893I-14J-999990D01*
G01*
D21*
%TO.N,/~{RDY}*%
X74930000Y-62230000D02*
X73972893Y-61272893D01*
D20*
X101614214Y-41680000D02*
X222010000Y-41680000D01*
D21*
X73387107Y-52967107D02*
X69452893Y-49032893D01*
D20*
X85982893Y-56897107D02*
X100907107Y-41972893D01*
X228265786Y-46760000D02*
X222150000Y-46760000D01*
X233680000Y-48740000D02*
X231074214Y-48740000D01*
X230367107Y-48447107D02*
X228972893Y-47052893D01*
X80640000Y-57190000D02*
X85275786Y-57190000D01*
D21*
X68745786Y-48740000D02*
X63500000Y-48740000D01*
D20*
X222010000Y-41680000D02*
X222150000Y-41540000D01*
D21*
X73680000Y-60565786D02*
X73680000Y-53674214D01*
X69452900Y-49032886D02*
G75*
G03*
X68745786Y-48740000I-707100J-707114D01*
G01*
D20*
X230367100Y-48447114D02*
G75*
G03*
X231074214Y-48740000I707100J707114D01*
G01*
X85275786Y-57189990D02*
G75*
G03*
X85982893Y-56897107I14J999990D01*
G01*
D21*
X73679990Y-53674214D02*
G75*
G03*
X73387107Y-52967107I-999990J14D01*
G01*
X73680010Y-60565786D02*
G75*
G03*
X73972893Y-61272893I999990J-14D01*
G01*
D20*
X228972900Y-47052886D02*
G75*
G03*
X228265786Y-46760000I-707100J-707114D01*
G01*
X101614214Y-41680010D02*
G75*
G03*
X100907107Y-41972893I-14J-999990D01*
G01*
%TO.N,/\u00D81*%
X101134214Y-40040000D02*
X224580000Y-40040000D01*
X233680000Y-52700000D02*
X231234214Y-52700000D01*
X228425786Y-50720000D02*
X224580000Y-50720000D01*
X81810000Y-55640000D02*
X84705786Y-55640000D01*
X230527107Y-52407107D02*
X229132893Y-51012893D01*
X85412893Y-55347107D02*
X100427107Y-40332893D01*
D21*
X72832893Y-62672893D02*
X74930000Y-64770000D01*
X70042893Y-52992893D02*
X72247107Y-55197107D01*
X72540000Y-55904214D02*
X72540000Y-61965786D01*
X63500000Y-52700000D02*
X69335786Y-52700000D01*
D20*
X229132900Y-51012886D02*
G75*
G03*
X228425786Y-50720000I-707100J-707114D01*
G01*
X230527100Y-52407114D02*
G75*
G03*
X231234214Y-52700000I707100J707114D01*
G01*
X84705786Y-55639990D02*
G75*
G03*
X85412893Y-55347107I14J999990D01*
G01*
D21*
X72539990Y-55904214D02*
G75*
G03*
X72247107Y-55197107I-999990J14D01*
G01*
X72540010Y-61965786D02*
G75*
G03*
X72832893Y-62672893I999990J-14D01*
G01*
X70042900Y-52992886D02*
G75*
G03*
X69335786Y-52700000I-707100J-707114D01*
G01*
D20*
X101134214Y-40040010D02*
G75*
G03*
X100427107Y-40332893I-14J-999990D01*
G01*
D21*
%TO.N,/~{IRQ}*%
X70387107Y-57617107D02*
X69722893Y-56952893D01*
X91262893Y-65727107D02*
X100330000Y-56660000D01*
D20*
X203187107Y-55402893D02*
X201930000Y-56660000D01*
X227211421Y-55110000D02*
X203894214Y-55110000D01*
D21*
X76634214Y-66020000D02*
X90555786Y-66020000D01*
X74930000Y-67310000D02*
X75927107Y-66312893D01*
D20*
X107309139Y-56367107D02*
X106344925Y-55402893D01*
X183509139Y-56367107D02*
X182544925Y-55402893D01*
X228882742Y-56367107D02*
X227918528Y-55402893D01*
X131037818Y-55110000D02*
X127694214Y-55110000D01*
X176530000Y-56660000D02*
X158816246Y-56660000D01*
X105637818Y-55110000D02*
X102294214Y-55110000D01*
X233680000Y-56660000D02*
X229589849Y-56660000D01*
X177787107Y-55402893D02*
X176530000Y-56660000D01*
X158109139Y-56367107D02*
X157144925Y-55402893D01*
X201930000Y-56660000D02*
X184216246Y-56660000D01*
X151130000Y-56660000D02*
X133416246Y-56660000D01*
D21*
X69015786Y-56660000D02*
X63500000Y-56660000D01*
D20*
X156437818Y-55110000D02*
X153094214Y-55110000D01*
X125730000Y-56660000D02*
X108016246Y-56660000D01*
X152387107Y-55402893D02*
X151130000Y-56660000D01*
X126987107Y-55402893D02*
X125730000Y-56660000D01*
X101587107Y-55402893D02*
X100330000Y-56660000D01*
D21*
X70680000Y-62645786D02*
X70680000Y-58324214D01*
X74930000Y-67310000D02*
X70972893Y-63352893D01*
D20*
X181837818Y-55110000D02*
X178494214Y-55110000D01*
X132709139Y-56367107D02*
X131744925Y-55402893D01*
D21*
X69722900Y-56952886D02*
G75*
G03*
X69015786Y-56660000I-707100J-707114D01*
G01*
D20*
X228882718Y-56367131D02*
G75*
G03*
X229589849Y-56660000I707082J707131D01*
G01*
X157144916Y-55402902D02*
G75*
G03*
X156437818Y-55110000I-707116J-707098D01*
G01*
D21*
X70679990Y-58324214D02*
G75*
G03*
X70387107Y-57617107I-999990J14D01*
G01*
D20*
X182544916Y-55402902D02*
G75*
G03*
X181837818Y-55110000I-707116J-707098D01*
G01*
X132709116Y-56367130D02*
G75*
G03*
X133416246Y-56660000I707084J707130D01*
G01*
X178494214Y-55110010D02*
G75*
G03*
X177787107Y-55402893I-14J-999990D01*
G01*
X106344916Y-55402902D02*
G75*
G03*
X105637818Y-55110000I-707116J-707098D01*
G01*
X127694214Y-55110010D02*
G75*
G03*
X126987107Y-55402893I-14J-999990D01*
G01*
D21*
X90555786Y-66019990D02*
G75*
G03*
X91262893Y-65727107I14J999990D01*
G01*
D20*
X203894214Y-55110010D02*
G75*
G03*
X203187107Y-55402893I-14J-999990D01*
G01*
X107309116Y-56367130D02*
G75*
G03*
X108016246Y-56660000I707084J707130D01*
G01*
X153094214Y-55110010D02*
G75*
G03*
X152387107Y-55402893I-14J-999990D01*
G01*
X158109116Y-56367130D02*
G75*
G03*
X158816246Y-56660000I707084J707130D01*
G01*
X102294214Y-55110010D02*
G75*
G03*
X101587107Y-55402893I-14J-999990D01*
G01*
X227918517Y-55402904D02*
G75*
G03*
X227211421Y-55110000I-707117J-707096D01*
G01*
D21*
X70680010Y-62645786D02*
G75*
G03*
X70972893Y-63352893I999990J-14D01*
G01*
D20*
X131744916Y-55402902D02*
G75*
G03*
X131037818Y-55110000I-707116J-707098D01*
G01*
D21*
X76634214Y-66020010D02*
G75*
G03*
X75927107Y-66312893I-14J-999990D01*
G01*
D20*
X183509116Y-56367130D02*
G75*
G03*
X184216246Y-56660000I707084J707130D01*
G01*
%TO.N,/R0*%
X203187107Y-59362893D02*
X201930000Y-60620000D01*
X126987107Y-59362893D02*
X125730000Y-60620000D01*
X101587107Y-59362893D02*
X100330000Y-60620000D01*
X131037818Y-59070000D02*
X127694214Y-59070000D01*
D21*
X74930000Y-69850000D02*
X73992893Y-68912893D01*
D20*
X151130000Y-60620000D02*
X133416246Y-60620000D01*
X183509139Y-60327107D02*
X182544925Y-59362893D01*
X156437818Y-59070000D02*
X153094214Y-59070000D01*
D21*
X67685786Y-60620000D02*
X63500000Y-60620000D01*
X69020000Y-62565786D02*
X69020000Y-61954214D01*
X73700000Y-68205786D02*
X73700000Y-68074214D01*
X68727107Y-61247107D02*
X68392893Y-60912893D01*
X74930000Y-69850000D02*
X75887107Y-68892893D01*
D20*
X201930000Y-60620000D02*
X184216246Y-60620000D01*
X176530000Y-60620000D02*
X158816246Y-60620000D01*
X152387107Y-59362893D02*
X151130000Y-60620000D01*
X177787107Y-59362893D02*
X176530000Y-60620000D01*
X125730000Y-60620000D02*
X108016246Y-60620000D01*
X107309139Y-60327107D02*
X106344925Y-59362893D01*
D21*
X76594214Y-68600000D02*
X91935786Y-68600000D01*
D20*
X227211421Y-59070000D02*
X203894214Y-59070000D01*
X228882742Y-60327107D02*
X227918528Y-59362893D01*
X158109139Y-60327107D02*
X157144925Y-59362893D01*
D21*
X73407107Y-67367107D02*
X69312893Y-63272893D01*
D20*
X181837818Y-59070000D02*
X178494214Y-59070000D01*
X132709139Y-60327107D02*
X131744925Y-59362893D01*
X233680000Y-60620000D02*
X229589849Y-60620000D01*
D21*
X92642893Y-68307107D02*
X100330000Y-60620000D01*
D20*
X105637818Y-59070000D02*
X102294214Y-59070000D01*
X131744916Y-59362902D02*
G75*
G03*
X131037818Y-59070000I-707116J-707098D01*
G01*
D21*
X69019990Y-61954214D02*
G75*
G03*
X68727107Y-61247107I-999990J14D01*
G01*
X68392900Y-60912886D02*
G75*
G03*
X67685786Y-60620000I-707100J-707114D01*
G01*
X76594214Y-68600010D02*
G75*
G03*
X75887107Y-68892893I-14J-999990D01*
G01*
D20*
X227918517Y-59362904D02*
G75*
G03*
X227211421Y-59070000I-707117J-707096D01*
G01*
X182544916Y-59362902D02*
G75*
G03*
X181837818Y-59070000I-707116J-707098D01*
G01*
D21*
X69020010Y-62565786D02*
G75*
G03*
X69312893Y-63272893I999990J-14D01*
G01*
D20*
X127694214Y-59070010D02*
G75*
G03*
X126987107Y-59362893I-14J-999990D01*
G01*
X102294214Y-59070010D02*
G75*
G03*
X101587107Y-59362893I-14J-999990D01*
G01*
X132709116Y-60327130D02*
G75*
G03*
X133416246Y-60620000I707084J707130D01*
G01*
X228882718Y-60327131D02*
G75*
G03*
X229589849Y-60620000I707082J707131D01*
G01*
X203894214Y-59070010D02*
G75*
G03*
X203187107Y-59362893I-14J-999990D01*
G01*
X107309116Y-60327130D02*
G75*
G03*
X108016246Y-60620000I707084J707130D01*
G01*
X157144916Y-59362902D02*
G75*
G03*
X156437818Y-59070000I-707116J-707098D01*
G01*
D21*
X91935786Y-68599990D02*
G75*
G03*
X92642893Y-68307107I14J999990D01*
G01*
D20*
X158109116Y-60327130D02*
G75*
G03*
X158816246Y-60620000I707084J707130D01*
G01*
X178494214Y-59070010D02*
G75*
G03*
X177787107Y-59362893I-14J-999990D01*
G01*
X153094214Y-59070010D02*
G75*
G03*
X152387107Y-59362893I-14J-999990D01*
G01*
X183509116Y-60327130D02*
G75*
G03*
X184216246Y-60620000I707084J707130D01*
G01*
D21*
X73700010Y-68205786D02*
G75*
G03*
X73992893Y-68912893I999990J-14D01*
G01*
X73699990Y-68074214D02*
G75*
G03*
X73407107Y-67367107I-999990J14D01*
G01*
D20*
X106344916Y-59362902D02*
G75*
G03*
X105637818Y-59070000I-707116J-707098D01*
G01*
%TO.N,/~{NMI}*%
X132709139Y-64287107D02*
X131744925Y-63322893D01*
X183509139Y-64287107D02*
X182544925Y-63322893D01*
D21*
X94062893Y-70847107D02*
X100330000Y-64580000D01*
D20*
X203187107Y-63322893D02*
X201930000Y-64580000D01*
X125730000Y-64580000D02*
X108016246Y-64580000D01*
X151130000Y-64580000D02*
X133416246Y-64580000D01*
X181837818Y-63030000D02*
X178494214Y-63030000D01*
X152387107Y-63322893D02*
X151130000Y-64580000D01*
X105637818Y-63030000D02*
X102294214Y-63030000D01*
X201930000Y-64580000D02*
X184216246Y-64580000D01*
D21*
X67895786Y-64580000D02*
X63500000Y-64580000D01*
D20*
X233680000Y-64580000D02*
X229589849Y-64580000D01*
D21*
X73510000Y-70555786D02*
X73510000Y-70194214D01*
D20*
X107309139Y-64287107D02*
X106344925Y-63322893D01*
X101587107Y-63322893D02*
X100330000Y-64580000D01*
D21*
X73217107Y-69487107D02*
X68602893Y-64872893D01*
X74930000Y-72390000D02*
X75887107Y-71432893D01*
D20*
X126987107Y-63322893D02*
X125730000Y-64580000D01*
X131037818Y-63030000D02*
X127694214Y-63030000D01*
D21*
X76594214Y-71140000D02*
X93355786Y-71140000D01*
D20*
X228882742Y-64287107D02*
X227918528Y-63322893D01*
X176530000Y-64580000D02*
X158816246Y-64580000D01*
X177787107Y-63322893D02*
X176530000Y-64580000D01*
X156437818Y-63030000D02*
X153094214Y-63030000D01*
X227211421Y-63030000D02*
X203894214Y-63030000D01*
X158109139Y-64287107D02*
X157144925Y-63322893D01*
D21*
X74930000Y-72390000D02*
X73802893Y-71262893D01*
D20*
X127694214Y-63030010D02*
G75*
G03*
X126987107Y-63322893I-14J-999990D01*
G01*
X106344916Y-63322902D02*
G75*
G03*
X105637818Y-63030000I-707116J-707098D01*
G01*
D21*
X73510010Y-70555786D02*
G75*
G03*
X73802893Y-71262893I999990J-14D01*
G01*
D20*
X183509116Y-64287130D02*
G75*
G03*
X184216246Y-64580000I707084J707130D01*
G01*
X131744916Y-63322902D02*
G75*
G03*
X131037818Y-63030000I-707116J-707098D01*
G01*
D21*
X73509990Y-70194214D02*
G75*
G03*
X73217107Y-69487107I-999990J14D01*
G01*
D20*
X102294214Y-63030010D02*
G75*
G03*
X101587107Y-63322893I-14J-999990D01*
G01*
X132709116Y-64287130D02*
G75*
G03*
X133416246Y-64580000I707084J707130D01*
G01*
X157144916Y-63322902D02*
G75*
G03*
X156437818Y-63030000I-707116J-707098D01*
G01*
D21*
X68602900Y-64872886D02*
G75*
G03*
X67895786Y-64580000I-707100J-707114D01*
G01*
X76594214Y-71140010D02*
G75*
G03*
X75887107Y-71432893I-14J-999990D01*
G01*
D20*
X228882718Y-64287131D02*
G75*
G03*
X229589849Y-64580000I707082J707131D01*
G01*
X158109116Y-64287130D02*
G75*
G03*
X158816246Y-64580000I707084J707130D01*
G01*
X153094214Y-63030010D02*
G75*
G03*
X152387107Y-63322893I-14J-999990D01*
G01*
X182544916Y-63322902D02*
G75*
G03*
X181837818Y-63030000I-707116J-707098D01*
G01*
X227918517Y-63322904D02*
G75*
G03*
X227211421Y-63030000I-707117J-707096D01*
G01*
X178494214Y-63030010D02*
G75*
G03*
X177787107Y-63322893I-14J-999990D01*
G01*
X107309116Y-64287130D02*
G75*
G03*
X108016246Y-64580000I707084J707130D01*
G01*
X203894214Y-63030010D02*
G75*
G03*
X203187107Y-63322893I-14J-999990D01*
G01*
D21*
X93355786Y-71139990D02*
G75*
G03*
X94062893Y-70847107I14J999990D01*
G01*
D20*
%TO.N,/~{RES}*%
X201930000Y-68540000D02*
X184216246Y-68540000D01*
X105637818Y-66990000D02*
X102294214Y-66990000D01*
D21*
X63500000Y-68540000D02*
X68125786Y-68540000D01*
D20*
X227231421Y-66990000D02*
X203894214Y-66990000D01*
X233680000Y-68540000D02*
X229609849Y-68540000D01*
X177787107Y-67282893D02*
X176530000Y-68540000D01*
D21*
X74930000Y-74930000D02*
X75887107Y-73972893D01*
D20*
X101587107Y-67282893D02*
X100330000Y-68540000D01*
X151130000Y-68540000D02*
X133416246Y-68540000D01*
X203187107Y-67282893D02*
X201930000Y-68540000D01*
X156437818Y-66990000D02*
X153094214Y-66990000D01*
X158109139Y-68247107D02*
X157144925Y-67282893D01*
X132709139Y-68247107D02*
X131744925Y-67282893D01*
X176530000Y-68540000D02*
X158816246Y-68540000D01*
X131037818Y-66990000D02*
X127694214Y-66990000D01*
X126987107Y-67282893D02*
X125730000Y-68540000D01*
X228902742Y-68247107D02*
X227938528Y-67282893D01*
X125730000Y-68540000D02*
X108016246Y-68540000D01*
D21*
X95482893Y-73387107D02*
X100330000Y-68540000D01*
D20*
X181837818Y-66990000D02*
X178494214Y-66990000D01*
X107309139Y-68247107D02*
X106344925Y-67282893D01*
X183509139Y-68247107D02*
X182544925Y-67282893D01*
D21*
X76594214Y-73680000D02*
X94775786Y-73680000D01*
D20*
X152387107Y-67282893D02*
X151130000Y-68540000D01*
D21*
X68832893Y-68832893D02*
X74930000Y-74930000D01*
D20*
X106344916Y-67282902D02*
G75*
G03*
X105637818Y-66990000I-707116J-707098D01*
G01*
X182544916Y-67282902D02*
G75*
G03*
X181837818Y-66990000I-707116J-707098D01*
G01*
X153094214Y-66990010D02*
G75*
G03*
X152387107Y-67282893I-14J-999990D01*
G01*
D21*
X68832900Y-68832886D02*
G75*
G03*
X68125786Y-68540000I-707100J-707114D01*
G01*
X94775786Y-73679990D02*
G75*
G03*
X95482893Y-73387107I14J999990D01*
G01*
D20*
X178494214Y-66990010D02*
G75*
G03*
X177787107Y-67282893I-14J-999990D01*
G01*
X127694214Y-66990010D02*
G75*
G03*
X126987107Y-67282893I-14J-999990D01*
G01*
X132709116Y-68247130D02*
G75*
G03*
X133416246Y-68540000I707084J707130D01*
G01*
X203894214Y-66990010D02*
G75*
G03*
X203187107Y-67282893I-14J-999990D01*
G01*
X157144916Y-67282902D02*
G75*
G03*
X156437818Y-66990000I-707116J-707098D01*
G01*
X102294214Y-66990010D02*
G75*
G03*
X101587107Y-67282893I-14J-999990D01*
G01*
X183509116Y-68247130D02*
G75*
G03*
X184216246Y-68540000I707084J707130D01*
G01*
X131744916Y-67282902D02*
G75*
G03*
X131037818Y-66990000I-707116J-707098D01*
G01*
X107309116Y-68247130D02*
G75*
G03*
X108016246Y-68540000I707084J707130D01*
G01*
X228902718Y-68247131D02*
G75*
G03*
X229609849Y-68540000I707082J707131D01*
G01*
X158109116Y-68247130D02*
G75*
G03*
X158816246Y-68540000I707084J707130D01*
G01*
X227938517Y-67282904D02*
G75*
G03*
X227231421Y-66990000I-707117J-707096D01*
G01*
D21*
X76594214Y-73680010D02*
G75*
G03*
X75887107Y-73972893I-14J-999990D01*
G01*
D20*
%TO.N,/D7*%
X228882742Y-72207107D02*
X227918528Y-71242893D01*
X201930000Y-72500000D02*
X184216246Y-72500000D01*
X126987107Y-71242893D02*
X125730000Y-72500000D01*
X152387107Y-71242893D02*
X151130000Y-72500000D01*
X125730000Y-72500000D02*
X108016246Y-72500000D01*
D21*
X76594214Y-76220000D02*
X96195786Y-76220000D01*
X96902893Y-75927107D02*
X100330000Y-72500000D01*
D20*
X151130000Y-72500000D02*
X133416246Y-72500000D01*
X156437818Y-70950000D02*
X153094214Y-70950000D01*
X101587107Y-71242893D02*
X100330000Y-72500000D01*
X158109139Y-72207107D02*
X157144925Y-71242893D01*
X107309139Y-72207107D02*
X106344925Y-71242893D01*
D21*
X69545786Y-72500000D02*
X63500000Y-72500000D01*
D20*
X177787107Y-71242893D02*
X176530000Y-72500000D01*
X203187107Y-71242893D02*
X201930000Y-72500000D01*
D21*
X74930000Y-77470000D02*
X75887107Y-76512893D01*
X74930000Y-77470000D02*
X70252893Y-72792893D01*
D20*
X181837818Y-70950000D02*
X178494214Y-70950000D01*
X183509139Y-72207107D02*
X182544925Y-71242893D01*
X132709139Y-72207107D02*
X131744925Y-71242893D01*
X233680000Y-72500000D02*
X229589849Y-72500000D01*
X105637818Y-70950000D02*
X102294214Y-70950000D01*
X176530000Y-72500000D02*
X158816246Y-72500000D01*
X131037818Y-70950000D02*
X127694214Y-70950000D01*
X227211421Y-70950000D02*
X203894214Y-70950000D01*
D21*
X70252900Y-72792886D02*
G75*
G03*
X69545786Y-72500000I-707100J-707114D01*
G01*
D20*
X203894214Y-70950010D02*
G75*
G03*
X203187107Y-71242893I-14J-999990D01*
G01*
X102294214Y-70950010D02*
G75*
G03*
X101587107Y-71242893I-14J-999990D01*
G01*
X178494214Y-70950010D02*
G75*
G03*
X177787107Y-71242893I-14J-999990D01*
G01*
X153094214Y-70950010D02*
G75*
G03*
X152387107Y-71242893I-14J-999990D01*
G01*
X132709116Y-72207130D02*
G75*
G03*
X133416246Y-72500000I707084J707130D01*
G01*
X127694214Y-70950010D02*
G75*
G03*
X126987107Y-71242893I-14J-999990D01*
G01*
D21*
X76594214Y-76220010D02*
G75*
G03*
X75887107Y-76512893I-14J-999990D01*
G01*
D20*
X227918517Y-71242904D02*
G75*
G03*
X227211421Y-70950000I-707117J-707096D01*
G01*
X106344916Y-71242902D02*
G75*
G03*
X105637818Y-70950000I-707116J-707098D01*
G01*
X157144916Y-71242902D02*
G75*
G03*
X156437818Y-70950000I-707116J-707098D01*
G01*
X107309116Y-72207130D02*
G75*
G03*
X108016246Y-72500000I707084J707130D01*
G01*
X131744916Y-71242902D02*
G75*
G03*
X131037818Y-70950000I-707116J-707098D01*
G01*
X228882718Y-72207131D02*
G75*
G03*
X229589849Y-72500000I707082J707131D01*
G01*
X183509116Y-72207130D02*
G75*
G03*
X184216246Y-72500000I707084J707130D01*
G01*
X182544916Y-71242902D02*
G75*
G03*
X181837818Y-70950000I-707116J-707098D01*
G01*
X158109116Y-72207130D02*
G75*
G03*
X158816246Y-72500000I707084J707130D01*
G01*
D21*
X96195786Y-76219990D02*
G75*
G03*
X96902893Y-75927107I14J999990D01*
G01*
D20*
%TO.N,/D6*%
X101587107Y-75202893D02*
X100330000Y-76460000D01*
X233680000Y-76460000D02*
X229589849Y-76460000D01*
X227211421Y-74910000D02*
X203894214Y-74910000D01*
X156437818Y-74910000D02*
X153094214Y-74910000D01*
D21*
X72940000Y-77247767D02*
X72940000Y-77220000D01*
D20*
X151130000Y-76460000D02*
X133416246Y-76460000D01*
X228882742Y-76167107D02*
X227918528Y-75202893D01*
D21*
X74637107Y-78944874D02*
X72940000Y-77247767D01*
D20*
X183509139Y-76167107D02*
X182544925Y-75202893D01*
X132709139Y-76167107D02*
X131744925Y-75202893D01*
X158109139Y-76167107D02*
X157144925Y-75202893D01*
X105637818Y-74910000D02*
X102294214Y-74910000D01*
X181837818Y-74910000D02*
X178494214Y-74910000D01*
X177787107Y-75202893D02*
X176530000Y-76460000D01*
D21*
X74930000Y-80010000D02*
X74930000Y-79651981D01*
D20*
X131037818Y-74910000D02*
X127694214Y-74910000D01*
X152387107Y-75202893D02*
X151130000Y-76460000D01*
D21*
X76594214Y-78760000D02*
X97615786Y-78760000D01*
D20*
X126987107Y-75202893D02*
X125730000Y-76460000D01*
X201930000Y-76460000D02*
X184216246Y-76460000D01*
D21*
X74930000Y-80010000D02*
X75887107Y-79052893D01*
X72940000Y-77220000D02*
X72472893Y-76752893D01*
D20*
X125730000Y-76460000D02*
X108016246Y-76460000D01*
X203187107Y-75202893D02*
X201930000Y-76460000D01*
D21*
X71765786Y-76460000D02*
X63500000Y-76460000D01*
X98322893Y-78467107D02*
X100330000Y-76460000D01*
D20*
X176530000Y-76460000D02*
X158816246Y-76460000D01*
X107309139Y-76167107D02*
X106344925Y-75202893D01*
X203894214Y-74910010D02*
G75*
G03*
X203187107Y-75202893I-14J-999990D01*
G01*
X158109116Y-76167130D02*
G75*
G03*
X158816246Y-76460000I707084J707130D01*
G01*
X106344916Y-75202902D02*
G75*
G03*
X105637818Y-74910000I-707116J-707098D01*
G01*
D21*
X97615786Y-78759990D02*
G75*
G03*
X98322893Y-78467107I14J999990D01*
G01*
D20*
X182544916Y-75202902D02*
G75*
G03*
X181837818Y-74910000I-707116J-707098D01*
G01*
X183509116Y-76167130D02*
G75*
G03*
X184216246Y-76460000I707084J707130D01*
G01*
D21*
X74930013Y-79651981D02*
G75*
G03*
X74637106Y-78944875I-1000013J-19D01*
G01*
D20*
X178494214Y-74910010D02*
G75*
G03*
X177787107Y-75202893I-14J-999990D01*
G01*
X107309116Y-76167130D02*
G75*
G03*
X108016246Y-76460000I707084J707130D01*
G01*
D21*
X76594214Y-78760010D02*
G75*
G03*
X75887107Y-79052893I-14J-999990D01*
G01*
D20*
X153094214Y-74910010D02*
G75*
G03*
X152387107Y-75202893I-14J-999990D01*
G01*
X131744916Y-75202902D02*
G75*
G03*
X131037818Y-74910000I-707116J-707098D01*
G01*
X228882718Y-76167131D02*
G75*
G03*
X229589849Y-76460000I707082J707131D01*
G01*
X102294214Y-74910010D02*
G75*
G03*
X101587107Y-75202893I-14J-999990D01*
G01*
D21*
X72472900Y-76752886D02*
G75*
G03*
X71765786Y-76460000I-707100J-707114D01*
G01*
D20*
X127694214Y-74910010D02*
G75*
G03*
X126987107Y-75202893I-14J-999990D01*
G01*
X132709116Y-76167130D02*
G75*
G03*
X133416246Y-76460000I707084J707130D01*
G01*
X157144916Y-75202902D02*
G75*
G03*
X156437818Y-74910000I-707116J-707098D01*
G01*
X227918517Y-75202904D02*
G75*
G03*
X227211421Y-74910000I-707117J-707096D01*
G01*
%TO.N,/D5*%
X151130000Y-80420000D02*
X133416246Y-80420000D01*
X127077107Y-79072893D02*
X125730000Y-80420000D01*
D21*
X72385786Y-80420000D02*
X63500000Y-80420000D01*
D20*
X181837818Y-78870000D02*
X178494214Y-78870000D01*
D21*
X74930000Y-82550000D02*
X73092893Y-80712893D01*
D20*
X227211421Y-78870000D02*
X203894214Y-78870000D01*
X228882742Y-80127107D02*
X227918528Y-79162893D01*
X132709139Y-80127107D02*
X131654925Y-79072893D01*
X130947818Y-78780000D02*
X127784214Y-78780000D01*
X152387107Y-79162893D02*
X151130000Y-80420000D01*
X156437818Y-78870000D02*
X153094214Y-78870000D01*
X101587107Y-79162893D02*
X100330000Y-80420000D01*
X176530000Y-80420000D02*
X158816246Y-80420000D01*
D21*
X76594214Y-81300000D02*
X99035786Y-81300000D01*
D20*
X233680000Y-80420000D02*
X229589849Y-80420000D01*
X158109139Y-80127107D02*
X157144925Y-79162893D01*
X105637818Y-78870000D02*
X102294214Y-78870000D01*
X203187107Y-79162893D02*
X201930000Y-80420000D01*
X177787107Y-79162893D02*
X176530000Y-80420000D01*
D21*
X99742893Y-81007107D02*
X100330000Y-80420000D01*
X74930000Y-82550000D02*
X75887107Y-81592893D01*
D20*
X201930000Y-80420000D02*
X184216246Y-80420000D01*
X107309139Y-80127107D02*
X106344925Y-79162893D01*
X125730000Y-80420000D02*
X108016246Y-80420000D01*
X183509139Y-80127107D02*
X182544925Y-79162893D01*
X183509116Y-80127130D02*
G75*
G03*
X184216246Y-80420000I707084J707130D01*
G01*
X182544916Y-79162902D02*
G75*
G03*
X181837818Y-78870000I-707116J-707098D01*
G01*
D21*
X76594214Y-81300010D02*
G75*
G03*
X75887107Y-81592893I-14J-999990D01*
G01*
D20*
X106344916Y-79162902D02*
G75*
G03*
X105637818Y-78870000I-707116J-707098D01*
G01*
X102294214Y-78870010D02*
G75*
G03*
X101587107Y-79162893I-14J-999990D01*
G01*
X132709116Y-80127130D02*
G75*
G03*
X133416246Y-80420000I707084J707130D01*
G01*
X127784214Y-78780010D02*
G75*
G03*
X127077107Y-79072893I-14J-999990D01*
G01*
X227918517Y-79162904D02*
G75*
G03*
X227211421Y-78870000I-707117J-707096D01*
G01*
X178494214Y-78870010D02*
G75*
G03*
X177787107Y-79162893I-14J-999990D01*
G01*
X228882718Y-80127131D02*
G75*
G03*
X229589849Y-80420000I707082J707131D01*
G01*
X157144916Y-79162902D02*
G75*
G03*
X156437818Y-78870000I-707116J-707098D01*
G01*
X153094214Y-78870010D02*
G75*
G03*
X152387107Y-79162893I-14J-999990D01*
G01*
X131654916Y-79072902D02*
G75*
G03*
X130947818Y-78780000I-707116J-707098D01*
G01*
D21*
X99035786Y-81299990D02*
G75*
G03*
X99742893Y-81007107I14J999990D01*
G01*
X73092900Y-80712886D02*
G75*
G03*
X72385786Y-80420000I-707100J-707114D01*
G01*
D20*
X107309116Y-80127130D02*
G75*
G03*
X108016246Y-80420000I707084J707130D01*
G01*
X158109116Y-80127130D02*
G75*
G03*
X158816246Y-80420000I707084J707130D01*
G01*
X203894214Y-78870010D02*
G75*
G03*
X203187107Y-79162893I-14J-999990D01*
G01*
%TO.N,/D4*%
X151130000Y-84380000D02*
X133416246Y-84380000D01*
D21*
X74930000Y-85060000D02*
X74542893Y-84672893D01*
D20*
X183509139Y-84087107D02*
X182544925Y-83122893D01*
D21*
X76594214Y-83840000D02*
X99790000Y-83840000D01*
D20*
X126987107Y-83122893D02*
X125730000Y-84380000D01*
D21*
X73835786Y-84380000D02*
X63500000Y-84380000D01*
D20*
X203187107Y-83122893D02*
X201930000Y-84380000D01*
X233680000Y-84380000D02*
X229589849Y-84380000D01*
X152387107Y-83122893D02*
X151130000Y-84380000D01*
X125730000Y-84380000D02*
X108016246Y-84380000D01*
X158109139Y-84087107D02*
X157144925Y-83122893D01*
D21*
X74930000Y-85090000D02*
X74930000Y-85060000D01*
D20*
X156437818Y-82830000D02*
X153094214Y-82830000D01*
D21*
X99790000Y-83840000D02*
X100330000Y-84380000D01*
D20*
X131037818Y-82830000D02*
X127694214Y-82830000D01*
X181837818Y-82830000D02*
X178494214Y-82830000D01*
X227211421Y-82830000D02*
X203894214Y-82830000D01*
X101587107Y-83122893D02*
X100330000Y-84380000D01*
X176530000Y-84380000D02*
X158816246Y-84380000D01*
X107309139Y-84087107D02*
X106344925Y-83122893D01*
X228882742Y-84087107D02*
X227918528Y-83122893D01*
X105637818Y-82830000D02*
X102294214Y-82830000D01*
X132709139Y-84087107D02*
X131744925Y-83122893D01*
X201930000Y-84380000D02*
X184216246Y-84380000D01*
X177787107Y-83122893D02*
X176530000Y-84380000D01*
D21*
X74930000Y-85090000D02*
X75887107Y-84132893D01*
D20*
X203894214Y-82830010D02*
G75*
G03*
X203187107Y-83122893I-14J-999990D01*
G01*
D21*
X76594214Y-83840010D02*
G75*
G03*
X75887107Y-84132893I-14J-999990D01*
G01*
D20*
X182544916Y-83122902D02*
G75*
G03*
X181837818Y-82830000I-707116J-707098D01*
G01*
X106344916Y-83122902D02*
G75*
G03*
X105637818Y-82830000I-707116J-707098D01*
G01*
X107309116Y-84087130D02*
G75*
G03*
X108016246Y-84380000I707084J707130D01*
G01*
X153094214Y-82830010D02*
G75*
G03*
X152387107Y-83122893I-14J-999990D01*
G01*
X132709116Y-84087130D02*
G75*
G03*
X133416246Y-84380000I707084J707130D01*
G01*
X157144916Y-83122902D02*
G75*
G03*
X156437818Y-82830000I-707116J-707098D01*
G01*
X102294214Y-82830010D02*
G75*
G03*
X101587107Y-83122893I-14J-999990D01*
G01*
X227918517Y-83122904D02*
G75*
G03*
X227211421Y-82830000I-707117J-707096D01*
G01*
X183509116Y-84087130D02*
G75*
G03*
X184216246Y-84380000I707084J707130D01*
G01*
X127694214Y-82830010D02*
G75*
G03*
X126987107Y-83122893I-14J-999990D01*
G01*
X178494214Y-82830010D02*
G75*
G03*
X177787107Y-83122893I-14J-999990D01*
G01*
X228882718Y-84087131D02*
G75*
G03*
X229589849Y-84380000I707082J707131D01*
G01*
X158109116Y-84087130D02*
G75*
G03*
X158816246Y-84380000I707084J707130D01*
G01*
D21*
X74542900Y-84672886D02*
G75*
G03*
X73835786Y-84380000I-707100J-707114D01*
G01*
D20*
X131744916Y-83122902D02*
G75*
G03*
X131037818Y-82830000I-707116J-707098D01*
G01*
%TO.N,/D3*%
X158109139Y-88047107D02*
X157144925Y-87082893D01*
D21*
X73835786Y-88340000D02*
X63500000Y-88340000D01*
D20*
X105637818Y-86790000D02*
X102294214Y-86790000D01*
X152387107Y-87082893D02*
X151130000Y-88340000D01*
D21*
X74930000Y-87660000D02*
X74542893Y-88047107D01*
D20*
X228882742Y-88047107D02*
X227918528Y-87082893D01*
D21*
X98662893Y-86672893D02*
X100330000Y-88340000D01*
D20*
X131037818Y-86790000D02*
X127694214Y-86790000D01*
X156437818Y-86790000D02*
X153094214Y-86790000D01*
X227211421Y-86790000D02*
X203894214Y-86790000D01*
X176530000Y-88340000D02*
X158816246Y-88340000D01*
X183509139Y-88047107D02*
X182544925Y-87082893D01*
X132709139Y-88047107D02*
X131744925Y-87082893D01*
X233680000Y-88340000D02*
X229589849Y-88340000D01*
X107309139Y-88047107D02*
X106344925Y-87082893D01*
X151130000Y-88340000D02*
X133416246Y-88340000D01*
D21*
X76594214Y-86380000D02*
X97955786Y-86380000D01*
D20*
X101587107Y-87082893D02*
X100330000Y-88340000D01*
X125730000Y-88340000D02*
X108016246Y-88340000D01*
D21*
X74930000Y-87630000D02*
X74930000Y-87660000D01*
X74930000Y-87630000D02*
X75887107Y-86672893D01*
D20*
X181837818Y-86790000D02*
X178494214Y-86790000D01*
X126987107Y-87082893D02*
X125730000Y-88340000D01*
X203187107Y-87082893D02*
X201930000Y-88340000D01*
X177787107Y-87082893D02*
X176530000Y-88340000D01*
X201930000Y-88340000D02*
X184216246Y-88340000D01*
X153094214Y-86790010D02*
G75*
G03*
X152387107Y-87082893I-14J-999990D01*
G01*
X227918517Y-87082904D02*
G75*
G03*
X227211421Y-86790000I-707117J-707096D01*
G01*
X203894214Y-86790010D02*
G75*
G03*
X203187107Y-87082893I-14J-999990D01*
G01*
X131744916Y-87082902D02*
G75*
G03*
X131037818Y-86790000I-707116J-707098D01*
G01*
X157144916Y-87082902D02*
G75*
G03*
X156437818Y-86790000I-707116J-707098D01*
G01*
X107309116Y-88047130D02*
G75*
G03*
X108016246Y-88340000I707084J707130D01*
G01*
D21*
X76594214Y-86380010D02*
G75*
G03*
X75887107Y-86672893I-14J-999990D01*
G01*
D20*
X182544916Y-87082902D02*
G75*
G03*
X181837818Y-86790000I-707116J-707098D01*
G01*
X102294214Y-86790010D02*
G75*
G03*
X101587107Y-87082893I-14J-999990D01*
G01*
X158109116Y-88047130D02*
G75*
G03*
X158816246Y-88340000I707084J707130D01*
G01*
X106344916Y-87082902D02*
G75*
G03*
X105637818Y-86790000I-707116J-707098D01*
G01*
D21*
X98662900Y-86672886D02*
G75*
G03*
X97955786Y-86380000I-707100J-707114D01*
G01*
D20*
X228882718Y-88047131D02*
G75*
G03*
X229589849Y-88340000I707082J707131D01*
G01*
X183509116Y-88047130D02*
G75*
G03*
X184216246Y-88340000I707084J707130D01*
G01*
D21*
X73835786Y-88339990D02*
G75*
G03*
X74542893Y-88047107I14J999990D01*
G01*
D20*
X132709116Y-88047130D02*
G75*
G03*
X133416246Y-88340000I707084J707130D01*
G01*
X127694214Y-86790010D02*
G75*
G03*
X126987107Y-87082893I-14J-999990D01*
G01*
X178494214Y-86790010D02*
G75*
G03*
X177787107Y-87082893I-14J-999990D01*
G01*
D21*
%TO.N,/D2*%
X72385786Y-92300000D02*
X63500000Y-92300000D01*
D20*
X107309139Y-92007107D02*
X106344925Y-91042893D01*
X158109139Y-92007107D02*
X157144925Y-91042893D01*
X176530000Y-92300000D02*
X158816246Y-92300000D01*
X125730000Y-92300000D02*
X108016246Y-92300000D01*
D21*
X76594214Y-88920000D02*
X96535786Y-88920000D01*
D20*
X201930000Y-92300000D02*
X184216246Y-92300000D01*
X151130000Y-92300000D02*
X133416246Y-92300000D01*
X183509139Y-92007107D02*
X182544925Y-91042893D01*
D21*
X74930000Y-90170000D02*
X73092893Y-92007107D01*
D20*
X132709139Y-92007107D02*
X131744925Y-91042893D01*
X181837818Y-90750000D02*
X178494214Y-90750000D01*
X152387107Y-91042893D02*
X151130000Y-92300000D01*
X228882742Y-92007107D02*
X227918528Y-91042893D01*
X233680000Y-92300000D02*
X229589849Y-92300000D01*
X177787107Y-91042893D02*
X176530000Y-92300000D01*
X203187107Y-91042893D02*
X201930000Y-92300000D01*
X105637818Y-90750000D02*
X102294214Y-90750000D01*
X126987107Y-91042893D02*
X125730000Y-92300000D01*
X156437818Y-90750000D02*
X153094214Y-90750000D01*
D21*
X97242893Y-89212893D02*
X100330000Y-92300000D01*
X74930000Y-90170000D02*
X75887107Y-89212893D01*
D20*
X227211421Y-90750000D02*
X203894214Y-90750000D01*
X131037818Y-90750000D02*
X127694214Y-90750000D01*
X101587107Y-91042893D02*
X100330000Y-92300000D01*
D21*
X97242900Y-89212886D02*
G75*
G03*
X96535786Y-88920000I-707100J-707114D01*
G01*
D20*
X127694214Y-90750010D02*
G75*
G03*
X126987107Y-91042893I-14J-999990D01*
G01*
X228882718Y-92007131D02*
G75*
G03*
X229589849Y-92300000I707082J707131D01*
G01*
X158109116Y-92007130D02*
G75*
G03*
X158816246Y-92300000I707084J707130D01*
G01*
X183509116Y-92007130D02*
G75*
G03*
X184216246Y-92300000I707084J707130D01*
G01*
X107309116Y-92007130D02*
G75*
G03*
X108016246Y-92300000I707084J707130D01*
G01*
D21*
X72385786Y-92299990D02*
G75*
G03*
X73092893Y-92007107I14J999990D01*
G01*
D20*
X178494214Y-90750010D02*
G75*
G03*
X177787107Y-91042893I-14J-999990D01*
G01*
X106344916Y-91042902D02*
G75*
G03*
X105637818Y-90750000I-707116J-707098D01*
G01*
X131744916Y-91042902D02*
G75*
G03*
X131037818Y-90750000I-707116J-707098D01*
G01*
X132709116Y-92007130D02*
G75*
G03*
X133416246Y-92300000I707084J707130D01*
G01*
X102294214Y-90750010D02*
G75*
G03*
X101587107Y-91042893I-14J-999990D01*
G01*
X153094214Y-90750010D02*
G75*
G03*
X152387107Y-91042893I-14J-999990D01*
G01*
X157144916Y-91042902D02*
G75*
G03*
X156437818Y-90750000I-707116J-707098D01*
G01*
X227918517Y-91042904D02*
G75*
G03*
X227211421Y-90750000I-707117J-707096D01*
G01*
D21*
X76594214Y-88920010D02*
G75*
G03*
X75887107Y-89212893I-14J-999990D01*
G01*
D20*
X203894214Y-90750010D02*
G75*
G03*
X203187107Y-91042893I-14J-999990D01*
G01*
X182544916Y-91042902D02*
G75*
G03*
X181837818Y-90750000I-707116J-707098D01*
G01*
%TO.N,/D1*%
X126987107Y-95002893D02*
X125730000Y-96260000D01*
X201930000Y-96260000D02*
X184216246Y-96260000D01*
D21*
X74930000Y-92710000D02*
X74930000Y-93068019D01*
D20*
X131037818Y-94710000D02*
X127694214Y-94710000D01*
X227211421Y-94710000D02*
X203894214Y-94710000D01*
X107309139Y-95967107D02*
X106344925Y-95002893D01*
X203187107Y-95002893D02*
X201930000Y-96260000D01*
X132709139Y-95967107D02*
X131744925Y-95002893D01*
D21*
X95792893Y-91722893D02*
X100330000Y-96260000D01*
D20*
X177807107Y-94982893D02*
X176530000Y-96260000D01*
D21*
X72940000Y-95500000D02*
X72472893Y-95967107D01*
X74930000Y-92710000D02*
X75917107Y-91722893D01*
X71765786Y-96260000D02*
X63500000Y-96260000D01*
D20*
X152387107Y-95002893D02*
X151130000Y-96260000D01*
X125730000Y-96260000D02*
X108016246Y-96260000D01*
X151130000Y-96260000D02*
X133416246Y-96260000D01*
X183509139Y-95967107D02*
X182524925Y-94982893D01*
D21*
X76624214Y-91430000D02*
X95085786Y-91430000D01*
D20*
X233680000Y-96260000D02*
X229589849Y-96260000D01*
D21*
X74637107Y-93775126D02*
X72940000Y-95472233D01*
D20*
X228882742Y-95967107D02*
X227918528Y-95002893D01*
D21*
X72940000Y-95472233D02*
X72940000Y-95500000D01*
D20*
X176530000Y-96260000D02*
X158816246Y-96260000D01*
X181817818Y-94690000D02*
X178514214Y-94690000D01*
X101587107Y-95002893D02*
X100330000Y-96260000D01*
X158109139Y-95967107D02*
X157144925Y-95002893D01*
X156437818Y-94710000D02*
X153094214Y-94710000D01*
X105637818Y-94710000D02*
X102294214Y-94710000D01*
X131744916Y-95002902D02*
G75*
G03*
X131037818Y-94710000I-707116J-707098D01*
G01*
D21*
X74637097Y-93775116D02*
G75*
G03*
X74930000Y-93068019I-707097J707116D01*
G01*
D20*
X203894214Y-94710010D02*
G75*
G03*
X203187107Y-95002893I-14J-999990D01*
G01*
X107309116Y-95967130D02*
G75*
G03*
X108016246Y-96260000I707084J707130D01*
G01*
D21*
X95792900Y-91722886D02*
G75*
G03*
X95085786Y-91430000I-707100J-707114D01*
G01*
D20*
X183509116Y-95967130D02*
G75*
G03*
X184216246Y-96260000I707084J707130D01*
G01*
X182524916Y-94982902D02*
G75*
G03*
X181817818Y-94690000I-707116J-707098D01*
G01*
X106344916Y-95002902D02*
G75*
G03*
X105637818Y-94710000I-707116J-707098D01*
G01*
D21*
X71765786Y-96259990D02*
G75*
G03*
X72472893Y-95967107I14J999990D01*
G01*
D20*
X153094214Y-94710010D02*
G75*
G03*
X152387107Y-95002893I-14J-999990D01*
G01*
X228882718Y-95967131D02*
G75*
G03*
X229589849Y-96260000I707082J707131D01*
G01*
X227918517Y-95002904D02*
G75*
G03*
X227211421Y-94710000I-707117J-707096D01*
G01*
X157144916Y-95002902D02*
G75*
G03*
X156437818Y-94710000I-707116J-707098D01*
G01*
X127694214Y-94710010D02*
G75*
G03*
X126987107Y-95002893I-14J-999990D01*
G01*
X132709116Y-95967130D02*
G75*
G03*
X133416246Y-96260000I707084J707130D01*
G01*
D21*
X76624214Y-91430010D02*
G75*
G03*
X75917107Y-91722893I-14J-999990D01*
G01*
D20*
X158109116Y-95967130D02*
G75*
G03*
X158816246Y-96260000I707084J707130D01*
G01*
X102294214Y-94710010D02*
G75*
G03*
X101587107Y-95002893I-14J-999990D01*
G01*
X178514214Y-94690010D02*
G75*
G03*
X177807107Y-94982893I-14J-999990D01*
G01*
%TO.N,/D0*%
X201930000Y-100220000D02*
X184216246Y-100220000D01*
X181837818Y-98670000D02*
X178494214Y-98670000D01*
X125730000Y-100220000D02*
X108016246Y-100220000D01*
X132709139Y-99927107D02*
X131744925Y-98962893D01*
D21*
X94402893Y-94292893D02*
X100330000Y-100220000D01*
D20*
X176530000Y-100220000D02*
X158816246Y-100220000D01*
X101587107Y-98962893D02*
X100330000Y-100220000D01*
X183509139Y-99927107D02*
X182544925Y-98962893D01*
D21*
X76594214Y-94000000D02*
X93695786Y-94000000D01*
D20*
X228902742Y-99927107D02*
X227938528Y-98962893D01*
D21*
X74930000Y-95250000D02*
X70252893Y-99927107D01*
D20*
X158109139Y-99927107D02*
X157144925Y-98962893D01*
X107309139Y-99927107D02*
X106344925Y-98962893D01*
X131037818Y-98670000D02*
X127694214Y-98670000D01*
X126987107Y-98962893D02*
X125730000Y-100220000D01*
X105637818Y-98670000D02*
X102294214Y-98670000D01*
D21*
X69545786Y-100220000D02*
X63500000Y-100220000D01*
D20*
X177787107Y-98962893D02*
X176530000Y-100220000D01*
X203187107Y-98962893D02*
X201930000Y-100220000D01*
X233680000Y-100220000D02*
X229609849Y-100220000D01*
X227231421Y-98670000D02*
X203894214Y-98670000D01*
X151130000Y-100220000D02*
X133416246Y-100220000D01*
X152387107Y-98962893D02*
X151130000Y-100220000D01*
D21*
X74930000Y-95250000D02*
X75887107Y-94292893D01*
D20*
X156437818Y-98670000D02*
X153094214Y-98670000D01*
X178494214Y-98670010D02*
G75*
G03*
X177787107Y-98962893I-14J-999990D01*
G01*
X183509116Y-99927130D02*
G75*
G03*
X184216246Y-100220000I707084J707130D01*
G01*
X227938517Y-98962904D02*
G75*
G03*
X227231421Y-98670000I-707117J-707096D01*
G01*
D21*
X69545786Y-100219990D02*
G75*
G03*
X70252893Y-99927107I14J999990D01*
G01*
D20*
X157144916Y-98962902D02*
G75*
G03*
X156437818Y-98670000I-707116J-707098D01*
G01*
X131744916Y-98962902D02*
G75*
G03*
X131037818Y-98670000I-707116J-707098D01*
G01*
X203894214Y-98670010D02*
G75*
G03*
X203187107Y-98962893I-14J-999990D01*
G01*
X132709116Y-99927130D02*
G75*
G03*
X133416246Y-100220000I707084J707130D01*
G01*
D21*
X94402900Y-94292886D02*
G75*
G03*
X93695786Y-94000000I-707100J-707114D01*
G01*
D20*
X127694214Y-98670010D02*
G75*
G03*
X126987107Y-98962893I-14J-999990D01*
G01*
X102294214Y-98670010D02*
G75*
G03*
X101587107Y-98962893I-14J-999990D01*
G01*
D21*
X76594214Y-94000010D02*
G75*
G03*
X75887107Y-94292893I-14J-999990D01*
G01*
D20*
X153094214Y-98670010D02*
G75*
G03*
X152387107Y-98962893I-14J-999990D01*
G01*
X158109116Y-99927130D02*
G75*
G03*
X158816246Y-100220000I707084J707130D01*
G01*
X107309116Y-99927130D02*
G75*
G03*
X108016246Y-100220000I707084J707130D01*
G01*
X106344916Y-98962902D02*
G75*
G03*
X105637818Y-98670000I-707116J-707098D01*
G01*
X228902718Y-99927131D02*
G75*
G03*
X229609849Y-100220000I707082J707131D01*
G01*
X182544916Y-98962902D02*
G75*
G03*
X181837818Y-98670000I-707116J-707098D01*
G01*
D21*
%TO.N,/K6*%
X74930000Y-97790000D02*
X68832893Y-103887107D01*
D20*
X222210000Y-106070000D02*
X222150000Y-106080000D01*
X222150000Y-134140000D02*
X97964214Y-134140000D01*
X222150000Y-106080000D02*
X222190000Y-106070000D01*
X97257107Y-133847107D02*
X83360000Y-119950000D01*
X222190000Y-106070000D02*
X222200000Y-106070000D01*
D21*
X68125786Y-104180000D02*
X63500000Y-104180000D01*
D20*
X229527107Y-104472893D02*
X228132893Y-105867107D01*
X233680000Y-104180000D02*
X230234214Y-104180000D01*
X227425786Y-106160000D02*
X222150000Y-106160000D01*
X230234214Y-104180010D02*
G75*
G03*
X229527107Y-104472893I-14J-999990D01*
G01*
D21*
X68125786Y-104179990D02*
G75*
G03*
X68832893Y-103887107I14J999990D01*
G01*
D20*
X227425786Y-106159990D02*
G75*
G03*
X228132893Y-105867107I14J999990D01*
G01*
X97257100Y-133847114D02*
G75*
G03*
X97964214Y-134140000I707100J707114D01*
G01*
D21*
%TO.N,/SST*%
X67478019Y-108140000D02*
X63500000Y-108140000D01*
X74637107Y-101395126D02*
X68185126Y-107847107D01*
D20*
X227855786Y-110120000D02*
X224580000Y-110120000D01*
X81815635Y-116000000D02*
X81810000Y-116000000D01*
X233680000Y-108140000D02*
X230664214Y-108140000D01*
X229957107Y-108432893D02*
X228562893Y-109827107D01*
X98112742Y-132297107D02*
X81815635Y-116000000D01*
D21*
X74930000Y-100330000D02*
X74930000Y-100688019D01*
D20*
X224580000Y-132590000D02*
X98819849Y-132590000D01*
X227855786Y-110119990D02*
G75*
G03*
X228562893Y-109827107I14J999990D01*
G01*
D21*
X74637097Y-101395116D02*
G75*
G03*
X74930000Y-100688019I-707097J707116D01*
G01*
X67478019Y-108140013D02*
G75*
G03*
X68185125Y-107847106I-19J1000013D01*
G01*
D20*
X230664214Y-108140010D02*
G75*
G03*
X229957107Y-108432893I-14J-999990D01*
G01*
X98112718Y-132297131D02*
G75*
G03*
X98819849Y-132590000I707082J707131D01*
G01*
D22*
%TO.N,+5V*%
X73660000Y-123980000D02*
X72390000Y-123980000D01*
X78895000Y-123980000D02*
X73660000Y-123980000D01*
X220820000Y-140970000D02*
X218440000Y-140970000D01*
X95885000Y-140970000D02*
X78895000Y-123980000D01*
D23*
X74930000Y-110490000D02*
X72682893Y-112737107D01*
D22*
X230094874Y-123980000D02*
X228034874Y-121920000D01*
X233680000Y-123980000D02*
X230094874Y-123980000D01*
X228440000Y-148590000D02*
X220820000Y-140970000D01*
X228034874Y-121920000D02*
X218440000Y-121920000D01*
D23*
X72390000Y-113444214D02*
X72390000Y-123980000D01*
D22*
X218440000Y-140970000D02*
X95885000Y-140970000D01*
X72390000Y-123980000D02*
X63500000Y-123980000D01*
D23*
X72682886Y-112737100D02*
G75*
G03*
X72390000Y-113444214I707114J-707100D01*
G01*
D22*
%TO.N,GND*%
X233680000Y-127940000D02*
X233680000Y-130810000D01*
X63500000Y-127940000D02*
X70790000Y-127940000D01*
X233680000Y-130810000D02*
X233680000Y-132080000D01*
X70790000Y-127940000D02*
X71120000Y-128270000D01*
%TO.N,+16V_RAW*%
X218440000Y-148590000D02*
X214630000Y-144780000D01*
X214630000Y-144780000D02*
X209550000Y-144780000D01*
X209550000Y-144780000D02*
X107950000Y-144780000D01*
%TO.N,+7.5V_RAW*%
X195580000Y-148590000D02*
X92710000Y-148590000D01*
X213440000Y-148590000D02*
X195580000Y-148590000D01*
D20*
%TO.N,/A0*%
X125847818Y-46440000D02*
X107484214Y-46440000D01*
X156210000Y-44780000D02*
X153736246Y-44780000D01*
D21*
X102724113Y-44780000D02*
X105410000Y-44780000D01*
D20*
X153029139Y-45072893D02*
X152064925Y-46037107D01*
X106777107Y-46147107D02*
X105410000Y-44780000D01*
D21*
X77470000Y-59690000D02*
X86985685Y-59690000D01*
D20*
X127629139Y-45072893D02*
X126554925Y-46147107D01*
X207010000Y-44780000D02*
X204536246Y-44780000D01*
X203829139Y-45072893D02*
X202864925Y-46037107D01*
X181610000Y-44780000D02*
X179136246Y-44780000D01*
X157567107Y-46137107D02*
X156210000Y-44780000D01*
X130810000Y-44780000D02*
X128336246Y-44780000D01*
X227620000Y-44780000D02*
X207010000Y-44780000D01*
X176657818Y-46430000D02*
X158274214Y-46430000D01*
X151357818Y-46330000D02*
X132774214Y-46330000D01*
D21*
X87692792Y-59397107D02*
X102017006Y-45072893D01*
D20*
X202157818Y-46330000D02*
X183574214Y-46330000D01*
X182867107Y-46037107D02*
X181610000Y-44780000D01*
X132067107Y-46037107D02*
X130810000Y-44780000D01*
X178429139Y-45072893D02*
X177364925Y-46137107D01*
D21*
X86985685Y-59689989D02*
G75*
G03*
X87692792Y-59397107I15J999989D01*
G01*
D20*
X106777100Y-46147114D02*
G75*
G03*
X107484214Y-46440000I707100J707114D01*
G01*
X132067100Y-46037114D02*
G75*
G03*
X132774214Y-46330000I707100J707114D01*
G01*
X157567100Y-46137114D02*
G75*
G03*
X158274214Y-46430000I707100J707114D01*
G01*
D21*
X102724113Y-44780009D02*
G75*
G03*
X102017006Y-45072893I-13J-999991D01*
G01*
D20*
X151357818Y-46330013D02*
G75*
G03*
X152064925Y-46037107I-18J1000013D01*
G01*
X128336246Y-44780033D02*
G75*
G03*
X127629140Y-45072894I-46J-999967D01*
G01*
X204536246Y-44780033D02*
G75*
G03*
X203829140Y-45072894I-46J-999967D01*
G01*
X153736246Y-44780033D02*
G75*
G03*
X153029140Y-45072894I-46J-999967D01*
G01*
X125847818Y-46440013D02*
G75*
G03*
X126554925Y-46147107I-18J1000013D01*
G01*
X176657818Y-46430013D02*
G75*
G03*
X177364925Y-46137107I-18J1000013D01*
G01*
X202157818Y-46330013D02*
G75*
G03*
X202864925Y-46037107I-18J1000013D01*
G01*
X182867100Y-46037114D02*
G75*
G03*
X183574214Y-46330000I707100J707114D01*
G01*
X179136246Y-44780033D02*
G75*
G03*
X178429140Y-45072894I-46J-999967D01*
G01*
%TO.N,/A1*%
X130810000Y-48740000D02*
X128336246Y-48740000D01*
X156210000Y-48740000D02*
X153736246Y-48740000D01*
X127629139Y-49032893D02*
X126664925Y-49997107D01*
D21*
X77470000Y-62230000D02*
X88405887Y-62230000D01*
D20*
X153029139Y-49032893D02*
X152064925Y-49997107D01*
X151357818Y-50290000D02*
X132774214Y-50290000D01*
X182867107Y-49997107D02*
X181610000Y-48740000D01*
X176757818Y-50290000D02*
X158174214Y-50290000D01*
X207010000Y-48740000D02*
X204536246Y-48740000D01*
X178429139Y-49032893D02*
X177464925Y-49997107D01*
X125957818Y-50290000D02*
X107374214Y-50290000D01*
X203829139Y-49032893D02*
X202864925Y-49997107D01*
X132067107Y-49997107D02*
X130810000Y-48740000D01*
X181610000Y-48740000D02*
X179136246Y-48740000D01*
D21*
X102724315Y-48740000D02*
X105410000Y-48740000D01*
D20*
X202157818Y-50290000D02*
X183574214Y-50290000D01*
X157467107Y-49997107D02*
X156210000Y-48740000D01*
X227620000Y-48740000D02*
X207010000Y-48740000D01*
D21*
X89112994Y-61937107D02*
X102017208Y-49032893D01*
D20*
X106667107Y-49997107D02*
X105410000Y-48740000D01*
X202157818Y-50290013D02*
G75*
G03*
X202864925Y-49997107I-18J1000013D01*
G01*
X128336246Y-48740033D02*
G75*
G03*
X127629140Y-49032894I-46J-999967D01*
G01*
X106667100Y-49997114D02*
G75*
G03*
X107374214Y-50290000I707100J707114D01*
G01*
D21*
X88405887Y-62229991D02*
G75*
G03*
X89112994Y-61937107I13J999991D01*
G01*
D20*
X179136246Y-48740033D02*
G75*
G03*
X178429140Y-49032894I-46J-999967D01*
G01*
X153736246Y-48740033D02*
G75*
G03*
X153029140Y-49032894I-46J-999967D01*
G01*
X132067100Y-49997114D02*
G75*
G03*
X132774214Y-50290000I707100J707114D01*
G01*
X151357818Y-50290013D02*
G75*
G03*
X152064925Y-49997107I-18J1000013D01*
G01*
X182867100Y-49997114D02*
G75*
G03*
X183574214Y-50290000I707100J707114D01*
G01*
X176757818Y-50290013D02*
G75*
G03*
X177464925Y-49997107I-18J1000013D01*
G01*
X125957818Y-50290013D02*
G75*
G03*
X126664925Y-49997107I-18J1000013D01*
G01*
D21*
X102724315Y-48740011D02*
G75*
G03*
X102017208Y-49032893I-15J-999989D01*
G01*
D20*
X204536246Y-48740033D02*
G75*
G03*
X203829140Y-49032894I-46J-999967D01*
G01*
X157467100Y-49997114D02*
G75*
G03*
X158174214Y-50290000I707100J707114D01*
G01*
D21*
%TO.N,/A2*%
X90532994Y-64477107D02*
X102017208Y-52992893D01*
X102724315Y-52700000D02*
X105410000Y-52700000D01*
D20*
X203829139Y-52992893D02*
X202864925Y-53957107D01*
X156210000Y-52700000D02*
X153736246Y-52700000D01*
X227620000Y-52700000D02*
X207010000Y-52700000D01*
X126452994Y-54250000D02*
X107374214Y-54250000D01*
X182867107Y-53957107D02*
X181610000Y-52700000D01*
X157467107Y-53957107D02*
X156210000Y-52700000D01*
X128124315Y-52992893D02*
X127160101Y-53957107D01*
X132067107Y-53957107D02*
X130810000Y-52700000D01*
X181610000Y-52700000D02*
X179136246Y-52700000D01*
X176757818Y-54250000D02*
X158174214Y-54250000D01*
X130810000Y-52700000D02*
X128831422Y-52700000D01*
X106667107Y-53957107D02*
X105410000Y-52700000D01*
X178429139Y-52992893D02*
X177464925Y-53957107D01*
D21*
X77470000Y-64770000D02*
X89825887Y-64770000D01*
D20*
X153029139Y-52992893D02*
X152064925Y-53957107D01*
X151357818Y-54250000D02*
X132774214Y-54250000D01*
X202157818Y-54250000D02*
X183574214Y-54250000D01*
X207010000Y-52700000D02*
X204536246Y-52700000D01*
D21*
X102724315Y-52700011D02*
G75*
G03*
X102017208Y-52992893I-15J-999989D01*
G01*
D20*
X182867100Y-53957114D02*
G75*
G03*
X183574214Y-54250000I707100J707114D01*
G01*
X151357818Y-54250013D02*
G75*
G03*
X152064925Y-53957107I-18J1000013D01*
G01*
X132067100Y-53957114D02*
G75*
G03*
X132774214Y-54250000I707100J707114D01*
G01*
X153736246Y-52700033D02*
G75*
G03*
X153029140Y-52992894I-46J-999967D01*
G01*
X204536246Y-52700033D02*
G75*
G03*
X203829140Y-52992894I-46J-999967D01*
G01*
X202157818Y-54250013D02*
G75*
G03*
X202864925Y-53957107I-18J1000013D01*
G01*
X126452994Y-54249996D02*
G75*
G03*
X127160101Y-53957107I6J999996D01*
G01*
X157467100Y-53957114D02*
G75*
G03*
X158174214Y-54250000I707100J707114D01*
G01*
X106667100Y-53957114D02*
G75*
G03*
X107374214Y-54250000I707100J707114D01*
G01*
X128831422Y-52700016D02*
G75*
G03*
X128124316Y-52992894I-22J-999984D01*
G01*
D21*
X89825887Y-64769991D02*
G75*
G03*
X90532994Y-64477107I13J999991D01*
G01*
D20*
X176757818Y-54250013D02*
G75*
G03*
X177464925Y-53957107I-18J1000013D01*
G01*
X179136246Y-52700033D02*
G75*
G03*
X178429140Y-52992894I-46J-999967D01*
G01*
%TO.N,/A3*%
X130810000Y-56660000D02*
X128336246Y-56660000D01*
X153029139Y-56952893D02*
X152064925Y-57917107D01*
X182867107Y-57917107D02*
X181610000Y-56660000D01*
D21*
X102724315Y-56660000D02*
X105410000Y-56660000D01*
D20*
X151357818Y-58210000D02*
X132774214Y-58210000D01*
X227620000Y-56660000D02*
X207010000Y-56660000D01*
X106667107Y-57917107D02*
X105410000Y-56660000D01*
X203829139Y-56952893D02*
X202864925Y-57917107D01*
X132067107Y-57917107D02*
X130810000Y-56660000D01*
D21*
X77470000Y-67310000D02*
X91245887Y-67310000D01*
D20*
X181610000Y-56660000D02*
X179136246Y-56660000D01*
X207010000Y-56660000D02*
X204536246Y-56660000D01*
X125957818Y-58210000D02*
X107374214Y-58210000D01*
D21*
X91952994Y-67017107D02*
X102017208Y-56952893D01*
D20*
X157487107Y-57937107D02*
X156210000Y-56660000D01*
X202157818Y-58210000D02*
X183574214Y-58210000D01*
X176737818Y-58230000D02*
X158194214Y-58230000D01*
X178429139Y-56952893D02*
X177444925Y-57937107D01*
X127629139Y-56952893D02*
X126664925Y-57917107D01*
X156210000Y-56660000D02*
X153736246Y-56660000D01*
X128336246Y-56660033D02*
G75*
G03*
X127629140Y-56952894I-46J-999967D01*
G01*
X204536246Y-56660033D02*
G75*
G03*
X203829140Y-56952894I-46J-999967D01*
G01*
X151357818Y-58210013D02*
G75*
G03*
X152064925Y-57917107I-18J1000013D01*
G01*
X182867100Y-57917114D02*
G75*
G03*
X183574214Y-58210000I707100J707114D01*
G01*
D21*
X91245887Y-67309991D02*
G75*
G03*
X91952994Y-67017107I13J999991D01*
G01*
D20*
X153736246Y-56660033D02*
G75*
G03*
X153029140Y-56952894I-46J-999967D01*
G01*
X179136246Y-56660033D02*
G75*
G03*
X178429140Y-56952894I-46J-999967D01*
G01*
X157487100Y-57937114D02*
G75*
G03*
X158194214Y-58230000I707100J707114D01*
G01*
X176737818Y-58230013D02*
G75*
G03*
X177444925Y-57937107I-18J1000013D01*
G01*
X125957818Y-58210013D02*
G75*
G03*
X126664925Y-57917107I-18J1000013D01*
G01*
X132067100Y-57917114D02*
G75*
G03*
X132774214Y-58210000I707100J707114D01*
G01*
X202157818Y-58210013D02*
G75*
G03*
X202864925Y-57917107I-18J1000013D01*
G01*
D21*
X102724315Y-56660011D02*
G75*
G03*
X102017208Y-56952893I-15J-999989D01*
G01*
D20*
X106667100Y-57917114D02*
G75*
G03*
X107374214Y-58210000I707100J707114D01*
G01*
D21*
%TO.N,/A4*%
X77470000Y-69850000D02*
X92665887Y-69850000D01*
D20*
X227620000Y-60620000D02*
X207010000Y-60620000D01*
X106667107Y-61877107D02*
X105410000Y-60620000D01*
X151357818Y-62170000D02*
X132774214Y-62170000D01*
X202157818Y-62170000D02*
X183574214Y-62170000D01*
X156210000Y-60620000D02*
X153736246Y-60620000D01*
X181610000Y-60620000D02*
X179136246Y-60620000D01*
X157467107Y-61877107D02*
X156210000Y-60620000D01*
X182867107Y-61877107D02*
X181610000Y-60620000D01*
X125957818Y-62170000D02*
X107374214Y-62170000D01*
X176757818Y-62170000D02*
X158174214Y-62170000D01*
X207010000Y-60620000D02*
X204536246Y-60620000D01*
X203829139Y-60912893D02*
X202864925Y-61877107D01*
D21*
X102724315Y-60620000D02*
X105410000Y-60620000D01*
X93372994Y-69557107D02*
X102017208Y-60912893D01*
D20*
X178429139Y-60912893D02*
X177464925Y-61877107D01*
X132067107Y-61877107D02*
X130810000Y-60620000D01*
X153029139Y-60912893D02*
X152064925Y-61877107D01*
X130810000Y-60620000D02*
X128336246Y-60620000D01*
X127629139Y-60912893D02*
X126664925Y-61877107D01*
D21*
X92665887Y-69849991D02*
G75*
G03*
X93372994Y-69557107I13J999991D01*
G01*
D20*
X176757818Y-62170013D02*
G75*
G03*
X177464925Y-61877107I-18J1000013D01*
G01*
X157467100Y-61877114D02*
G75*
G03*
X158174214Y-62170000I707100J707114D01*
G01*
X153736246Y-60620033D02*
G75*
G03*
X153029140Y-60912894I-46J-999967D01*
G01*
D21*
X102724315Y-60620011D02*
G75*
G03*
X102017208Y-60912893I-15J-999989D01*
G01*
D20*
X128336246Y-60620033D02*
G75*
G03*
X127629140Y-60912894I-46J-999967D01*
G01*
X202157818Y-62170013D02*
G75*
G03*
X202864925Y-61877107I-18J1000013D01*
G01*
X182867100Y-61877114D02*
G75*
G03*
X183574214Y-62170000I707100J707114D01*
G01*
X106667100Y-61877114D02*
G75*
G03*
X107374214Y-62170000I707100J707114D01*
G01*
X179136246Y-60620033D02*
G75*
G03*
X178429140Y-60912894I-46J-999967D01*
G01*
X125957818Y-62170013D02*
G75*
G03*
X126664925Y-61877107I-18J1000013D01*
G01*
X151357818Y-62170013D02*
G75*
G03*
X152064925Y-61877107I-18J1000013D01*
G01*
X132067100Y-61877114D02*
G75*
G03*
X132774214Y-62170000I707100J707114D01*
G01*
X204536246Y-60620033D02*
G75*
G03*
X203829140Y-60912894I-46J-999967D01*
G01*
%TO.N,/A5*%
X156210000Y-64580000D02*
X153736246Y-64580000D01*
X181610000Y-64580000D02*
X179136246Y-64580000D01*
X153029139Y-64872893D02*
X152064925Y-65837107D01*
X207010000Y-64580000D02*
X204536246Y-64580000D01*
X106667107Y-65837107D02*
X105410000Y-64580000D01*
X130810000Y-64580000D02*
X128336246Y-64580000D01*
D21*
X102724315Y-64580000D02*
X105410000Y-64580000D01*
D20*
X178429139Y-64872893D02*
X177404925Y-65897107D01*
D21*
X77470000Y-72390000D02*
X94085887Y-72390000D01*
D20*
X151357818Y-66130000D02*
X132774214Y-66130000D01*
X182867107Y-65837107D02*
X181610000Y-64580000D01*
X125957818Y-66130000D02*
X107374214Y-66130000D01*
D21*
X94792994Y-72097107D02*
X102017208Y-64872893D01*
D20*
X132067107Y-65837107D02*
X130810000Y-64580000D01*
X176697818Y-66190000D02*
X158234214Y-66190000D01*
X203829139Y-64872893D02*
X202864925Y-65837107D01*
X227620000Y-64580000D02*
X207010000Y-64580000D01*
X157527107Y-65897107D02*
X156210000Y-64580000D01*
X127629139Y-64872893D02*
X126664925Y-65837107D01*
X202157818Y-66130000D02*
X183574214Y-66130000D01*
X157527100Y-65897114D02*
G75*
G03*
X158234214Y-66190000I707100J707114D01*
G01*
X179136246Y-64580033D02*
G75*
G03*
X178429140Y-64872894I-46J-999967D01*
G01*
D21*
X102724315Y-64580011D02*
G75*
G03*
X102017208Y-64872893I-15J-999989D01*
G01*
X94085887Y-72389991D02*
G75*
G03*
X94792994Y-72097107I13J999991D01*
G01*
D20*
X125957818Y-66130013D02*
G75*
G03*
X126664925Y-65837107I-18J1000013D01*
G01*
X153736246Y-64580033D02*
G75*
G03*
X153029140Y-64872894I-46J-999967D01*
G01*
X128336246Y-64580033D02*
G75*
G03*
X127629140Y-64872894I-46J-999967D01*
G01*
X132067100Y-65837114D02*
G75*
G03*
X132774214Y-66130000I707100J707114D01*
G01*
X182867100Y-65837114D02*
G75*
G03*
X183574214Y-66130000I707100J707114D01*
G01*
X106667100Y-65837114D02*
G75*
G03*
X107374214Y-66130000I707100J707114D01*
G01*
X202157818Y-66130013D02*
G75*
G03*
X202864925Y-65837107I-18J1000013D01*
G01*
X151357818Y-66130013D02*
G75*
G03*
X152064925Y-65837107I-18J1000013D01*
G01*
X176697818Y-66190013D02*
G75*
G03*
X177404925Y-65897107I-18J1000013D01*
G01*
X204536246Y-64580033D02*
G75*
G03*
X203829140Y-64872894I-46J-999967D01*
G01*
%TO.N,/A6*%
X203829139Y-68832893D02*
X202864925Y-69797107D01*
X227640000Y-68540000D02*
X207010000Y-68540000D01*
D21*
X102724315Y-68540000D02*
X105410000Y-68540000D01*
D20*
X151357818Y-70090000D02*
X132774214Y-70090000D01*
X125957818Y-70090000D02*
X107374214Y-70090000D01*
X106667107Y-69797107D02*
X105410000Y-68540000D01*
X176757818Y-70090000D02*
X158174214Y-70090000D01*
X207010000Y-68540000D02*
X204536246Y-68540000D01*
D21*
X96212994Y-74637107D02*
X102017208Y-68832893D01*
D20*
X132067107Y-69797107D02*
X130810000Y-68540000D01*
X153029139Y-68832893D02*
X152064925Y-69797107D01*
X127629139Y-68832893D02*
X126664925Y-69797107D01*
X182867107Y-69797107D02*
X181610000Y-68540000D01*
X181610000Y-68540000D02*
X179136246Y-68540000D01*
D21*
X77470000Y-74930000D02*
X95505887Y-74930000D01*
D20*
X156210000Y-68540000D02*
X153736246Y-68540000D01*
X130810000Y-68540000D02*
X128336246Y-68540000D01*
X202157818Y-70090000D02*
X183574214Y-70090000D01*
X157467107Y-69797107D02*
X156210000Y-68540000D01*
X178429139Y-68832893D02*
X177464925Y-69797107D01*
X106667100Y-69797114D02*
G75*
G03*
X107374214Y-70090000I707100J707114D01*
G01*
X202157818Y-70090013D02*
G75*
G03*
X202864925Y-69797107I-18J1000013D01*
G01*
X132067100Y-69797114D02*
G75*
G03*
X132774214Y-70090000I707100J707114D01*
G01*
X176757818Y-70090013D02*
G75*
G03*
X177464925Y-69797107I-18J1000013D01*
G01*
X182867100Y-69797114D02*
G75*
G03*
X183574214Y-70090000I707100J707114D01*
G01*
D21*
X102724315Y-68540011D02*
G75*
G03*
X102017208Y-68832893I-15J-999989D01*
G01*
D20*
X204536246Y-68540033D02*
G75*
G03*
X203829140Y-68832894I-46J-999967D01*
G01*
X151357818Y-70090013D02*
G75*
G03*
X152064925Y-69797107I-18J1000013D01*
G01*
X179136246Y-68540033D02*
G75*
G03*
X178429140Y-68832894I-46J-999967D01*
G01*
X125957818Y-70090013D02*
G75*
G03*
X126664925Y-69797107I-18J1000013D01*
G01*
X153736246Y-68540033D02*
G75*
G03*
X153029140Y-68832894I-46J-999967D01*
G01*
X157467100Y-69797114D02*
G75*
G03*
X158174214Y-70090000I707100J707114D01*
G01*
X128336246Y-68540033D02*
G75*
G03*
X127629140Y-68832894I-46J-999967D01*
G01*
D21*
X95505887Y-74929991D02*
G75*
G03*
X96212994Y-74637107I13J999991D01*
G01*
%TO.N,/A7*%
X97632994Y-77177107D02*
X102017208Y-72792893D01*
D20*
X151357818Y-74050000D02*
X132774214Y-74050000D01*
X132067107Y-73757107D02*
X130810000Y-72500000D01*
X130810000Y-72500000D02*
X128336246Y-72500000D01*
X178429139Y-72792893D02*
X177454925Y-73767107D01*
X227620000Y-72500000D02*
X207010000Y-72500000D01*
X203829139Y-72792893D02*
X202864925Y-73757107D01*
X157477107Y-73767107D02*
X156210000Y-72500000D01*
X125957818Y-74050000D02*
X107374214Y-74050000D01*
X127629139Y-72792893D02*
X126664925Y-73757107D01*
X156210000Y-72500000D02*
X153736246Y-72500000D01*
D21*
X102724315Y-72500000D02*
X105410000Y-72500000D01*
D20*
X153029139Y-72792893D02*
X152064925Y-73757107D01*
X106667107Y-73757107D02*
X105410000Y-72500000D01*
X182867107Y-73757107D02*
X181610000Y-72500000D01*
D21*
X77470000Y-77470000D02*
X96925887Y-77470000D01*
D20*
X176747818Y-74060000D02*
X158184214Y-74060000D01*
X207010000Y-72500000D02*
X204536246Y-72500000D01*
X202157818Y-74050000D02*
X183574214Y-74050000D01*
X181610000Y-72500000D02*
X179136246Y-72500000D01*
X151357818Y-74050013D02*
G75*
G03*
X152064925Y-73757107I-18J1000013D01*
G01*
X132067100Y-73757114D02*
G75*
G03*
X132774214Y-74050000I707100J707114D01*
G01*
X176747818Y-74060013D02*
G75*
G03*
X177454925Y-73767107I-18J1000013D01*
G01*
X106667100Y-73757114D02*
G75*
G03*
X107374214Y-74050000I707100J707114D01*
G01*
X125957818Y-74050013D02*
G75*
G03*
X126664925Y-73757107I-18J1000013D01*
G01*
X202157818Y-74050013D02*
G75*
G03*
X202864925Y-73757107I-18J1000013D01*
G01*
X182867100Y-73757114D02*
G75*
G03*
X183574214Y-74050000I707100J707114D01*
G01*
X153736246Y-72500033D02*
G75*
G03*
X153029140Y-72792894I-46J-999967D01*
G01*
X204536246Y-72500033D02*
G75*
G03*
X203829140Y-72792894I-46J-999967D01*
G01*
D21*
X102724315Y-72500011D02*
G75*
G03*
X102017208Y-72792893I-15J-999989D01*
G01*
D20*
X179136246Y-72500033D02*
G75*
G03*
X178429140Y-72792894I-46J-999967D01*
G01*
X128336246Y-72500033D02*
G75*
G03*
X127629140Y-72792894I-46J-999967D01*
G01*
X157477100Y-73767114D02*
G75*
G03*
X158184214Y-74060000I707100J707114D01*
G01*
D21*
X96925887Y-77469991D02*
G75*
G03*
X97632994Y-77177107I13J999991D01*
G01*
D20*
%TO.N,/A8*%
X132067107Y-77717107D02*
X130810000Y-76460000D01*
X151357818Y-78010000D02*
X132774214Y-78010000D01*
X207010000Y-76460000D02*
X204536246Y-76460000D01*
X156210000Y-76460000D02*
X153736246Y-76460000D01*
D21*
X77470000Y-80010000D02*
X98345887Y-80010000D01*
D20*
X182867107Y-77717107D02*
X181610000Y-76460000D01*
X125957818Y-78010000D02*
X107374214Y-78010000D01*
X153029139Y-76752893D02*
X152064925Y-77717107D01*
X106667107Y-77717107D02*
X105410000Y-76460000D01*
X157467107Y-77717107D02*
X156210000Y-76460000D01*
D21*
X102724315Y-76460000D02*
X105410000Y-76460000D01*
D20*
X227620000Y-76460000D02*
X207010000Y-76460000D01*
X176757818Y-78010000D02*
X158174214Y-78010000D01*
X181610000Y-76460000D02*
X179136246Y-76460000D01*
X202157818Y-78010000D02*
X183574214Y-78010000D01*
X130810000Y-76460000D02*
X128336246Y-76460000D01*
X203829139Y-76752893D02*
X202864925Y-77717107D01*
X127629139Y-76752893D02*
X126664925Y-77717107D01*
D21*
X99052994Y-79717107D02*
X102017208Y-76752893D01*
D20*
X178429139Y-76752893D02*
X177464925Y-77717107D01*
X132067100Y-77717114D02*
G75*
G03*
X132774214Y-78010000I707100J707114D01*
G01*
X202157818Y-78010013D02*
G75*
G03*
X202864925Y-77717107I-18J1000013D01*
G01*
X157467100Y-77717114D02*
G75*
G03*
X158174214Y-78010000I707100J707114D01*
G01*
X176757818Y-78010013D02*
G75*
G03*
X177464925Y-77717107I-18J1000013D01*
G01*
D21*
X102724315Y-76460011D02*
G75*
G03*
X102017208Y-76752893I-15J-999989D01*
G01*
D20*
X182867100Y-77717114D02*
G75*
G03*
X183574214Y-78010000I707100J707114D01*
G01*
X125957818Y-78010013D02*
G75*
G03*
X126664925Y-77717107I-18J1000013D01*
G01*
X106667100Y-77717114D02*
G75*
G03*
X107374214Y-78010000I707100J707114D01*
G01*
X204536246Y-76460033D02*
G75*
G03*
X203829140Y-76752894I-46J-999967D01*
G01*
X151357818Y-78010013D02*
G75*
G03*
X152064925Y-77717107I-18J1000013D01*
G01*
X153736246Y-76460033D02*
G75*
G03*
X153029140Y-76752894I-46J-999967D01*
G01*
X128336246Y-76460033D02*
G75*
G03*
X127629140Y-76752894I-46J-999967D01*
G01*
X179136246Y-76460033D02*
G75*
G03*
X178429140Y-76752894I-46J-999967D01*
G01*
D21*
X98345887Y-80009991D02*
G75*
G03*
X99052994Y-79717107I13J999991D01*
G01*
D20*
%TO.N,/A9*%
X176757818Y-81970000D02*
X158174214Y-81970000D01*
X125957818Y-81970000D02*
X107374214Y-81970000D01*
D21*
X100472792Y-82257107D02*
X102017006Y-80712893D01*
D20*
X127629139Y-80712893D02*
X126664925Y-81677107D01*
X227620000Y-80420000D02*
X207010000Y-80420000D01*
X182867107Y-81677107D02*
X181610000Y-80420000D01*
X181610000Y-80420000D02*
X179136246Y-80420000D01*
X132067107Y-81677107D02*
X130810000Y-80420000D01*
X130810000Y-80420000D02*
X128336246Y-80420000D01*
X202157818Y-81970000D02*
X183574214Y-81970000D01*
X157467107Y-81677107D02*
X156210000Y-80420000D01*
D21*
X77470000Y-82550000D02*
X99765685Y-82550000D01*
D20*
X207010000Y-80420000D02*
X204536246Y-80420000D01*
X203829139Y-80712893D02*
X202864925Y-81677107D01*
X151357818Y-81970000D02*
X132774214Y-81970000D01*
X156210000Y-80420000D02*
X153736246Y-80420000D01*
X153029139Y-80712893D02*
X152064925Y-81677107D01*
X106667107Y-81677107D02*
X105410000Y-80420000D01*
X178429139Y-80712893D02*
X177464925Y-81677107D01*
D21*
X102724113Y-80420000D02*
X105410000Y-80420000D01*
D20*
X204536246Y-80420033D02*
G75*
G03*
X203829140Y-80712894I-46J-999967D01*
G01*
X176757818Y-81970013D02*
G75*
G03*
X177464925Y-81677107I-18J1000013D01*
G01*
X125957818Y-81970013D02*
G75*
G03*
X126664925Y-81677107I-18J1000013D01*
G01*
X157467100Y-81677114D02*
G75*
G03*
X158174214Y-81970000I707100J707114D01*
G01*
X153736246Y-80420033D02*
G75*
G03*
X153029140Y-80712894I-46J-999967D01*
G01*
X106667100Y-81677114D02*
G75*
G03*
X107374214Y-81970000I707100J707114D01*
G01*
X182867100Y-81677114D02*
G75*
G03*
X183574214Y-81970000I707100J707114D01*
G01*
X179136246Y-80420033D02*
G75*
G03*
X178429140Y-80712894I-46J-999967D01*
G01*
X132067100Y-81677114D02*
G75*
G03*
X132774214Y-81970000I707100J707114D01*
G01*
X202157818Y-81970013D02*
G75*
G03*
X202864925Y-81677107I-18J1000013D01*
G01*
X128336246Y-80420033D02*
G75*
G03*
X127629140Y-80712894I-46J-999967D01*
G01*
X151357818Y-81970013D02*
G75*
G03*
X152064925Y-81677107I-18J1000013D01*
G01*
D21*
X99765685Y-82549989D02*
G75*
G03*
X100472792Y-82257107I15J999989D01*
G01*
X102724113Y-80420009D02*
G75*
G03*
X102017006Y-80712893I-13J-999991D01*
G01*
D20*
%TO.N,/A10*%
X207010000Y-84380000D02*
X204536246Y-84380000D01*
X202157818Y-85930000D02*
X183574214Y-85930000D01*
X125957818Y-85930000D02*
X107374214Y-85930000D01*
X156210000Y-84380000D02*
X153736246Y-84380000D01*
X151357818Y-85930000D02*
X132774214Y-85930000D01*
X153029139Y-84672893D02*
X152064925Y-85637107D01*
X181610000Y-84380000D02*
X179136246Y-84380000D01*
D21*
X104302893Y-85487107D02*
X105410000Y-84380000D01*
D20*
X176757818Y-85930000D02*
X158174214Y-85930000D01*
X130810000Y-84380000D02*
X128336246Y-84380000D01*
D21*
X100164315Y-85780000D02*
X103595786Y-85780000D01*
D20*
X203829139Y-84672893D02*
X202864925Y-85637107D01*
X227620000Y-84380000D02*
X207010000Y-84380000D01*
X127629139Y-84672893D02*
X126664925Y-85637107D01*
X178429139Y-84672893D02*
X177464925Y-85637107D01*
X182867107Y-85637107D02*
X181610000Y-84380000D01*
D21*
X77470000Y-85090000D02*
X98645887Y-85090000D01*
D20*
X157467107Y-85637107D02*
X156210000Y-84380000D01*
D21*
X99352994Y-85382893D02*
X99457208Y-85487107D01*
D20*
X132067107Y-85637107D02*
X130810000Y-84380000D01*
X106667107Y-85637107D02*
X105410000Y-84380000D01*
D21*
X99457201Y-85487114D02*
G75*
G03*
X100164315Y-85780000I707099J707114D01*
G01*
D20*
X182867100Y-85637114D02*
G75*
G03*
X183574214Y-85930000I707100J707114D01*
G01*
X132067100Y-85637114D02*
G75*
G03*
X132774214Y-85930000I707100J707114D01*
G01*
X153736246Y-84380033D02*
G75*
G03*
X153029140Y-84672894I-46J-999967D01*
G01*
X106667100Y-85637114D02*
G75*
G03*
X107374214Y-85930000I707100J707114D01*
G01*
X125957818Y-85930013D02*
G75*
G03*
X126664925Y-85637107I-18J1000013D01*
G01*
X204536246Y-84380033D02*
G75*
G03*
X203829140Y-84672894I-46J-999967D01*
G01*
X151357818Y-85930013D02*
G75*
G03*
X152064925Y-85637107I-18J1000013D01*
G01*
X128336246Y-84380033D02*
G75*
G03*
X127629140Y-84672894I-46J-999967D01*
G01*
X157467100Y-85637114D02*
G75*
G03*
X158174214Y-85930000I707100J707114D01*
G01*
D21*
X103595786Y-85779990D02*
G75*
G03*
X104302893Y-85487107I14J999990D01*
G01*
D20*
X179136246Y-84380033D02*
G75*
G03*
X178429140Y-84672894I-46J-999967D01*
G01*
X176757818Y-85930013D02*
G75*
G03*
X177464925Y-85637107I-18J1000013D01*
G01*
D21*
X99353000Y-85382887D02*
G75*
G03*
X98645887Y-85090000I-707100J-707113D01*
G01*
D20*
X202157818Y-85930013D02*
G75*
G03*
X202864925Y-85637107I-18J1000013D01*
G01*
%TO.N,/A11*%
X130810000Y-88340000D02*
X128336246Y-88340000D01*
X156210000Y-88340000D02*
X153736246Y-88340000D01*
X125957818Y-89890000D02*
X107374214Y-89890000D01*
X151357818Y-89890000D02*
X132774214Y-89890000D01*
D21*
X104302893Y-89447107D02*
X105410000Y-88340000D01*
D20*
X127629139Y-88632893D02*
X126664925Y-89597107D01*
D21*
X97932994Y-87922893D02*
X99457208Y-89447107D01*
D20*
X227620000Y-88340000D02*
X207010000Y-88340000D01*
X178429139Y-88632893D02*
X177384925Y-89677107D01*
X176677818Y-89970000D02*
X158254214Y-89970000D01*
X106667107Y-89597107D02*
X105410000Y-88340000D01*
D21*
X77470000Y-87630000D02*
X97225887Y-87630000D01*
X100164315Y-89740000D02*
X103595786Y-89740000D01*
D20*
X207010000Y-88340000D02*
X204536246Y-88340000D01*
X202157818Y-89890000D02*
X183574214Y-89890000D01*
X203829139Y-88632893D02*
X202864925Y-89597107D01*
X182867107Y-89597107D02*
X181610000Y-88340000D01*
X153029139Y-88632893D02*
X152064925Y-89597107D01*
X157547107Y-89677107D02*
X156210000Y-88340000D01*
X181610000Y-88340000D02*
X179136246Y-88340000D01*
X132067107Y-89597107D02*
X130810000Y-88340000D01*
X176677818Y-89970013D02*
G75*
G03*
X177384925Y-89677107I-18J1000013D01*
G01*
X125957818Y-89890013D02*
G75*
G03*
X126664925Y-89597107I-18J1000013D01*
G01*
X132067100Y-89597114D02*
G75*
G03*
X132774214Y-89890000I707100J707114D01*
G01*
X153736246Y-88340033D02*
G75*
G03*
X153029140Y-88632894I-46J-999967D01*
G01*
X106667100Y-89597114D02*
G75*
G03*
X107374214Y-89890000I707100J707114D01*
G01*
X128336246Y-88340033D02*
G75*
G03*
X127629140Y-88632894I-46J-999967D01*
G01*
X157547100Y-89677114D02*
G75*
G03*
X158254214Y-89970000I707100J707114D01*
G01*
X182867100Y-89597114D02*
G75*
G03*
X183574214Y-89890000I707100J707114D01*
G01*
X151357818Y-89890013D02*
G75*
G03*
X152064925Y-89597107I-18J1000013D01*
G01*
D21*
X103595786Y-89739990D02*
G75*
G03*
X104302893Y-89447107I14J999990D01*
G01*
X99457201Y-89447114D02*
G75*
G03*
X100164315Y-89740000I707099J707114D01*
G01*
D20*
X179136246Y-88340033D02*
G75*
G03*
X178429140Y-88632894I-46J-999967D01*
G01*
D21*
X97933000Y-87922887D02*
G75*
G03*
X97225887Y-87630000I-707100J-707113D01*
G01*
D20*
X204536246Y-88340033D02*
G75*
G03*
X203829140Y-88632894I-46J-999967D01*
G01*
X202157818Y-89890013D02*
G75*
G03*
X202864925Y-89597107I-18J1000013D01*
G01*
%TO.N,/A12*%
X156210000Y-92300000D02*
X153736246Y-92300000D01*
X176657818Y-93950000D02*
X158274214Y-93950000D01*
X132067107Y-93557107D02*
X130810000Y-92300000D01*
D21*
X100164315Y-93700000D02*
X103595786Y-93700000D01*
D20*
X130810000Y-92300000D02*
X128336246Y-92300000D01*
X151357818Y-93850000D02*
X132774214Y-93850000D01*
X153029139Y-92592893D02*
X152064925Y-93557107D01*
X202157818Y-93850000D02*
X183574214Y-93850000D01*
D21*
X96512994Y-90462893D02*
X99457208Y-93407107D01*
D20*
X178429139Y-92592893D02*
X177364925Y-93657107D01*
X106667107Y-93557107D02*
X105410000Y-92300000D01*
X125957818Y-93850000D02*
X107374214Y-93850000D01*
X127629139Y-92592893D02*
X126664925Y-93557107D01*
X182867107Y-93557107D02*
X181610000Y-92300000D01*
X227620000Y-92300000D02*
X207010000Y-92300000D01*
X157567107Y-93657107D02*
X156210000Y-92300000D01*
D21*
X104302893Y-93407107D02*
X105410000Y-92300000D01*
D20*
X203829139Y-92592893D02*
X202864925Y-93557107D01*
X207010000Y-92300000D02*
X204536246Y-92300000D01*
X181610000Y-92300000D02*
X179136246Y-92300000D01*
D21*
X77470000Y-90170000D02*
X95805887Y-90170000D01*
D20*
X106667100Y-93557114D02*
G75*
G03*
X107374214Y-93850000I707100J707114D01*
G01*
D21*
X96513000Y-90462887D02*
G75*
G03*
X95805887Y-90170000I-707100J-707113D01*
G01*
D20*
X176657818Y-93950013D02*
G75*
G03*
X177364925Y-93657107I-18J1000013D01*
G01*
X151357818Y-93850013D02*
G75*
G03*
X152064925Y-93557107I-18J1000013D01*
G01*
X125957818Y-93850013D02*
G75*
G03*
X126664925Y-93557107I-18J1000013D01*
G01*
D21*
X103595786Y-93699990D02*
G75*
G03*
X104302893Y-93407107I14J999990D01*
G01*
D20*
X182867100Y-93557114D02*
G75*
G03*
X183574214Y-93850000I707100J707114D01*
G01*
X153736246Y-92300033D02*
G75*
G03*
X153029140Y-92592894I-46J-999967D01*
G01*
X202157818Y-93850013D02*
G75*
G03*
X202864925Y-93557107I-18J1000013D01*
G01*
X157567100Y-93657114D02*
G75*
G03*
X158274214Y-93950000I707100J707114D01*
G01*
X204536246Y-92300033D02*
G75*
G03*
X203829140Y-92592894I-46J-999967D01*
G01*
X179136246Y-92300033D02*
G75*
G03*
X178429140Y-92592894I-46J-999967D01*
G01*
D21*
X99457201Y-93407114D02*
G75*
G03*
X100164315Y-93700000I707099J707114D01*
G01*
D20*
X128336246Y-92300033D02*
G75*
G03*
X127629140Y-92592894I-46J-999967D01*
G01*
X132067100Y-93557114D02*
G75*
G03*
X132774214Y-93850000I707100J707114D01*
G01*
%TO.N,/A13*%
X207010000Y-96260000D02*
X204536246Y-96260000D01*
X127629139Y-96552893D02*
X126664925Y-97517107D01*
X157467107Y-97517107D02*
X156210000Y-96260000D01*
X153029139Y-96552893D02*
X152064925Y-97517107D01*
D21*
X77470000Y-92710000D02*
X94385887Y-92710000D01*
D20*
X181610000Y-96260000D02*
X179136246Y-96260000D01*
X176757818Y-97810000D02*
X158174214Y-97810000D01*
X178429139Y-96552893D02*
X177464925Y-97517107D01*
X203829139Y-96552893D02*
X202794925Y-97587107D01*
X132067107Y-97517107D02*
X130810000Y-96260000D01*
X125957818Y-97810000D02*
X107374214Y-97810000D01*
X227620000Y-96260000D02*
X207010000Y-96260000D01*
X130810000Y-96260000D02*
X128336246Y-96260000D01*
D21*
X100184315Y-97680000D02*
X103575786Y-97680000D01*
D20*
X106667107Y-97517107D02*
X105410000Y-96260000D01*
X182937107Y-97587107D02*
X181610000Y-96260000D01*
D21*
X104282893Y-97387107D02*
X105410000Y-96260000D01*
D20*
X156210000Y-96260000D02*
X153736246Y-96260000D01*
X151357818Y-97810000D02*
X132774214Y-97810000D01*
D21*
X95092994Y-93002893D02*
X99477208Y-97387107D01*
D20*
X202087818Y-97880000D02*
X183644214Y-97880000D01*
X106667100Y-97517114D02*
G75*
G03*
X107374214Y-97810000I707100J707114D01*
G01*
X151357818Y-97810013D02*
G75*
G03*
X152064925Y-97517107I-18J1000013D01*
G01*
X153736246Y-96260033D02*
G75*
G03*
X153029140Y-96552894I-46J-999967D01*
G01*
X204536246Y-96260033D02*
G75*
G03*
X203829140Y-96552894I-46J-999967D01*
G01*
X128336246Y-96260033D02*
G75*
G03*
X127629140Y-96552894I-46J-999967D01*
G01*
X176757818Y-97810013D02*
G75*
G03*
X177464925Y-97517107I-18J1000013D01*
G01*
X182937100Y-97587114D02*
G75*
G03*
X183644214Y-97880000I707100J707114D01*
G01*
X125957818Y-97810013D02*
G75*
G03*
X126664925Y-97517107I-18J1000013D01*
G01*
D21*
X95093000Y-93002887D02*
G75*
G03*
X94385887Y-92710000I-707100J-707113D01*
G01*
D20*
X132067100Y-97517114D02*
G75*
G03*
X132774214Y-97810000I707100J707114D01*
G01*
X157467100Y-97517114D02*
G75*
G03*
X158174214Y-97810000I707100J707114D01*
G01*
X179136246Y-96260033D02*
G75*
G03*
X178429140Y-96552894I-46J-999967D01*
G01*
X202087818Y-97880013D02*
G75*
G03*
X202794925Y-97587107I-18J1000013D01*
G01*
D21*
X103575786Y-97679990D02*
G75*
G03*
X104282893Y-97387107I14J999990D01*
G01*
X99477201Y-97387114D02*
G75*
G03*
X100184315Y-97680000I707099J707114D01*
G01*
D20*
%TO.N,/A14*%
X153029139Y-100512893D02*
X152064925Y-101477107D01*
X203829139Y-100512893D02*
X202864925Y-101477107D01*
X132067107Y-101477107D02*
X130810000Y-100220000D01*
X127629139Y-100512893D02*
X126664925Y-101477107D01*
X207010000Y-100220000D02*
X204536246Y-100220000D01*
X227640000Y-100220000D02*
X207010000Y-100220000D01*
X181610000Y-100220000D02*
X179136246Y-100220000D01*
X156210000Y-100220000D02*
X153736246Y-100220000D01*
X182867107Y-101477107D02*
X181610000Y-100220000D01*
D21*
X100174315Y-101630000D02*
X103585786Y-101630000D01*
D20*
X125957818Y-101770000D02*
X107374214Y-101770000D01*
X106667107Y-101477107D02*
X105410000Y-100220000D01*
D21*
X77470000Y-95250000D02*
X92965887Y-95250000D01*
D20*
X176757818Y-101770000D02*
X158174214Y-101770000D01*
X151357818Y-101770000D02*
X132774214Y-101770000D01*
D21*
X93672994Y-95542893D02*
X99467208Y-101337107D01*
D20*
X130810000Y-100220000D02*
X128336246Y-100220000D01*
D21*
X104292893Y-101337107D02*
X105410000Y-100220000D01*
D20*
X202157818Y-101770000D02*
X183574214Y-101770000D01*
X157467107Y-101477107D02*
X156210000Y-100220000D01*
X178429139Y-100512893D02*
X177464925Y-101477107D01*
D21*
X93673000Y-95542887D02*
G75*
G03*
X92965887Y-95250000I-707100J-707113D01*
G01*
D20*
X153736246Y-100220033D02*
G75*
G03*
X153029140Y-100512894I-46J-999967D01*
G01*
X182867100Y-101477114D02*
G75*
G03*
X183574214Y-101770000I707100J707114D01*
G01*
X179136246Y-100220033D02*
G75*
G03*
X178429140Y-100512894I-46J-999967D01*
G01*
X176757818Y-101770013D02*
G75*
G03*
X177464925Y-101477107I-18J1000013D01*
G01*
X106667100Y-101477114D02*
G75*
G03*
X107374214Y-101770000I707100J707114D01*
G01*
D21*
X103585786Y-101629990D02*
G75*
G03*
X104292893Y-101337107I14J999990D01*
G01*
D20*
X151357818Y-101770013D02*
G75*
G03*
X152064925Y-101477107I-18J1000013D01*
G01*
X204536246Y-100220033D02*
G75*
G03*
X203829140Y-100512894I-46J-999967D01*
G01*
X157467100Y-101477114D02*
G75*
G03*
X158174214Y-101770000I707100J707114D01*
G01*
D21*
X99467201Y-101337114D02*
G75*
G03*
X100174315Y-101630000I707099J707114D01*
G01*
D20*
X202157818Y-101770013D02*
G75*
G03*
X202864925Y-101477107I-18J1000013D01*
G01*
X128336246Y-100220033D02*
G75*
G03*
X127629140Y-100512894I-46J-999967D01*
G01*
X125957818Y-101770013D02*
G75*
G03*
X126664925Y-101477107I-18J1000013D01*
G01*
X132067100Y-101477114D02*
G75*
G03*
X132774214Y-101770000I707100J707114D01*
G01*
%TO.N,/A15*%
X181610000Y-104180000D02*
X179136246Y-104180000D01*
D21*
X92252994Y-98082893D02*
X99457208Y-105287107D01*
D20*
X132067107Y-105437107D02*
X130810000Y-104180000D01*
X207010000Y-104180000D02*
X204536246Y-104180000D01*
X178429139Y-104472893D02*
X177464925Y-105437107D01*
D21*
X77470000Y-97790000D02*
X91545887Y-97790000D01*
D20*
X125957818Y-105730000D02*
X107374214Y-105730000D01*
X153029139Y-104472893D02*
X152064925Y-105437107D01*
X127629139Y-104472893D02*
X126664925Y-105437107D01*
X227620000Y-104180000D02*
X207010000Y-104180000D01*
X176757818Y-105730000D02*
X158174214Y-105730000D01*
X203829139Y-104472893D02*
X202864925Y-105437107D01*
D21*
X104302893Y-105287107D02*
X105410000Y-104180000D01*
X100164315Y-105580000D02*
X103595786Y-105580000D01*
D20*
X157467107Y-105437107D02*
X156210000Y-104180000D01*
X182867107Y-105437107D02*
X181610000Y-104180000D01*
X202157818Y-105730000D02*
X183574214Y-105730000D01*
X156210000Y-104180000D02*
X153736246Y-104180000D01*
X106667107Y-105437107D02*
X105410000Y-104180000D01*
X130810000Y-104180000D02*
X128336246Y-104180000D01*
X151357818Y-105730000D02*
X132774214Y-105730000D01*
X132067100Y-105437114D02*
G75*
G03*
X132774214Y-105730000I707100J707114D01*
G01*
X176757818Y-105730013D02*
G75*
G03*
X177464925Y-105437107I-18J1000013D01*
G01*
X179136246Y-104180033D02*
G75*
G03*
X178429140Y-104472894I-46J-999967D01*
G01*
X106667100Y-105437114D02*
G75*
G03*
X107374214Y-105730000I707100J707114D01*
G01*
X157467100Y-105437114D02*
G75*
G03*
X158174214Y-105730000I707100J707114D01*
G01*
X202157818Y-105730013D02*
G75*
G03*
X202864925Y-105437107I-18J1000013D01*
G01*
D21*
X103595786Y-105579990D02*
G75*
G03*
X104302893Y-105287107I14J999990D01*
G01*
D20*
X128336246Y-104180033D02*
G75*
G03*
X127629140Y-104472894I-46J-999967D01*
G01*
X125957818Y-105730013D02*
G75*
G03*
X126664925Y-105437107I-18J1000013D01*
G01*
D21*
X99457201Y-105287114D02*
G75*
G03*
X100164315Y-105580000I707099J707114D01*
G01*
X92253000Y-98082887D02*
G75*
G03*
X91545887Y-97790000I-707100J-707113D01*
G01*
D20*
X153736246Y-104180033D02*
G75*
G03*
X153029140Y-104472894I-46J-999967D01*
G01*
X182867100Y-105437114D02*
G75*
G03*
X183574214Y-105730000I707100J707114D01*
G01*
X204536246Y-104180033D02*
G75*
G03*
X203829140Y-104472894I-46J-999967D01*
G01*
X151357818Y-105730013D02*
G75*
G03*
X152064925Y-105437107I-18J1000013D01*
G01*
%TO.N,/\u00D82*%
X130810000Y-108140000D02*
X128336246Y-108140000D01*
X106667107Y-109397107D02*
X105410000Y-108140000D01*
X181610000Y-108140000D02*
X179136246Y-108140000D01*
X125957818Y-109690000D02*
X107374214Y-109690000D01*
X227620000Y-108140000D02*
X207010000Y-108140000D01*
X157467107Y-109397107D02*
X156210000Y-108140000D01*
X132067107Y-109397107D02*
X130810000Y-108140000D01*
X182867107Y-109397107D02*
X181610000Y-108140000D01*
X156210000Y-108140000D02*
X153736246Y-108140000D01*
D21*
X77470000Y-100330000D02*
X90125887Y-100330000D01*
D20*
X207010000Y-108140000D02*
X205752893Y-109397107D01*
D21*
X90832994Y-100622893D02*
X99457208Y-109247107D01*
D20*
X205045786Y-109690000D02*
X183574214Y-109690000D01*
X151357818Y-109690000D02*
X132774214Y-109690000D01*
X178429139Y-108432893D02*
X177464925Y-109397107D01*
X176757818Y-109690000D02*
X158174214Y-109690000D01*
X127629139Y-108432893D02*
X126664925Y-109397107D01*
X153029139Y-108432893D02*
X152064925Y-109397107D01*
D21*
X100164315Y-109540000D02*
X103595786Y-109540000D01*
X104302893Y-109247107D02*
X105410000Y-108140000D01*
D20*
X132067100Y-109397114D02*
G75*
G03*
X132774214Y-109690000I707100J707114D01*
G01*
X205045786Y-109689990D02*
G75*
G03*
X205752893Y-109397107I14J999990D01*
G01*
X182867100Y-109397114D02*
G75*
G03*
X183574214Y-109690000I707100J707114D01*
G01*
X176757818Y-109690013D02*
G75*
G03*
X177464925Y-109397107I-18J1000013D01*
G01*
X153736246Y-108140033D02*
G75*
G03*
X153029140Y-108432894I-46J-999967D01*
G01*
X179136246Y-108140033D02*
G75*
G03*
X178429140Y-108432894I-46J-999967D01*
G01*
X128336246Y-108140033D02*
G75*
G03*
X127629140Y-108432894I-46J-999967D01*
G01*
X157467100Y-109397114D02*
G75*
G03*
X158174214Y-109690000I707100J707114D01*
G01*
D21*
X99457201Y-109247114D02*
G75*
G03*
X100164315Y-109540000I707099J707114D01*
G01*
X103595786Y-109539990D02*
G75*
G03*
X104302893Y-109247107I14J999990D01*
G01*
D20*
X151357818Y-109690013D02*
G75*
G03*
X152064925Y-109397107I-18J1000013D01*
G01*
X106667100Y-109397114D02*
G75*
G03*
X107374214Y-109690000I707100J707114D01*
G01*
D21*
X90833000Y-100622887D02*
G75*
G03*
X90125887Y-100330000I-707100J-707113D01*
G01*
D20*
X125957818Y-109690013D02*
G75*
G03*
X126664925Y-109397107I-18J1000013D01*
G01*
%TO.N,/R{slash}~{W}*%
X227620000Y-112100000D02*
X207010000Y-112100000D01*
D21*
X104302893Y-113207107D02*
X105410000Y-112100000D01*
D20*
X205045786Y-113650000D02*
X183574214Y-113650000D01*
X151357818Y-113650000D02*
X132774214Y-113650000D01*
X153029139Y-112392893D02*
X152064925Y-113357107D01*
X207010000Y-112100000D02*
X205752893Y-113357107D01*
X130810000Y-112100000D02*
X128336246Y-112100000D01*
X181610000Y-112100000D02*
X179136246Y-112100000D01*
D21*
X77470000Y-102870000D02*
X88705887Y-102870000D01*
D20*
X182867107Y-113357107D02*
X181610000Y-112100000D01*
X106667107Y-113357107D02*
X105410000Y-112100000D01*
X157467107Y-113357107D02*
X156210000Y-112100000D01*
X132067107Y-113357107D02*
X130810000Y-112100000D01*
X125957818Y-113650000D02*
X107374214Y-113650000D01*
X176757818Y-113650000D02*
X158174214Y-113650000D01*
X156210000Y-112100000D02*
X153736246Y-112100000D01*
D21*
X100164315Y-113500000D02*
X103595786Y-113500000D01*
X89412994Y-103162893D02*
X99457208Y-113207107D01*
D20*
X127629139Y-112392893D02*
X126664925Y-113357107D01*
X178429139Y-112392893D02*
X177464925Y-113357107D01*
X182867100Y-113357114D02*
G75*
G03*
X183574214Y-113650000I707100J707114D01*
G01*
X125957818Y-113650013D02*
G75*
G03*
X126664925Y-113357107I-18J1000013D01*
G01*
X153736246Y-112100033D02*
G75*
G03*
X153029140Y-112392894I-46J-999967D01*
G01*
X106667100Y-113357114D02*
G75*
G03*
X107374214Y-113650000I707100J707114D01*
G01*
X128336246Y-112100033D02*
G75*
G03*
X127629140Y-112392894I-46J-999967D01*
G01*
X132067100Y-113357114D02*
G75*
G03*
X132774214Y-113650000I707100J707114D01*
G01*
D21*
X99457201Y-113207114D02*
G75*
G03*
X100164315Y-113500000I707099J707114D01*
G01*
D20*
X157467100Y-113357114D02*
G75*
G03*
X158174214Y-113650000I707100J707114D01*
G01*
X179136246Y-112100033D02*
G75*
G03*
X178429140Y-112392894I-46J-999967D01*
G01*
X151357818Y-113650013D02*
G75*
G03*
X152064925Y-113357107I-18J1000013D01*
G01*
D21*
X103595786Y-113499990D02*
G75*
G03*
X104302893Y-113207107I14J999990D01*
G01*
D20*
X205045786Y-113649990D02*
G75*
G03*
X205752893Y-113357107I14J999990D01*
G01*
D21*
X89413000Y-103162887D02*
G75*
G03*
X88705887Y-102870000I-707100J-707113D01*
G01*
D20*
X176757818Y-113650013D02*
G75*
G03*
X177464925Y-113357107I-18J1000013D01*
G01*
%TO.N,/~{R}{slash}W*%
X132067107Y-117317107D02*
X130810000Y-116060000D01*
X212165786Y-116060000D02*
X207010000Y-116060000D01*
X223755786Y-119510000D02*
X215174214Y-119510000D01*
X181610000Y-116060000D02*
X179136246Y-116060000D01*
X156210000Y-116060000D02*
X153736246Y-116060000D01*
X130810000Y-116060000D02*
X128336246Y-116060000D01*
X207010000Y-116060000D02*
X205752893Y-117317107D01*
X178429139Y-116352893D02*
X177464925Y-117317107D01*
D21*
X100164315Y-117460000D02*
X103595786Y-117460000D01*
X104302893Y-117167107D02*
X105410000Y-116060000D01*
X87992994Y-105702893D02*
X99457208Y-117167107D01*
D20*
X127629139Y-116352893D02*
X126664925Y-117317107D01*
X153029139Y-116352893D02*
X152064925Y-117317107D01*
X214467107Y-119217107D02*
X214287893Y-119037893D01*
X213995000Y-118330786D02*
X213995000Y-117889214D01*
X227620000Y-116060000D02*
X224462893Y-119217107D01*
X213702107Y-117182107D02*
X212872893Y-116352893D01*
D21*
X77470000Y-105410000D02*
X87285887Y-105410000D01*
D20*
X125957818Y-117610000D02*
X107374214Y-117610000D01*
X106667107Y-117317107D02*
X105410000Y-116060000D01*
X176757818Y-117610000D02*
X158174214Y-117610000D01*
X205045786Y-117610000D02*
X183574214Y-117610000D01*
X157467107Y-117317107D02*
X156210000Y-116060000D01*
X182867107Y-117317107D02*
X181610000Y-116060000D01*
X151357818Y-117610000D02*
X132774214Y-117610000D01*
X212872900Y-116352886D02*
G75*
G03*
X212165786Y-116060000I-707100J-707114D01*
G01*
X205045786Y-117609990D02*
G75*
G03*
X205752893Y-117317107I14J999990D01*
G01*
X176757818Y-117610013D02*
G75*
G03*
X177464925Y-117317107I-18J1000013D01*
G01*
X223755786Y-119509990D02*
G75*
G03*
X224462893Y-119217107I14J999990D01*
G01*
X213995010Y-118330786D02*
G75*
G03*
X214287893Y-119037893I999990J-14D01*
G01*
D21*
X87993000Y-105702887D02*
G75*
G03*
X87285887Y-105410000I-707100J-707113D01*
G01*
D20*
X214467100Y-119217114D02*
G75*
G03*
X215174214Y-119510000I707100J707114D01*
G01*
D21*
X103595786Y-117459990D02*
G75*
G03*
X104302893Y-117167107I14J999990D01*
G01*
D20*
X132067100Y-117317114D02*
G75*
G03*
X132774214Y-117610000I707100J707114D01*
G01*
X213994990Y-117889214D02*
G75*
G03*
X213702107Y-117182107I-999990J14D01*
G01*
X125957818Y-117610013D02*
G75*
G03*
X126664925Y-117317107I-18J1000013D01*
G01*
X128336246Y-116060033D02*
G75*
G03*
X127629140Y-116352894I-46J-999967D01*
G01*
X182867100Y-117317114D02*
G75*
G03*
X183574214Y-117610000I707100J707114D01*
G01*
X157467100Y-117317114D02*
G75*
G03*
X158174214Y-117610000I707100J707114D01*
G01*
X106667100Y-117317114D02*
G75*
G03*
X107374214Y-117610000I707100J707114D01*
G01*
D21*
X99457201Y-117167114D02*
G75*
G03*
X100164315Y-117460000I707099J707114D01*
G01*
D20*
X153736246Y-116060033D02*
G75*
G03*
X153029140Y-116352894I-46J-999967D01*
G01*
X179136246Y-116060033D02*
G75*
G03*
X178429140Y-116352894I-46J-999967D01*
G01*
X151357818Y-117610013D02*
G75*
G03*
X152064925Y-117317107I-18J1000013D01*
G01*
%TO.N,/PLL*%
X224275786Y-131040000D02*
X99504214Y-131040000D01*
X226100000Y-129630000D02*
X224982893Y-130747107D01*
X82085786Y-114450000D02*
X80640000Y-114450000D01*
X98797107Y-130747107D02*
X82792893Y-114742893D01*
X82792900Y-114742886D02*
G75*
G03*
X82085786Y-114450000I-707100J-707114D01*
G01*
X98797100Y-130747114D02*
G75*
G03*
X99504214Y-131040000I707100J707114D01*
G01*
X224275786Y-131039990D02*
G75*
G03*
X224982893Y-130747107I14J999990D01*
G01*
%TO.N,/~{\u00D82}*%
X227620000Y-123980000D02*
X207010000Y-123980000D01*
X130810000Y-123980000D02*
X128336246Y-123980000D01*
X207010000Y-123980000D02*
X204574214Y-123980000D01*
X125957818Y-125530000D02*
X107374214Y-125530000D01*
X203867107Y-124272893D02*
X202902893Y-125237107D01*
X202195786Y-125530000D02*
X183574214Y-125530000D01*
X106667107Y-125237107D02*
X105410000Y-123980000D01*
X178429139Y-124272893D02*
X177464925Y-125237107D01*
D21*
X100164315Y-125380000D02*
X103595786Y-125380000D01*
D20*
X182867107Y-125237107D02*
X181610000Y-123980000D01*
X157467107Y-125237107D02*
X156210000Y-123980000D01*
X156210000Y-123980000D02*
X153736246Y-123980000D01*
X153029139Y-124272893D02*
X152064925Y-125237107D01*
D21*
X85152994Y-110782893D02*
X99457208Y-125087107D01*
X104302893Y-125087107D02*
X105410000Y-123980000D01*
D20*
X181610000Y-123980000D02*
X179136246Y-123980000D01*
X132067107Y-125237107D02*
X130810000Y-123980000D01*
X176757818Y-125530000D02*
X158174214Y-125530000D01*
D21*
X77470000Y-110490000D02*
X84445887Y-110490000D01*
D20*
X127629139Y-124272893D02*
X126664925Y-125237107D01*
X151357818Y-125530000D02*
X132774214Y-125530000D01*
D21*
X99457201Y-125087114D02*
G75*
G03*
X100164315Y-125380000I707099J707114D01*
G01*
D20*
X182867100Y-125237114D02*
G75*
G03*
X183574214Y-125530000I707100J707114D01*
G01*
X204574214Y-123980010D02*
G75*
G03*
X203867107Y-124272893I-14J-999990D01*
G01*
X125957818Y-125530013D02*
G75*
G03*
X126664925Y-125237107I-18J1000013D01*
G01*
X106667100Y-125237114D02*
G75*
G03*
X107374214Y-125530000I707100J707114D01*
G01*
X157467100Y-125237114D02*
G75*
G03*
X158174214Y-125530000I707100J707114D01*
G01*
D21*
X103595786Y-125379990D02*
G75*
G03*
X104302893Y-125087107I14J999990D01*
G01*
X85153000Y-110782887D02*
G75*
G03*
X84445887Y-110490000I-707100J-707113D01*
G01*
D20*
X176757818Y-125530013D02*
G75*
G03*
X177464925Y-125237107I-18J1000013D01*
G01*
X128336246Y-123980033D02*
G75*
G03*
X127629140Y-124272894I-46J-999967D01*
G01*
X202195786Y-125529990D02*
G75*
G03*
X202902893Y-125237107I14J999990D01*
G01*
X132067100Y-125237114D02*
G75*
G03*
X132774214Y-125530000I707100J707114D01*
G01*
X179136246Y-123980033D02*
G75*
G03*
X178429140Y-124272894I-46J-999967D01*
G01*
X153736246Y-123980033D02*
G75*
G03*
X153029140Y-124272894I-46J-999967D01*
G01*
X151357818Y-125530013D02*
G75*
G03*
X152064925Y-125237107I-18J1000013D01*
G01*
%TO.N,/RAMRW*%
X207010000Y-127940000D02*
X204536246Y-127940000D01*
X227620000Y-127940000D02*
X207010000Y-127940000D01*
X132067107Y-129197107D02*
X130810000Y-127940000D01*
D21*
X104302893Y-129047107D02*
X105410000Y-127940000D01*
D20*
X127629139Y-128232893D02*
X126664925Y-129197107D01*
X156210000Y-127940000D02*
X153736246Y-127940000D01*
X176687818Y-129560000D02*
X158244214Y-129560000D01*
D21*
X77470000Y-113030000D02*
X83025786Y-113030000D01*
D20*
X178429139Y-128232893D02*
X177394925Y-129267107D01*
X153029139Y-128232893D02*
X152064925Y-129197107D01*
D21*
X83732893Y-113322893D02*
X99457107Y-129047107D01*
D20*
X151357818Y-129490000D02*
X132774214Y-129490000D01*
X157537107Y-129267107D02*
X156210000Y-127940000D01*
X182867107Y-129197107D02*
X181610000Y-127940000D01*
X130810000Y-127940000D02*
X128336246Y-127940000D01*
X125957818Y-129490000D02*
X107374214Y-129490000D01*
X202157818Y-129490000D02*
X183574214Y-129490000D01*
X203829139Y-128232893D02*
X202864925Y-129197107D01*
X181610000Y-127940000D02*
X179136246Y-127940000D01*
X106667107Y-129197107D02*
X105410000Y-127940000D01*
D21*
X100164214Y-129340000D02*
X103595786Y-129340000D01*
D20*
X202157818Y-129490013D02*
G75*
G03*
X202864925Y-129197107I-18J1000013D01*
G01*
X176687818Y-129560013D02*
G75*
G03*
X177394925Y-129267107I-18J1000013D01*
G01*
X182867100Y-129197114D02*
G75*
G03*
X183574214Y-129490000I707100J707114D01*
G01*
X125957818Y-129490013D02*
G75*
G03*
X126664925Y-129197107I-18J1000013D01*
G01*
X157537100Y-129267114D02*
G75*
G03*
X158244214Y-129560000I707100J707114D01*
G01*
X106667100Y-129197114D02*
G75*
G03*
X107374214Y-129490000I707100J707114D01*
G01*
D21*
X99457100Y-129047114D02*
G75*
G03*
X100164214Y-129340000I707100J707114D01*
G01*
D20*
X179136246Y-127940033D02*
G75*
G03*
X178429140Y-128232894I-46J-999967D01*
G01*
X132067100Y-129197114D02*
G75*
G03*
X132774214Y-129490000I707100J707114D01*
G01*
X204536246Y-127940033D02*
G75*
G03*
X203829140Y-128232894I-46J-999967D01*
G01*
D21*
X103595786Y-129339990D02*
G75*
G03*
X104302893Y-129047107I14J999990D01*
G01*
D20*
X153736246Y-127940033D02*
G75*
G03*
X153029140Y-128232894I-46J-999967D01*
G01*
X128336246Y-127940033D02*
G75*
G03*
X127629140Y-128232894I-46J-999967D01*
G01*
D21*
X83732900Y-113322886D02*
G75*
G03*
X83025786Y-113030000I-707100J-707114D01*
G01*
D20*
X151357818Y-129490013D02*
G75*
G03*
X152064925Y-129197107I-18J1000013D01*
G01*
%TO.N,/~{VECTOR_FETCH}*%
X206075075Y-114802893D02*
X205110861Y-115767107D01*
X201930000Y-116060000D02*
X184216246Y-116060000D01*
X158109139Y-115767107D02*
X157144925Y-114802893D01*
X105637818Y-114510000D02*
X102294214Y-114510000D01*
X212055786Y-114510000D02*
X206782182Y-114510000D01*
X152387107Y-114802893D02*
X151130000Y-116060000D01*
X156437818Y-114510000D02*
X153094214Y-114510000D01*
X177787107Y-114802893D02*
X176530000Y-116060000D01*
X151130000Y-116060000D02*
X133416246Y-116060000D01*
X101587107Y-114802893D02*
X100330000Y-116060000D01*
X125730000Y-116060000D02*
X108016246Y-116060000D01*
X131037818Y-114510000D02*
X127694214Y-114510000D01*
X216070000Y-118110000D02*
X212762893Y-114802893D01*
X181837818Y-114510000D02*
X178494214Y-114510000D01*
X176530000Y-116060000D02*
X158816246Y-116060000D01*
X107309139Y-115767107D02*
X106344925Y-114802893D01*
X126987107Y-114802893D02*
X125730000Y-116060000D01*
X183509139Y-115767107D02*
X182544925Y-114802893D01*
X204403754Y-116060000D02*
X201930000Y-116060000D01*
X132709139Y-115767107D02*
X131744925Y-114802893D01*
X182544916Y-114802902D02*
G75*
G03*
X181837818Y-114510000I-707116J-707098D01*
G01*
X178494214Y-114510010D02*
G75*
G03*
X177787107Y-114802893I-14J-999990D01*
G01*
X127694214Y-114510010D02*
G75*
G03*
X126987107Y-114802893I-14J-999990D01*
G01*
X102294214Y-114510010D02*
G75*
G03*
X101587107Y-114802893I-14J-999990D01*
G01*
X107309116Y-115767130D02*
G75*
G03*
X108016246Y-116060000I707084J707130D01*
G01*
X206782182Y-114509987D02*
G75*
G03*
X206075075Y-114802893I18J-1000013D01*
G01*
X132709116Y-115767130D02*
G75*
G03*
X133416246Y-116060000I707084J707130D01*
G01*
X157144916Y-114802902D02*
G75*
G03*
X156437818Y-114510000I-707116J-707098D01*
G01*
X204403754Y-116059967D02*
G75*
G03*
X205110860Y-115767106I46J999967D01*
G01*
X183509116Y-115767130D02*
G75*
G03*
X184216246Y-116060000I707084J707130D01*
G01*
X106344916Y-114802902D02*
G75*
G03*
X105637818Y-114510000I-707116J-707098D01*
G01*
X212762900Y-114802886D02*
G75*
G03*
X212055786Y-114510000I-707100J-707114D01*
G01*
X158109116Y-115767130D02*
G75*
G03*
X158816246Y-116060000I707084J707130D01*
G01*
X131744916Y-114802902D02*
G75*
G03*
X131037818Y-114510000I-707116J-707098D01*
G01*
X153094214Y-114510010D02*
G75*
G03*
X152387107Y-114802893I-14J-999990D01*
G01*
%TO.N,/~{DECODE_ENABLE}*%
X176530000Y-120020000D02*
X158816246Y-120020000D01*
X152387107Y-118762893D02*
X151130000Y-120020000D01*
X131037818Y-118470000D02*
X127694214Y-118470000D01*
X212090000Y-118110000D02*
X206789214Y-118110000D01*
X181837818Y-118470000D02*
X178494214Y-118470000D01*
X107309139Y-119727107D02*
X106344925Y-118762893D01*
X156437818Y-118470000D02*
X153094214Y-118470000D01*
X204050786Y-120020000D02*
X201930000Y-120020000D01*
X177787107Y-118762893D02*
X176530000Y-120020000D01*
X183509139Y-119727107D02*
X182544925Y-118762893D01*
X101587107Y-118762893D02*
X100330000Y-120020000D01*
X158109139Y-119727107D02*
X157144925Y-118762893D01*
X132709139Y-119727107D02*
X131744925Y-118762893D01*
X105637818Y-118470000D02*
X102294214Y-118470000D01*
X206082107Y-118402893D02*
X204757893Y-119727107D01*
X126987107Y-118762893D02*
X125730000Y-120020000D01*
X151130000Y-120020000D02*
X133416246Y-120020000D01*
X125730000Y-120020000D02*
X108016246Y-120020000D01*
X201930000Y-120020000D02*
X184216246Y-120020000D01*
X106344916Y-118762902D02*
G75*
G03*
X105637818Y-118470000I-707116J-707098D01*
G01*
X204050786Y-120019990D02*
G75*
G03*
X204757893Y-119727107I14J999990D01*
G01*
X102294214Y-118470010D02*
G75*
G03*
X101587107Y-118762893I-14J-999990D01*
G01*
X107309116Y-119727130D02*
G75*
G03*
X108016246Y-120020000I707084J707130D01*
G01*
X178494214Y-118470010D02*
G75*
G03*
X177787107Y-118762893I-14J-999990D01*
G01*
X158109116Y-119727130D02*
G75*
G03*
X158816246Y-120020000I707084J707130D01*
G01*
X131744916Y-118762902D02*
G75*
G03*
X131037818Y-118470000I-707116J-707098D01*
G01*
X157144916Y-118762902D02*
G75*
G03*
X156437818Y-118470000I-707116J-707098D01*
G01*
X127694214Y-118470010D02*
G75*
G03*
X126987107Y-118762893I-14J-999990D01*
G01*
X206789214Y-118110010D02*
G75*
G03*
X206082107Y-118402893I-14J-999990D01*
G01*
X153094214Y-118470010D02*
G75*
G03*
X152387107Y-118762893I-14J-999990D01*
G01*
X183509116Y-119727130D02*
G75*
G03*
X184216246Y-120020000I707084J707130D01*
G01*
X182544916Y-118762902D02*
G75*
G03*
X181837818Y-118470000I-707116J-707098D01*
G01*
X132709116Y-119727130D02*
G75*
G03*
X133416246Y-120020000I707084J707130D01*
G01*
%TO.N,/PIN_2*%
X181837818Y-47190000D02*
X178494214Y-47190000D01*
X101587107Y-47482893D02*
X100330000Y-48740000D01*
X126987107Y-47482893D02*
X125730000Y-48740000D01*
X151130000Y-48740000D02*
X133416246Y-48740000D01*
X156437818Y-47190000D02*
X153094214Y-47190000D01*
X183509139Y-48447107D02*
X182544925Y-47482893D01*
X152387107Y-47482893D02*
X151130000Y-48740000D01*
X201930000Y-48740000D02*
X184216246Y-48740000D01*
X176530000Y-48740000D02*
X158816246Y-48740000D01*
X125730000Y-48740000D02*
X108016246Y-48740000D01*
X158109139Y-48447107D02*
X157144925Y-47482893D01*
X132709139Y-48447107D02*
X131744925Y-47482893D01*
X177787107Y-47482893D02*
X176530000Y-48740000D01*
X107309139Y-48447107D02*
X106344925Y-47482893D01*
X105637818Y-47190000D02*
X102294214Y-47190000D01*
X131037818Y-47190000D02*
X127694214Y-47190000D01*
X157144916Y-47482902D02*
G75*
G03*
X156437818Y-47190000I-707116J-707098D01*
G01*
X132709116Y-48447130D02*
G75*
G03*
X133416246Y-48740000I707084J707130D01*
G01*
X127694214Y-47190010D02*
G75*
G03*
X126987107Y-47482893I-14J-999990D01*
G01*
X158109116Y-48447130D02*
G75*
G03*
X158816246Y-48740000I707084J707130D01*
G01*
X102294214Y-47190010D02*
G75*
G03*
X101587107Y-47482893I-14J-999990D01*
G01*
X131744916Y-47482902D02*
G75*
G03*
X131037818Y-47190000I-707116J-707098D01*
G01*
X178494214Y-47190010D02*
G75*
G03*
X177787107Y-47482893I-14J-999990D01*
G01*
X182544916Y-47482902D02*
G75*
G03*
X181837818Y-47190000I-707116J-707098D01*
G01*
X106344916Y-47482902D02*
G75*
G03*
X105637818Y-47190000I-707116J-707098D01*
G01*
X183509116Y-48447130D02*
G75*
G03*
X184216246Y-48740000I707084J707130D01*
G01*
X107309116Y-48447130D02*
G75*
G03*
X108016246Y-48740000I707084J707130D01*
G01*
X153094214Y-47190010D02*
G75*
G03*
X152387107Y-47482893I-14J-999990D01*
G01*
%TO.N,/PIN_3*%
X107309139Y-52407107D02*
X106344925Y-51442893D01*
X131037818Y-51150000D02*
X127694214Y-51150000D01*
X101587107Y-51442893D02*
X100330000Y-52700000D01*
X181837818Y-51150000D02*
X178494214Y-51150000D01*
X126987107Y-51442893D02*
X125730000Y-52700000D01*
X177787107Y-51442893D02*
X176530000Y-52700000D01*
X158109139Y-52407107D02*
X157144925Y-51442893D01*
X183509139Y-52407107D02*
X182544925Y-51442893D01*
X201930000Y-52700000D02*
X184216246Y-52700000D01*
X152387107Y-51442893D02*
X151130000Y-52700000D01*
X105637818Y-51150000D02*
X102294214Y-51150000D01*
X125730000Y-52700000D02*
X108016246Y-52700000D01*
X176530000Y-52700000D02*
X158816246Y-52700000D01*
X156437818Y-51150000D02*
X153094214Y-51150000D01*
X132709139Y-52407107D02*
X131744925Y-51442893D01*
X151130000Y-52700000D02*
X133416246Y-52700000D01*
X153094214Y-51150010D02*
G75*
G03*
X152387107Y-51442893I-14J-999990D01*
G01*
X182544916Y-51442902D02*
G75*
G03*
X181837818Y-51150000I-707116J-707098D01*
G01*
X157144916Y-51442902D02*
G75*
G03*
X156437818Y-51150000I-707116J-707098D01*
G01*
X106344916Y-51442902D02*
G75*
G03*
X105637818Y-51150000I-707116J-707098D01*
G01*
X178494214Y-51150010D02*
G75*
G03*
X177787107Y-51442893I-14J-999990D01*
G01*
X132709116Y-52407130D02*
G75*
G03*
X133416246Y-52700000I707084J707130D01*
G01*
X183509116Y-52407130D02*
G75*
G03*
X184216246Y-52700000I707084J707130D01*
G01*
X131744916Y-51442902D02*
G75*
G03*
X131037818Y-51150000I-707116J-707098D01*
G01*
X102294214Y-51150010D02*
G75*
G03*
X101587107Y-51442893I-14J-999990D01*
G01*
X107309116Y-52407130D02*
G75*
G03*
X108016246Y-52700000I707084J707130D01*
G01*
X127694214Y-51150010D02*
G75*
G03*
X126987107Y-51442893I-14J-999990D01*
G01*
X158109116Y-52407130D02*
G75*
G03*
X158816246Y-52700000I707084J707130D01*
G01*
%TO.N,/PIN_16*%
X176530000Y-104180000D02*
X158816246Y-104180000D01*
X158109139Y-103887107D02*
X157134925Y-102912893D01*
X131037818Y-102630000D02*
X127694214Y-102630000D01*
X132709139Y-103887107D02*
X131744925Y-102922893D01*
X152397107Y-102912893D02*
X151130000Y-104180000D01*
X105637818Y-102630000D02*
X102294214Y-102630000D01*
X183509139Y-103887107D02*
X182534925Y-102912893D01*
X101587107Y-102922893D02*
X100330000Y-104180000D01*
X126987107Y-102922893D02*
X125730000Y-104180000D01*
X125730000Y-104180000D02*
X108016246Y-104180000D01*
X151130000Y-104180000D02*
X133416246Y-104180000D01*
X201930000Y-104180000D02*
X184216246Y-104180000D01*
X181827818Y-102620000D02*
X178504214Y-102620000D01*
X156427818Y-102620000D02*
X153104214Y-102620000D01*
X107309139Y-103887107D02*
X106344925Y-102922893D01*
X177797107Y-102912893D02*
X176530000Y-104180000D01*
X102294214Y-102630010D02*
G75*
G03*
X101587107Y-102922893I-14J-999990D01*
G01*
X106344916Y-102922902D02*
G75*
G03*
X105637818Y-102630000I-707116J-707098D01*
G01*
X178504214Y-102620010D02*
G75*
G03*
X177797107Y-102912893I-14J-999990D01*
G01*
X153104214Y-102620010D02*
G75*
G03*
X152397107Y-102912893I-14J-999990D01*
G01*
X132709116Y-103887130D02*
G75*
G03*
X133416246Y-104180000I707084J707130D01*
G01*
X131744916Y-102922902D02*
G75*
G03*
X131037818Y-102630000I-707116J-707098D01*
G01*
X183509116Y-103887130D02*
G75*
G03*
X184216246Y-104180000I707084J707130D01*
G01*
X157134916Y-102912902D02*
G75*
G03*
X156427818Y-102620000I-707116J-707098D01*
G01*
X182534916Y-102912902D02*
G75*
G03*
X181827818Y-102620000I-707116J-707098D01*
G01*
X107309116Y-103887130D02*
G75*
G03*
X108016246Y-104180000I707084J707130D01*
G01*
X127694214Y-102630010D02*
G75*
G03*
X126987107Y-102922893I-14J-999990D01*
G01*
X158109116Y-103887130D02*
G75*
G03*
X158816246Y-104180000I707084J707130D01*
G01*
%TO.N,/PIN_17*%
X131037818Y-106590000D02*
X127694214Y-106590000D01*
X183509139Y-107847107D02*
X182544925Y-106882893D01*
X152387107Y-106882893D02*
X151130000Y-108140000D01*
X158109139Y-107847107D02*
X157144925Y-106882893D01*
X201930000Y-108140000D02*
X184216246Y-108140000D01*
X181837818Y-106590000D02*
X178494214Y-106590000D01*
X107309139Y-107847107D02*
X106344925Y-106882893D01*
X156437818Y-106590000D02*
X153094214Y-106590000D01*
X105637818Y-106590000D02*
X102294214Y-106590000D01*
X177787107Y-106882893D02*
X176530000Y-108140000D01*
X125730000Y-108140000D02*
X108016246Y-108140000D01*
X151130000Y-108140000D02*
X133416246Y-108140000D01*
X126987107Y-106882893D02*
X125730000Y-108140000D01*
X101587107Y-106882893D02*
X100330000Y-108140000D01*
X132709139Y-107847107D02*
X131744925Y-106882893D01*
X176530000Y-108140000D02*
X158816246Y-108140000D01*
X107309116Y-107847130D02*
G75*
G03*
X108016246Y-108140000I707084J707130D01*
G01*
X178494214Y-106590010D02*
G75*
G03*
X177787107Y-106882893I-14J-999990D01*
G01*
X158109116Y-107847130D02*
G75*
G03*
X158816246Y-108140000I707084J707130D01*
G01*
X157144916Y-106882902D02*
G75*
G03*
X156437818Y-106590000I-707116J-707098D01*
G01*
X183509116Y-107847130D02*
G75*
G03*
X184216246Y-108140000I707084J707130D01*
G01*
X131744916Y-106882902D02*
G75*
G03*
X131037818Y-106590000I-707116J-707098D01*
G01*
X106344916Y-106882902D02*
G75*
G03*
X105637818Y-106590000I-707116J-707098D01*
G01*
X127694214Y-106590010D02*
G75*
G03*
X126987107Y-106882893I-14J-999990D01*
G01*
X182544916Y-106882902D02*
G75*
G03*
X181837818Y-106590000I-707116J-707098D01*
G01*
X102294214Y-106590010D02*
G75*
G03*
X101587107Y-106882893I-14J-999990D01*
G01*
X153094214Y-106590010D02*
G75*
G03*
X152387107Y-106882893I-14J-999990D01*
G01*
X132709116Y-107847130D02*
G75*
G03*
X133416246Y-108140000I707084J707130D01*
G01*
%TD*%
M02*
